<svg width="800" height="800" viewBox="0 0 800 800" fill="none" xmlns="http://www.w3.org/2000/svg">
<rect width="800" height="800" fill="white"/>
<path d="M221.013 497.505C202.63 515.888 172.789 515.888 154.406 497.505L138.029 481.128L204.637 414.52L221.014 430.897C239.397 449.281 239.397 479.122 221.013 497.505Z" fill="url(#paint0_linear_2489_124)" stroke="#202124" stroke-width="4" stroke-linecap="round" stroke-linejoin="round"/>
<path d="M127.924 448.952C126.807 475.438 146.925 497.83 172.85 498.98C198.784 500.121 220.71 479.575 221.836 453.098C222.953 426.613 202.835 404.212 176.91 403.071C150.976 401.93 129.05 422.475 127.924 448.952Z" fill="#4285F4" stroke="#202124" stroke-width="4" stroke-linecap="round" stroke-linejoin="round"/>
<path d="M633.153 497.501C614.77 515.884 584.929 515.884 566.546 497.501L550.169 481.124L616.776 414.517L633.153 430.893C651.536 449.277 651.537 479.118 633.153 497.501Z" fill="url(#paint1_linear_2489_124)" stroke="#202124" stroke-width="4" stroke-linecap="round" stroke-linejoin="round"/>
<path d="M259.176 575.255H259.193L236.375 552.742L228.92 555.436C218.286 551.301 206.479 549.025 193.754 549.025C154.201 549.025 125.504 568.452 111.743 597.75L84.8799 607.451L103.551 626.025H283.88C281.001 606.087 272.269 588.553 259.168 575.263L259.176 575.255Z" fill="url(#paint2_linear_2489_124)" stroke="#202124" stroke-width="4" stroke-linecap="round" stroke-linejoin="round"/>
<path d="M539.585 448.962C538.466 474.951 558.627 496.924 584.607 498.052C610.597 499.172 632.569 479.011 633.698 453.03C634.817 427.041 614.656 405.06 588.675 403.94C562.686 402.82 540.714 422.981 539.585 448.962Z" fill="#FBBC04" stroke="#202124" stroke-width="4" stroke-linecap="round" stroke-linejoin="round"/>
<path d="M670.874 575.123H670.891L648.132 552.552L640.697 555.253C630.091 551.108 618.314 548.826 605.623 548.826C566.173 548.826 537.551 568.303 523.826 597.677L497.033 607.403L515.656 626.025H695.513C692.641 606.035 683.933 588.455 670.865 575.132L670.874 575.123Z" fill="url(#paint3_linear_2489_124)" stroke="#202124" stroke-width="4" stroke-linecap="round" stroke-linejoin="round"/>
<path fill-rule="evenodd" clip-rule="evenodd" d="M310.749 230.737L310.775 230.694L310.33 230.247C310.261 230.17 310.184 230.101 310.116 230.032L293.182 213.025L266.176 227.454H244.733C243.398 227.454 242.123 228.004 241.207 228.984L233.677 237.019C227.996 243.094 218.651 243.094 212.961 237.019L205.431 228.984C204.515 228.013 203.241 227.454 201.906 227.454H100.122C95.2185 227.454 91.2394 231.63 91.2394 236.769V320.918L75.8799 329.125L93.7894 347.111C93.8493 347.18 93.9177 347.24 93.9776 347.3L94.1915 347.515H94.2001C95.7746 348.993 97.8369 349.895 100.113 349.895H201.897C203.232 349.895 204.507 350.445 205.422 351.425L212.953 359.469C218.643 365.544 227.978 365.544 233.669 359.469L241.199 351.425C242.114 350.454 243.39 349.895 244.724 349.895H303.989C308.259 349.895 311.827 346.733 312.683 342.531V301.926C312.324 301.161 311.015 300.087 311.015 300.087L297.212 286.226V275.561C297.212 273.266 299.625 271.823 301.559 272.974L308.619 277.159C310.15 278.07 311.99 277.348 312.683 275.87V249.462C312.683 248.809 312.752 242.149 312.88 241.53V236.769C312.88 234.466 312.076 232.37 310.758 230.737H310.749Z" fill="url(#paint4_linear_2489_124)" stroke="#202124" stroke-width="4" stroke-linecap="round" stroke-linejoin="round"/>
<path fill-rule="evenodd" clip-rule="evenodd" d="M722.14 229.974L705.263 213.025L678.822 227.351H656.662C655.327 227.351 654.051 227.902 653.143 228.882L645.6 236.931C639.914 243.01 630.564 243.01 624.87 236.931L617.335 228.89C616.419 227.91 615.143 227.36 613.807 227.36H511.964C507.058 227.36 503.077 231.539 503.077 236.681V322.576L488.88 330.272L505.671 347.135C505.671 347.135 505.714 347.178 505.739 347.204L506.527 347.995C506.527 347.995 506.561 347.995 506.604 347.978C508.094 349.173 509.952 349.887 511.973 349.887H613.824C615.16 349.887 616.436 350.437 617.352 351.417L624.887 359.466C630.581 365.545 639.923 365.545 645.617 359.466L653.152 351.417C654.068 350.445 655.344 349.887 656.68 349.887H715.984C720.256 349.887 723.827 346.722 724.683 342.517V303.272C724.683 302.145 724.144 301.087 723.219 300.451L723.193 300.434L709.202 286.383V275.514C709.202 273.218 711.617 271.774 713.552 272.926L720.616 277.114C722.148 278.025 723.989 277.303 724.683 275.824V243.38C724.683 242.726 724.751 242.081 724.88 241.462V236.698C724.88 234.067 723.835 231.694 722.157 230L722.14 229.974Z" fill="url(#paint5_linear_2489_124)" stroke="#202124" stroke-width="4" stroke-linecap="round" stroke-linejoin="round"/>
<path d="M244.304 211C271.001 153.179 330.407 113.909 398.099 116.086C451.295 117.795 497.73 144.715 526.304 184.995" stroke="#202124" stroke-width="4" stroke-linecap="round" stroke-linejoin="round" stroke-dasharray="0.5 15"/>
<path d="M551.796 364.664C522.95 419.158 464.504 454.898 399.084 451.433C350.412 448.851 307.857 425.102 279.796 389.537" stroke="#202124" stroke-width="4" stroke-linecap="round" stroke-linejoin="round" stroke-dasharray="0.5 15"/>
<path d="M264.88 608.025C258.473 563.02 223.13 530.025 174.923 530.025C123.79 530.025 90.7989 563.02 84.8799 608.025" stroke="#202124" stroke-width="4" stroke-linecap="round" stroke-linejoin="round"/>
<path d="M184.65 211.025H82.9913C78.0943 211.025 74.1201 215.179 74.1201 220.29V323.529C74.1201 328.64 78.0943 332.793 82.9913 332.793H184.65C185.983 332.793 187.256 333.34 188.171 334.314L195.691 342.314C201.375 348.356 210.699 348.356 216.382 342.314L223.903 334.314C224.817 333.349 226.091 332.793 227.424 332.793H286.616C290.88 332.793 294.444 329.648 295.299 325.469V285.088C294.606 283.609 292.795 282.9 291.256 283.789L284.163 287.908C282.24 289.028 279.847 287.583 279.847 285.31V258.876C279.847 256.594 282.257 255.159 284.189 256.304L291.239 260.466C292.769 261.372 294.606 260.654 295.299 259.184V226.939C295.299 226.289 295.367 225.648 295.495 225.033V220.298C295.495 215.187 291.521 211.034 286.616 211.034H227.424C226.091 211.034 224.817 211.581 223.903 212.555L216.382 220.546C210.707 226.588 201.375 226.588 195.691 220.546L188.171 212.555C187.256 211.589 185.983 211.034 184.65 211.034V211.025Z" fill="white" stroke="#202124" stroke-width="4" stroke-linecap="round" stroke-linejoin="round"/>
<path d="M264.764 607.395C258.362 562.852 223.049 530.196 174.882 530.196C123.792 530.196 90.8291 562.852 84.915 607.395H264.772H264.764Z" fill="#4285F4" stroke="#202124" stroke-width="4" stroke-linecap="round" stroke-linejoin="round"/>
<path d="M676.88 608.025C670.473 563.02 635.13 530.025 586.923 530.025C535.79 530.025 502.799 563.02 496.88 608.025" stroke="#202124" stroke-width="4" stroke-linecap="round" stroke-linejoin="round"/>
<path d="M596.778 211.025H495.12C490.223 211.025 486.249 215.179 486.249 220.29V323.529C486.249 328.64 490.223 332.793 495.12 332.793H596.778C598.112 332.793 599.385 333.34 600.3 334.314L607.82 342.314C613.504 348.356 622.828 348.356 628.511 342.314L636.032 334.314C636.946 333.349 638.219 332.793 639.553 332.793H698.744C703.009 332.793 706.573 329.648 707.428 325.469V285.088C706.735 283.609 704.923 282.9 703.385 283.789L696.292 287.908C694.369 289.028 691.976 287.583 691.976 285.31V258.876C691.976 256.594 694.386 255.159 696.317 256.304L703.368 260.466C704.898 261.372 706.735 260.654 707.428 259.184V226.939C707.428 226.289 707.496 225.648 707.624 225.033V220.298C707.624 215.187 703.65 211.034 698.744 211.034H639.553C638.219 211.034 636.946 211.581 636.032 212.555L628.511 220.546C622.836 226.588 613.504 226.588 607.82 220.546L600.3 212.555C599.385 211.589 598.112 211.034 596.778 211.034V211.025Z" fill="white" stroke="#202124" stroke-width="4" stroke-linecap="round" stroke-linejoin="round"/>
<path d="M676.9 607.395C670.499 562.852 635.186 530.196 587.019 530.196C535.929 530.196 502.966 562.852 497.052 607.395H676.909H676.9Z" fill="#FBBC04" stroke="#202124" stroke-width="4" stroke-linecap="round" stroke-linejoin="round"/>
<path d="M529.692 188.306C523.484 194.514 513.41 194.509 507.207 188.306L498.29 179.389L520.781 156.898L529.698 165.815C535.906 172.023 535.901 182.097 529.698 188.3L529.692 188.306Z" fill="url(#paint6_linear_2489_124)" stroke="#202124" stroke-width="4" stroke-linecap="round" stroke-linejoin="round"/>
<path d="M494.319 168.308C493.935 177.134 500.786 184.601 509.612 184.985C518.438 185.368 525.905 178.517 526.288 169.692C526.672 160.866 519.821 153.399 510.995 153.015C502.169 152.632 494.703 159.483 494.319 168.308Z" fill="#4285F4" stroke="#202124" stroke-width="4" stroke-linecap="round" stroke-linejoin="round"/>
<path d="M288.766 398.231C282.561 404.436 272.493 404.43 266.294 398.231L257.383 389.32L279.86 366.844L288.771 375.755C294.976 381.959 294.97 392.027 288.771 398.226L288.766 398.231Z" fill="url(#paint7_linear_2489_124)" stroke="#202124" stroke-width="4" stroke-linecap="round" stroke-linejoin="round"/>
<path d="M253.811 378.494C253.428 387.044 260.279 394.277 269.104 394.649C277.93 395.021 285.397 388.384 285.781 379.834C286.164 371.284 279.313 364.051 270.487 363.679C261.662 363.307 254.195 369.944 253.811 378.494Z" fill="#FBBC04" stroke="#202124" stroke-width="4" stroke-linecap="round" stroke-linejoin="round"/>
<defs>
<linearGradient id="paint0_linear_2489_124" x1="311.705" y1="447.666" x2="407.956" y2="438.838" gradientUnits="userSpaceOnUse">
<stop stop-color="#1F87FC"/>
<stop offset="0.64" stop-color="#6F84FA"/>
<stop offset="1" stop-color="#A083FA"/>
</linearGradient>
<linearGradient id="paint1_linear_2489_124" x1="731.156" y1="446.788" x2="827.407" y2="437.961" gradientUnits="userSpaceOnUse">
<stop stop-color="#FFB800"/>
<stop offset="1" stop-color="#FFE100"/>
</linearGradient>
<linearGradient id="paint2_linear_2489_124" x1="84.897" y1="587.521" x2="283.888" y2="587.521" gradientUnits="userSpaceOnUse">
<stop stop-color="#1F87FC"/>
<stop offset="0.64" stop-color="#6F84FA"/>
<stop offset="1" stop-color="#A083FA"/>
</linearGradient>
<linearGradient id="paint3_linear_2489_124" x1="497.042" y1="587.421" x2="695.521" y2="587.421" gradientUnits="userSpaceOnUse">
<stop stop-color="#FFB800"/>
<stop offset="1" stop-color="#FFE100"/>
</linearGradient>
<linearGradient id="paint4_linear_2489_124" x1="75.8799" y1="288.511" x2="312.871" y2="288.511" gradientUnits="userSpaceOnUse">
<stop stop-color="#1F87FC"/>
<stop offset="0.64" stop-color="#6F84FA"/>
<stop offset="1" stop-color="#A083FA"/>
</linearGradient>
<linearGradient id="paint5_linear_2489_124" x1="488.88" y1="288.507" x2="724.863" y2="288.507" gradientUnits="userSpaceOnUse">
<stop stop-color="#FFB800"/>
<stop offset="1" stop-color="#FFE100"/>
</linearGradient>
<linearGradient id="paint6_linear_2489_124" x1="498.287" y1="174.935" x2="534.353" y2="174.935" gradientUnits="userSpaceOnUse">
<stop stop-color="#1F87FC"/>
<stop offset="0.64" stop-color="#6F84FA"/>
<stop offset="1" stop-color="#A083FA"/>
</linearGradient>
<linearGradient id="paint7_linear_2489_124" x1="257.386" y1="384.868" x2="293.421" y2="384.868" gradientUnits="userSpaceOnUse">
<stop stop-color="#FFB800"/>
<stop offset="1" stop-color="#FFE100"/>
</linearGradient>
</defs>
</svg>
