<svg width="800" height="800" viewBox="0 0 800 800" fill="none" xmlns="http://www.w3.org/2000/svg">
<rect width="800" height="800" fill="white"/>
<path d="M431.363 625.331L94.2045 625.766L66.2988 597.86L93.9173 403.136L403.17 374.795L431.076 402.701L431.363 625.331Z" fill="url(#paint0_linear_2488_19)" stroke="#202124" stroke-width="4" stroke-linecap="round" stroke-linejoin="round"/>
<path fill-rule="evenodd" clip-rule="evenodd" d="M676.367 310.007L668.553 314.554C666.436 315.794 663.793 314.21 663.793 311.698L663.752 282.561C663.752 280.042 666.403 278.457 668.537 279.713L676.309 284.293C678 285.294 680.019 284.498 680.782 282.873L680.955 250.133C680.955 247.088 679.658 244.363 677.631 242.492L649.922 214.783L639.622 227.751L642.601 239.964L446.703 240.218C441.302 240.218 436.928 244.806 436.928 250.445L437.01 316.089L427.374 315.506L412.28 324.297L439.02 350.922C440.81 353.401 443.641 355.001 446.842 355.001L558.9 354.853C560.369 354.853 561.773 355.453 562.782 356.528L571.088 365.335C577.359 371.983 587.643 371.966 593.897 365.302L602.179 356.479C603.18 355.403 604.583 354.804 606.053 354.796L671.303 354.714C676.006 354.714 679.929 351.234 680.865 346.621L680.815 311.435C680.052 309.81 678.041 309.031 676.359 310.007H676.367Z" fill="url(#paint1_linear_2488_19)" stroke="#202124" stroke-width="4" stroke-linecap="round" stroke-linejoin="round"/>
<path d="M403.158 374.817L66 375.229L66.272 597.858L403.43 597.447L403.158 374.817Z" fill="white" stroke="#202124" stroke-width="4" stroke-miterlimit="10" stroke-linecap="round" stroke-linejoin="round"/>
<path d="M67.4062 408.7L403.21 408.265" stroke="#202124" stroke-width="4" stroke-miterlimit="10" stroke-linecap="round" stroke-linejoin="round"/>
<path d="M130.236 450.781C119.656 188.024 421.834 54.8978 538.431 250.271" stroke="#202124" stroke-width="4" stroke-linecap="round" stroke-linejoin="round"/>
<g style="mix-blend-mode:multiply">
<path d="M136.474 450.585C136.794 423.943 140.257 398.803 146.323 375.338" stroke="#CBCBCB" stroke-width="4" stroke-linecap="round" stroke-linejoin="round"/>
</g>
<path d="M643.258 212.025L418.805 212.321C413.405 212.321 409.03 216.909 409.03 222.547L409.153 316.902C409.153 322.54 413.553 327.104 418.953 327.104L531.011 326.956C532.48 326.956 533.884 327.555 534.893 328.63L543.199 337.437C549.47 344.085 559.754 344.069 566.008 337.404L574.29 328.581C575.291 327.506 576.694 326.898 578.163 326.898L643.414 326.816C648.117 326.816 652.04 323.336 652.975 318.724L652.926 283.538C652.163 281.913 650.152 281.133 648.469 282.11L640.656 286.657C638.538 287.896 635.895 286.312 635.895 283.801L635.854 254.664C635.854 252.144 638.505 250.56 640.639 251.816L648.412 256.395C650.103 257.397 652.122 256.601 652.885 254.976L653.057 222.236C653.057 216.605 648.658 212.034 643.258 212.034V212.025Z" fill="white" stroke="#202124" stroke-width="4" stroke-linecap="round" stroke-linejoin="round"/>
<path d="M154.386 469.799C157.665 455.828 148.998 441.843 135.026 438.564C121.055 435.284 107.07 443.952 103.791 457.923C100.511 471.895 109.179 485.879 123.15 489.159C137.122 492.438 151.106 483.771 154.386 469.799Z" fill="#4285F4" stroke="#202124" stroke-width="4" stroke-miterlimit="10" stroke-linecap="round" stroke-linejoin="round"/>
<path d="M103.176 522.884L163.46 522.811" stroke="#202124" stroke-width="4" stroke-miterlimit="10" stroke-linecap="round" stroke-linejoin="round"/>
<path d="M103.209 550.559L209.743 550.42" stroke="#202124" stroke-width="4" stroke-miterlimit="10" stroke-linecap="round" stroke-linejoin="round"/>
<path d="M733.96 486.525C733.131 484.801 730.89 483.964 729.052 485.031L720.581 489.914C718.267 491.252 715.361 489.578 715.361 486.902L715.32 455.968C715.32 453.301 718.193 451.618 720.508 452.923L729.043 457.733C730.882 458.759 733.106 457.93 733.927 456.198C733.927 456.198 733.878 424.229 733.886 424.098C733.631 421.283 732.285 418.78 730.283 417.023H730.291L702.295 389.011L689.204 411.196L693.644 414.438L611.404 414.544C608.302 414.544 605.323 415.8 603.156 418.016L595.818 425.51C589.014 432.47 577.811 432.486 570.982 425.543L563.628 418.066C561.453 415.858 558.474 414.61 555.371 414.61L498.025 414.684C492.149 414.684 487.372 419.469 487.38 425.362L487.462 489.57L462.667 497.375L491.032 526.102L491.082 526.077C492.969 527.76 495.448 528.786 498.173 528.786L555.519 528.712C558.63 528.712 561.601 529.951 563.776 532.167L571.13 539.644C577.959 546.588 589.162 546.571 595.966 539.611L603.304 532.118C605.479 529.902 608.45 528.646 611.552 528.646L692.134 528.539L723.454 528.498C729.208 528.498 733.804 523.91 734.001 518.198C733.976 517.886 733.96 486.525 733.96 486.525Z" fill="url(#paint2_linear_2488_19)" fill-opacity="0.95" stroke="#202124" stroke-width="4" stroke-linecap="round" stroke-linejoin="round"/>
<path d="M706.054 458.62C705.225 456.897 702.985 456.06 701.146 457.126L692.676 462.01C690.361 463.348 687.456 461.673 687.456 458.998L687.415 428.064C687.415 425.396 690.288 423.713 692.602 425.018L701.138 429.828C702.977 430.854 705.201 430.025 706.022 428.293C706.022 428.293 705.972 396.325 705.98 396.194C705.488 390.76 700.966 386.484 695.409 386.492L583.499 386.64C580.397 386.64 577.417 387.896 575.25 390.112L567.913 397.605C561.109 404.565 549.906 404.582 543.077 397.638L535.723 390.161C533.548 387.953 530.568 386.706 527.466 386.706L470.12 386.779C464.243 386.779 459.466 391.564 459.475 397.458L459.598 490.236C459.598 496.121 464.391 500.889 470.268 500.881L527.614 500.807C530.724 500.807 533.696 502.046 535.871 504.262L543.225 511.74C550.053 518.683 561.257 518.667 568.061 511.707L575.398 504.213C577.573 501.997 580.544 500.741 583.647 500.733L664.229 500.627L695.549 500.586C701.302 500.586 705.898 495.997 706.095 490.285C706.071 489.973 706.054 458.612 706.054 458.612V458.62Z" fill="#34A853" stroke="#202124" stroke-width="4" stroke-linecap="round" stroke-linejoin="round"/>
<defs>
<linearGradient id="paint0_linear_2488_19" x1="77" y1="626.025" x2="431" y2="264.525" gradientUnits="userSpaceOnUse">
<stop stop-color="#1F87FC"/>
<stop offset="0.06" stop-color="#2686FB"/>
<stop offset="0.15" stop-color="#3985FA"/>
<stop offset="0.19" stop-color="#4385FA"/>
<stop offset="0.28" stop-color="#5283F8"/>
<stop offset="0.46" stop-color="#7981F3"/>
<stop offset="0.65" stop-color="#A97EED"/>
<stop offset="0.73" stop-color="#BC6BC9"/>
<stop offset="0.85" stop-color="#E04B88"/>
<stop offset="1" stop-color="#FD2B25"/>
</linearGradient>
<linearGradient id="paint1_linear_2488_19" x1="412.297" y1="292.55" x2="680.955" y2="292.55" gradientUnits="userSpaceOnUse">
<stop stop-color="#FFB800"/>
<stop offset="1" stop-color="#FFE100"/>
</linearGradient>
<linearGradient id="paint2_linear_2488_19" x1="462.659" y1="466.925" x2="734.001" y2="466.925" gradientUnits="userSpaceOnUse">
<stop stop-color="#00AB47"/>
<stop offset="0.39" stop-color="#009F68"/>
<stop offset="0.99" stop-color="#008F9A"/>
</linearGradient>
</defs>
</svg>
