<svg width="228" height="256" viewBox="0 0 228 256" fill="none" xmlns="http://www.w3.org/2000/svg">
<path d="M198.257 0H29.7383C13.3108 0 0 13.316 0 29.7454V198.329C0 214.763 13.3108 228.083 29.7383 228.083H32.2499C36.9727 244.217 51.8637 256 69.5143 256C87.1649 256 102.065 244.217 106.787 228.083H198.257C214.685 228.083 228 214.759 228 198.329V29.7454C228 13.3116 214.68 0 198.257 0ZM214.558 197.502C214.558 206.964 206.889 214.637 197.43 214.637H125.134V148.1C125.134 143.611 120.346 140.724 116.372 142.831L98.8914 152.111C94.2208 154.584 88.6057 151.201 88.6057 145.914V82.1212C88.6057 76.8392 94.2208 73.4514 98.8914 75.9248L116.372 85.2041C120.346 87.3117 125.134 84.429 125.134 79.9265V13.4379H197.43C206.889 13.4379 214.558 21.1105 214.558 30.5728V197.489V197.502Z" fill="#202124"/>
</svg>
