<?xml version="1.0" encoding="UTF-8"?>
<svg xmlns="http://www.w3.org/2000/svg" version="1.1" xmlns:xlink="http://www.w3.org/1999/xlink" viewBox="0 0 785.6 849.2">
  <!-- Generator: Adobe Illustrator 29.3.1, SVG Export Plug-In . SVG Version: 2.1.0 Build 151)  -->
  <defs>
    <style>
      .st0, .st1 {
        fill: #fff;
      }

      .st1, .st2, .st3 {
        fill-rule: evenodd;
      }

      .st4, .st5 {
        fill: none;
      }

      .st6 {
        fill: #010000;
      }

      .st6, .st7, .st3 {
        fill-opacity: 0;
      }

      .st5 {
        stroke-linejoin: round;
      }

      .st5, .st2 {
        stroke: #000;
      }

      .st2 {
        stroke-miterlimit: 10;
      }

      .st8 {
        clip-path: url(#clippath);
      }

      .st9 {
        fill: #f7f7f7;
      }
    </style>
    <clipPath id="clippath">
      <rect class="st4" y="0" width="785.6" height="849.2"/>
    </clipPath>
  </defs>
  <g id="Layer_2">
    <rect class="st0" y="0" width="785.6" height="849.2"/>
  </g>
  <g id="Layer_1">
    <g class="st8">
      <g>
        <path class="st3" d="M0,0h785.6v849.2H0V0Z"/>
        <path class="st1" d="M19.4,314.4l146-59.2,146,59.2-146,59.2-146-59.2Z"/>
        <path class="st5" d="M19.4,314.4l146-59.2,146,59.2-146,59.2-146-59.2Z"/>
        <path class="st3" d="M69.2,272.9h192.5v91.2H69.2v-91.2Z"/>
        <path d="M114.5,299.8v-13.4h4.6c1,0,1.8,0,2.4.2.8.2,1.4.5,2,1,.7.6,1.2,1.4,1.6,2.3.4.9.5,2,.5,3.2s-.1,1.9-.4,2.7c-.2.8-.5,1.4-.9,1.9-.4.5-.8.9-1.2,1.2-.4.3-1,.5-1.6.7-.6.1-1.3.2-2.1.2h-4.8ZM116.3,298.3h2.9c.9,0,1.6,0,2.1-.2.5-.2.9-.4,1.2-.7.4-.4.7-1,1-1.7.2-.7.4-1.6.4-2.6s-.2-2.5-.7-3.2c-.5-.8-1-1.2-1.7-1.5-.5-.2-1.2-.3-2.3-.3h-2.8v10.2ZM127.2,295c0-1.8.5-3.1,1.5-4,.8-.7,1.8-1.1,3-1.1s2.4.4,3.3,1.3c.8.9,1.3,2.1,1.3,3.6s-.2,2.2-.6,2.9c-.4.7-.9,1.3-1.6,1.7-.7.4-1.5.6-2.3.6-1.4,0-2.4-.4-3.3-1.3-.8-.9-1.2-2.1-1.2-3.8ZM128.9,295c0,1.2.3,2.2.8,2.8.5.6,1.2.9,2,.9s1.5-.3,2-.9c.5-.6.8-1.6.8-2.8s-.3-2.1-.8-2.7c-.5-.6-1.2-.9-2-.9s-1.5.3-2,.9c-.5.6-.8,1.5-.8,2.8ZM143.3,303.6l-.2-1.5c.4,0,.7.1.9.1s.7,0,.9-.2c.2-.1.4-.3.5-.5.1-.2.3-.6.5-1.2,0,0,0-.2.1-.4l-3.7-9.7h1.8l2,5.6c.3.7.5,1.5.7,2.2.2-.8.4-1.5.7-2.2l2.1-5.6h1.6l-3.7,9.8c-.4,1.1-.7,1.8-.9,2.2-.3.5-.6.9-1,1.2s-.8.4-1.3.4-.7,0-1.1-.2ZM152.1,295c0-1.8.5-3.1,1.5-4,.8-.7,1.8-1.1,3-1.1s2.4.4,3.3,1.3c.8.9,1.3,2.1,1.3,3.6s-.2,2.2-.6,2.9c-.4.7-.9,1.3-1.6,1.7-.7.4-1.5.6-2.3.6-1.4,0-2.4-.4-3.3-1.3-.8-.9-1.2-2.1-1.2-3.8ZM153.8,295c0,1.2.3,2.2.8,2.8.5.6,1.2.9,2,.9s1.5-.3,2-.9c.5-.6.8-1.6.8-2.8s-.3-2.1-.8-2.7c-.5-.6-1.2-.9-2-.9s-1.5.3-2,.9c-.5.6-.8,1.5-.8,2.8ZM169.4,299.8v-1.4c-.8,1.1-1.8,1.6-3.1,1.6s-1.1-.1-1.6-.3c-.5-.2-.9-.5-1.1-.8s-.4-.7-.5-1.2c0-.3-.1-.8-.1-1.5v-6h1.6v5.4c0,.9,0,1.4.1,1.7.1.4.3.8.7,1s.7.4,1.2.4.9-.1,1.4-.4c.4-.3.7-.6.9-1,.2-.4.3-1.1.3-1.9v-5.2h1.6v9.7h-1.5ZM178.6,299.8v-13.4h1.6v4.8c.8-.9,1.7-1.3,2.9-1.3s1.3.1,1.9.4c.5.3.9.7,1.1,1.2s.3,1.2.3,2.2v6.1h-1.6v-6.1c0-.8-.2-1.4-.5-1.8s-.9-.6-1.5-.6-.9.1-1.4.4c-.4.2-.7.6-.9,1-.2.4-.3,1-.3,1.8v5.3h-1.6ZM195.3,298.7c-.6.5-1.2.9-1.8,1.1-.6.2-1.2.3-1.8.3-1.1,0-1.9-.3-2.5-.8-.6-.5-.9-1.2-.9-2s.1-.9.3-1.3c.2-.4.5-.7.8-.9.4-.2.8-.4,1.2-.5.3,0,.8-.2,1.5-.2,1.3-.2,2.3-.3,2.9-.6,0-.2,0-.4,0-.4,0-.7-.2-1.1-.5-1.4-.4-.4-1-.5-1.9-.5s-1.3.1-1.7.4c-.4.3-.6.7-.8,1.4l-1.6-.2c.1-.7.4-1.2.7-1.6.3-.4.8-.8,1.5-1,.6-.2,1.4-.3,2.2-.3s1.5,0,2,.3c.5.2.9.4,1.1.7.2.3.4.7.5,1.1,0,.3,0,.8,0,1.5v2.2c0,1.5,0,2.5.1,2.9,0,.4.2.8.4,1.2h-1.7c-.2-.3-.3-.7-.3-1.2ZM195.2,295c-.6.2-1.5.5-2.7.6-.7,0-1.2.2-1.4.3s-.5.3-.7.5c-.1.2-.2.5-.2.8,0,.4.2.8.5,1.1.3.3.8.4,1.5.4s1.2-.1,1.7-.4c.5-.3.9-.7,1.1-1.1.2-.4.3-.9.3-1.6v-.6ZM202,299.8l-3.7-9.7h1.7l2.1,5.8c.2.6.4,1.3.6,1.9.1-.5.3-1.1.6-1.8l2.1-5.9h1.7l-3.7,9.7h-1.5ZM215.3,296.7l1.7.2c-.3,1-.8,1.8-1.5,2.3-.7.5-1.6.8-2.8.8s-2.5-.4-3.4-1.3c-.8-.9-1.2-2.1-1.2-3.7s.4-2.9,1.2-3.8c.8-.9,1.9-1.3,3.3-1.3s2.3.4,3.2,1.3c.8.9,1.2,2.1,1.2,3.7v.4h-7.2c0,1.1.4,1.9.9,2.5.5.6,1.2.8,2,.8s1.1-.2,1.5-.5c.4-.3.8-.8,1-1.5ZM209.9,294.1h5.4c0-.8-.3-1.4-.6-1.8-.5-.6-1.2-1-2-1s-1.4.3-1.9.8c-.5.5-.8,1.2-.8,2Z"/>
        <path d="M95.7,320.7c-.6.5-1.2.9-1.8,1.1-.6.2-1.2.3-1.8.3-1.1,0-1.9-.3-2.5-.8-.6-.5-.9-1.2-.9-2s.1-.9.3-1.3c.2-.4.5-.7.8-.9.4-.2.8-.4,1.2-.5.3,0,.8-.2,1.5-.2,1.3-.2,2.3-.3,2.9-.6,0-.2,0-.4,0-.4,0-.7-.2-1.1-.5-1.4-.4-.4-1-.5-1.9-.5s-1.3.1-1.7.4c-.4.3-.6.7-.8,1.4l-1.6-.2c.1-.7.4-1.2.7-1.6.3-.4.8-.8,1.5-1,.6-.2,1.4-.3,2.2-.3s1.5,0,2,.3c.5.2.9.4,1.1.7.2.3.4.7.5,1.1,0,.3,0,.8,0,1.5v2.2c0,1.5,0,2.5.1,2.9,0,.4.2.8.4,1.2h-1.7c-.2-.3-.3-.7-.3-1.2ZM95.6,317c-.6.2-1.5.5-2.7.6-.7,0-1.2.2-1.4.3s-.5.3-.7.5c-.1.2-.2.5-.2.8,0,.4.2.8.5,1.1.3.3.8.4,1.5.4s1.2-.1,1.7-.4c.5-.3.9-.7,1.1-1.1.2-.4.3-.9.3-1.6v-.6ZM106.1,321.8v-1.2c-.6,1-1.5,1.4-2.7,1.4s-1.5-.2-2.1-.6c-.6-.4-1.1-1-1.5-1.8-.4-.8-.5-1.6-.5-2.6s.2-1.8.5-2.6c.3-.8.8-1.4,1.4-1.8.6-.4,1.4-.6,2.2-.6s1.1.1,1.5.4c.5.2.8.6,1.1,1v-4.8h1.6v13.4h-1.5ZM100.9,317c0,1.2.3,2.2.8,2.8.5.6,1.1.9,1.8.9s1.3-.3,1.8-.9c.5-.6.8-1.5.8-2.7s-.3-2.3-.8-2.9c-.5-.6-1.1-.9-1.9-.9s-1.3.3-1.8.9c-.5.6-.7,1.5-.7,2.8ZM116.4,321.8v-1.2c-.6,1-1.5,1.4-2.7,1.4s-1.5-.2-2.1-.6c-.6-.4-1.1-1-1.5-1.8-.4-.8-.5-1.6-.5-2.6s.2-1.8.5-2.6c.3-.8.8-1.4,1.4-1.8.6-.4,1.4-.6,2.2-.6s1.1.1,1.5.4c.5.2.8.6,1.1,1v-4.8h1.6v13.4h-1.5ZM111.3,317c0,1.2.3,2.2.8,2.8.5.6,1.1.9,1.8.9s1.3-.3,1.8-.9c.5-.6.8-1.5.8-2.7s-.3-2.3-.8-2.9c-.5-.6-1.1-.9-1.9-.9s-1.3.3-1.8.9c-.5.6-.7,1.5-.7,2.8ZM120.6,310.4v-1.9h1.6v1.9h-1.6ZM120.6,321.8v-9.7h1.6v9.7h-1.6ZM128.3,320.4l.2,1.5c-.5,0-.9.1-1.2.1-.6,0-1.1,0-1.4-.3-.3-.2-.6-.4-.7-.7-.1-.3-.2-1-.2-1.9v-5.6h-1.2v-1.3h1.2v-2.4l1.6-1v3.4h1.7v1.3h-1.7v5.7c0,.5,0,.8,0,.9,0,.1.2.2.3.3.1,0,.3.1.6.1s.4,0,.7,0ZM129.9,310.4v-1.9h1.6v1.9h-1.6ZM129.9,321.8v-9.7h1.6v9.7h-1.6ZM133.4,317c0-1.8.5-3.1,1.5-4,.8-.7,1.8-1.1,3-1.1s2.4.4,3.3,1.3c.8.9,1.3,2.1,1.3,3.6s-.2,2.2-.6,2.9c-.4.7-.9,1.3-1.6,1.7-.7.4-1.5.6-2.3.6-1.4,0-2.4-.4-3.3-1.3-.8-.9-1.2-2.1-1.2-3.8ZM135.1,317c0,1.2.3,2.2.8,2.8.5.6,1.2.9,2,.9s1.5-.3,2-.9c.5-.6.8-1.6.8-2.8s-.3-2.1-.8-2.7-1.2-.9-2-.9-1.5.3-2,.9c-.5.6-.8,1.5-.8,2.8ZM144.4,321.8v-9.7h1.5v1.4c.7-1.1,1.7-1.6,3.1-1.6s1.1.1,1.6.3c.5.2.9.5,1.1.8.2.3.4.7.5,1.2,0,.3,0,.8,0,1.6v6h-1.6v-5.9c0-.7,0-1.2-.2-1.5-.1-.3-.3-.6-.7-.8-.3-.2-.7-.3-1.1-.3-.7,0-1.3.2-1.8.7-.5.4-.8,1.3-.8,2.5v5.3h-1.6ZM161.1,320.7c-.6.5-1.2.9-1.8,1.1-.6.2-1.2.3-1.8.3-1.1,0-1.9-.3-2.5-.8s-.9-1.2-.9-2,.1-.9.3-1.3c.2-.4.5-.7.8-.9.4-.2.8-.4,1.2-.5.3,0,.8-.2,1.5-.2,1.3-.2,2.3-.3,2.9-.6,0-.2,0-.4,0-.4,0-.7-.2-1.1-.5-1.4-.4-.4-1-.5-1.9-.5s-1.3.1-1.7.4-.6.7-.8,1.4l-1.6-.2c.1-.7.4-1.2.7-1.6.3-.4.8-.8,1.5-1s1.4-.3,2.2-.3,1.5,0,2,.3c.5.2.9.4,1.1.7.2.3.4.7.5,1.1,0,.3,0,.8,0,1.5v2.2c0,1.5,0,2.5.1,2.9,0,.4.2.8.4,1.2h-1.7c-.2-.3-.3-.7-.3-1.2ZM161,317c-.6.2-1.5.5-2.7.6-.7,0-1.2.2-1.4.3s-.5.3-.7.5c-.1.2-.2.5-.2.8,0,.4.2.8.5,1.1s.8.4,1.5.4,1.2-.1,1.7-.4c.5-.3.9-.7,1.1-1.1.2-.4.3-.9.3-1.6v-.6ZM165.1,321.8v-13.4h1.6v13.4h-1.6ZM180.7,321.8v-1.2c-.6,1-1.5,1.4-2.7,1.4s-1.5-.2-2.1-.6c-.6-.4-1.1-1-1.5-1.8-.4-.8-.5-1.6-.5-2.6s.2-1.8.5-2.6c.3-.8.8-1.4,1.4-1.8.6-.4,1.4-.6,2.2-.6s1.1.1,1.5.4c.5.2.8.6,1.1,1v-4.8h1.6v13.4h-1.5ZM175.6,317c0,1.2.3,2.2.8,2.8.5.6,1.1.9,1.8.9s1.3-.3,1.8-.9c.5-.6.8-1.5.8-2.7s-.3-2.3-.8-2.9c-.5-.6-1.1-.9-1.9-.9s-1.3.3-1.8.9c-.5.6-.7,1.5-.7,2.8ZM184.8,325.6l-.2-1.5c.4,0,.7.1.9.1s.7,0,.9-.2c.2-.1.4-.3.5-.5.1-.2.3-.6.5-1.2,0,0,0-.2.1-.4l-3.7-9.7h1.8l2,5.6c.3.7.5,1.5.7,2.2.2-.8.4-1.5.7-2.2l2.1-5.6h1.6l-3.7,9.8c-.4,1.1-.7,1.8-.9,2.2-.3.5-.6.9-1,1.2-.4.2-.8.4-1.3.4s-.7,0-1.1-.2ZM194.2,321.8v-9.7h1.5v1.4c.7-1.1,1.7-1.6,3.1-1.6s1.1.1,1.6.3c.5.2.9.5,1.1.8.2.3.4.7.5,1.2,0,.3,0,.8,0,1.6v6h-1.6v-5.9c0-.7,0-1.2-.2-1.5-.1-.3-.3-.6-.7-.8-.3-.2-.7-.3-1.1-.3-.7,0-1.3.2-1.8.7-.5.4-.8,1.3-.8,2.5v5.3h-1.6ZM210.9,320.7c-.6.5-1.2.9-1.8,1.1-.6.2-1.2.3-1.8.3-1.1,0-1.9-.3-2.5-.8-.6-.5-.9-1.2-.9-2s.1-.9.3-1.3c.2-.4.5-.7.8-.9.4-.2.8-.4,1.2-.5.3,0,.8-.2,1.5-.2,1.3-.2,2.3-.3,2.9-.6,0-.2,0-.4,0-.4,0-.7-.2-1.1-.5-1.4-.4-.4-1-.5-1.9-.5s-1.3.1-1.7.4c-.4.3-.6.7-.8,1.4l-1.6-.2c.1-.7.4-1.2.7-1.6.3-.4.8-.8,1.5-1,.6-.2,1.4-.3,2.2-.3s1.5,0,2,.3c.5.2.9.4,1.1.7.2.3.4.7.5,1.1,0,.3,0,.8,0,1.5v2.2c0,1.5,0,2.5.1,2.9,0,.4.2.8.4,1.2h-1.7c-.2-.3-.3-.7-.3-1.2ZM210.7,317c-.6.2-1.5.5-2.7.6-.7,0-1.2.2-1.4.3s-.5.3-.7.5c-.1.2-.2.5-.2.8,0,.4.2.8.5,1.1.3.3.8.4,1.5.4s1.2-.1,1.7-.4c.5-.3.9-.7,1.1-1.1.2-.4.3-.9.3-1.6v-.6ZM214.9,321.8v-9.7h1.5v1.4c.3-.5.7-.9,1.2-1.1.5-.3,1.1-.4,1.7-.4s1.3.2,1.8.5c.5.3.8.7,1,1.2.8-1.1,1.8-1.7,3-1.7s1.7.3,2.2.8c.5.5.8,1.3.8,2.5v6.6h-1.6v-6.1c0-.7,0-1.1-.2-1.4-.1-.3-.3-.5-.6-.7s-.6-.3-1-.3c-.7,0-1.2.2-1.7.7-.4.4-.7,1.2-.7,2.2v5.6h-1.6v-6.3c0-.7-.1-1.3-.4-1.6-.3-.4-.7-.5-1.3-.5s-.9.1-1.3.4c-.4.2-.7.6-.9,1.1-.2.5-.2,1.1-.2,2v5h-1.6ZM230.5,310.4v-1.9h1.6v1.9h-1.6ZM230.5,321.8v-9.7h1.6v9.7h-1.6ZM240.9,318.3l1.6.2c-.2,1.1-.6,2-1.4,2.6-.7.6-1.6.9-2.7.9s-2.4-.4-3.2-1.3c-.8-.9-1.2-2.1-1.2-3.7s.2-2,.5-2.8.9-1.4,1.6-1.8c.7-.4,1.5-.6,2.3-.6s1.9.3,2.6.8c.7.5,1.1,1.3,1.3,2.3l-1.6.2c-.2-.6-.4-1.1-.8-1.5-.4-.3-.8-.5-1.4-.5-.8,0-1.5.3-2,.9-.5.6-.8,1.5-.8,2.8s.2,2.2.8,2.8c.5.6,1.2.9,2,.9s1.2-.2,1.6-.6c.4-.4.7-1,.8-1.8Z"/>
        <path d="M130.3,340.7l1.7.2c-.3,1-.8,1.8-1.5,2.3-.7.5-1.6.8-2.8.8s-2.5-.4-3.4-1.3c-.8-.9-1.2-2.1-1.2-3.7s.4-2.9,1.2-3.8c.8-.9,1.9-1.3,3.3-1.3s2.3.4,3.2,1.3c.8.9,1.2,2.1,1.2,3.7v.4h-7.2c0,1.1.4,1.9.9,2.5.5.6,1.2.8,2,.8s1.1-.2,1.5-.5c.4-.3.8-.8,1-1.5ZM124.9,338.1h5.4c0-.8-.3-1.4-.6-1.8-.5-.6-1.2-1-2-1s-1.4.3-1.9.8c-.5.5-.8,1.2-.8,2ZM134,343.8v-13.4h1.6v13.4h-1.6ZM144.8,340.7l1.7.2c-.3,1-.8,1.8-1.5,2.3-.7.5-1.6.8-2.8.8s-2.5-.4-3.4-1.3c-.8-.9-1.2-2.1-1.2-3.7s.4-2.9,1.2-3.8c.8-.9,1.9-1.3,3.3-1.3s2.3.4,3.2,1.3c.8.9,1.2,2.1,1.2,3.7v.4h-7.2c0,1.1.4,1.9.9,2.5.5.6,1.2.8,2,.8s1.1-.2,1.5-.5c.4-.3.8-.8,1-1.5ZM139.4,338.1h5.4c0-.8-.3-1.4-.6-1.8-.5-.6-1.2-1-2-1s-1.4.3-1.9.8c-.5.5-.8,1.2-.8,2ZM148.5,343.8v-9.7h1.5v1.4c.3-.5.7-.9,1.2-1.1.5-.3,1.1-.4,1.7-.4s1.3.2,1.8.5c.5.3.8.7,1,1.2.8-1.1,1.8-1.7,3-1.7s1.7.3,2.2.8c.5.5.8,1.3.8,2.5v6.6h-1.6v-6.1c0-.7,0-1.1-.2-1.4-.1-.3-.3-.5-.6-.7s-.6-.3-1-.3c-.7,0-1.2.2-1.7.7-.4.4-.7,1.2-.7,2.2v5.6h-1.6v-6.3c0-.7-.1-1.3-.4-1.6s-.7-.5-1.3-.5-.9.1-1.3.4-.7.6-.9,1.1c-.2.5-.2,1.1-.2,2v5h-1.6ZM170.7,340.7l1.7.2c-.3,1-.8,1.8-1.5,2.3-.7.5-1.6.8-2.8.8s-2.5-.4-3.4-1.3c-.8-.9-1.2-2.1-1.2-3.7s.4-2.9,1.2-3.8c.8-.9,1.9-1.3,3.3-1.3s2.3.4,3.2,1.3c.8.9,1.2,2.1,1.2,3.7,0,.1,0,.2,0,.4h-7.2c0,1.1.4,1.9.9,2.5.5.6,1.2.8,2,.8s1.1-.2,1.5-.5c.4-.3.8-.8,1-1.5ZM165.3,338.1h5.4c0-.8-.3-1.4-.6-1.8-.5-.6-1.2-1-2-1s-1.4.3-1.9.8c-.5.5-.8,1.2-.8,2ZM174.5,343.8v-9.7h1.5v1.4c.7-1.1,1.7-1.6,3.1-1.6s1.1.1,1.6.3c.5.2.9.5,1.1.8.2.3.4.7.5,1.2,0,.3,0,.8,0,1.6v6h-1.6v-5.9c0-.7,0-1.2-.2-1.5-.1-.3-.3-.6-.7-.8-.3-.2-.7-.3-1.1-.3-.7,0-1.3.2-1.8.7-.5.4-.8,1.3-.8,2.5v5.3h-1.6ZM188.4,342.4l.2,1.5c-.5,0-.9.1-1.2.1-.6,0-1.1,0-1.4-.3-.3-.2-.6-.4-.7-.7-.1-.3-.2-1-.2-1.9v-5.6h-1.2v-1.3h1.2v-2.4l1.6-1v3.4h1.7v1.3h-1.7v5.7c0,.5,0,.8,0,.9,0,.1.2.2.3.3.1,0,.3.1.6.1s.4,0,.7,0ZM189.4,341l1.6-.2c0,.6.3,1.1.8,1.5.4.3,1,.5,1.8.5s1.3-.2,1.7-.5c.4-.3.5-.7.5-1.1s-.2-.7-.5-.9c-.2-.1-.8-.3-1.7-.5-1.2-.3-2-.6-2.5-.8-.5-.2-.8-.5-1-.9-.2-.4-.4-.8-.4-1.3s0-.8.3-1.2c.2-.4.5-.7.8-.9.2-.2.6-.3,1-.5.4-.1.9-.2,1.4-.2.8,0,1.4.1,2,.3.6.2,1,.5,1.3.9.3.4.5.9.6,1.5l-1.6.2c0-.5-.3-.9-.6-1.2-.3-.3-.8-.4-1.5-.4s-1.3.1-1.6.4c-.3.2-.5.5-.5.9s0,.4.2.6c.1.2.3.3.6.4.2,0,.6.2,1.4.4,1.2.3,2,.6,2.4.8.5.2.8.5,1.1.9.3.4.4.8.4,1.4s-.2,1.1-.5,1.5c-.3.5-.8.9-1.4,1.1-.6.3-1.3.4-2,.4-1.2,0-2.2-.3-2.9-.8-.7-.5-1.1-1.3-1.2-2.3ZM202.4,340.6v-.5c0-.6,0-1.2.3-1.7.1-.3.3-.7.6-1.1.2-.3.6-.6,1.2-1.1.6-.5.9-.9,1.1-1.2.2-.3.3-.6.3-1,0-.6-.2-1.2-.8-1.7-.5-.5-1.1-.7-1.8-.7s-1.3.2-1.8.7-.8,1.1-.9,2l-1.7-.2c.2-1.2.6-2.2,1.4-2.8.8-.7,1.7-1,3-1s2.4.4,3.1,1.1c.8.7,1.2,1.6,1.2,2.6s-.1,1.1-.4,1.6c-.3.5-.8,1.1-1.6,1.8-.5.5-.9.8-1,1-.2.2-.3.5-.4.8,0,.3-.1.8-.1,1.4h-1.6ZM202.3,343.8v-1.9h1.9v1.9h-1.9Z"/>
        <path class="st1" d="M10.3,67.4L165.5,11.1l155.1,56.3-155.1,56.3L10.3,67.4Z"/>
        <path class="st5" d="M10.3,67.4L165.5,11.1l155.1,56.3-155.1,56.3L10.3,67.4Z"/>
        <path class="st3" d="M43,32h244.9v70.8H43V32Z"/>
        <path d="M99.1,58.9v-13.3h3.7c1.2,0,2.2.3,3.1.8.9.5,1.6,1.2,2,2.2.5.9.7,2,.7,3.2v.8c0,1.2-.2,2.3-.7,3.3-.5.9-1.2,1.7-2.1,2.2-.9.5-1.9.8-3.1.8h-3.7ZM100.8,47.1v10.4h1.8c1.4,0,2.4-.4,3.2-1.2.8-.8,1.1-2,1.1-3.6v-.8c0-1.5-.4-2.7-1.1-3.5-.7-.8-1.7-1.3-3-1.3h-2ZM110.6,53.9c0-1,.2-1.8.6-2.6.4-.8.9-1.4,1.6-1.8.7-.4,1.4-.6,2.3-.6,1.3,0,2.4.5,3.2,1.4.8.9,1.3,2.2,1.2,3.7h0c0,1.1-.2,1.9-.5,2.7-.4.8-.9,1.4-1.6,1.8-.7.4-1.5.6-2.4.6-1.3,0-2.4-.5-3.2-1.4-.8-.9-1.2-2.2-1.2-3.7h0ZM112.3,54.1c0,1.1.3,2,.8,2.6.5.7,1.2,1,2,1s1.5-.3,2-1c.5-.7.8-1.6.8-2.8,0-1.1-.3-2-.8-2.6-.5-.7-1.2-1-2-1s-1.5.3-2,1c-.5.7-.8,1.6-.8,2.8ZM125.8,59.1c-1.3,0-2.4-.4-3.3-1.3-.8-.9-1.2-2.1-1.2-3.5v-.3c0-1,.2-1.8.6-2.6.4-.8.9-1.4,1.6-1.8.7-.4,1.4-.7,2.2-.7,1.3,0,2.3.4,3,1.3.7.8,1.1,2.1,1.1,3.6v.7h-6.7c0,1,.3,1.8.8,2.4.6.6,1.2.9,2.1.9s1.1-.1,1.5-.4c.4-.2.8-.6,1.1-1l1,.8c-.8,1.3-2.1,1.9-3.7,1.9ZM125.6,50.3c-.7,0-1.2.2-1.7.8-.5.5-.7,1.2-.8,2.1h4.9c0-1-.3-1.6-.7-2.1-.4-.5-1-.7-1.7-.7ZM137.3,56.3c0-.5-.2-.8-.5-1.1s-.9-.5-1.8-.6c-.9-.2-1.5-.4-2-.7-.5-.3-.9-.6-1.1-.9-.2-.4-.4-.8-.4-1.3,0-.8.3-1.5,1-2,.7-.6,1.6-.8,2.6-.8s2,.3,2.7.9c.7.6,1,1.3,1,2.2h-1.7c0-.5-.2-.9-.6-1.2-.4-.3-.9-.5-1.5-.5s-1.1.1-1.4.4c-.3.3-.5.6-.5,1s.2.7.5.9c.3.2.9.4,1.7.6.8.2,1.5.4,2,.7.5.3.9.6,1.2.9.3.4.4.8.4,1.3,0,.9-.4,1.6-1.1,2.1-.7.5-1.6.8-2.7.8s-1.5-.1-2.1-.4c-.6-.3-1.1-.7-1.4-1.2s-.5-1-.5-1.6h1.7c0,.6.3,1,.7,1.3.4.3,1,.5,1.7.5s1.1-.1,1.5-.4c.4-.3.6-.6.6-1ZM148.1,46.7v2.4h1.8v1.3h-1.8v6.1c0,.4,0,.7.2.9.2.2.4.3.8.3s.5,0,.8-.1v1.4c-.4.1-.9.2-1.3.2-.8,0-1.3-.2-1.7-.7-.4-.5-.6-1.1-.6-1.9v-6.1h-1.8v-1.3h1.8v-2.4h1.7ZM153.6,50.3c.8-.9,1.7-1.4,2.9-1.4,2.1,0,3.1,1.2,3.2,3.5v6.5h-1.7v-6.5c0-.7-.2-1.2-.5-1.6-.3-.3-.8-.5-1.5-.5s-1,.1-1.4.4c-.4.3-.7.7-1,1.2v7h-1.7v-14h1.7v5.3ZM166.3,59.1c-1.3,0-2.4-.4-3.3-1.3-.8-.9-1.2-2.1-1.2-3.5v-.3c0-1,.2-1.8.6-2.6.4-.8.9-1.4,1.6-1.8.7-.4,1.4-.7,2.2-.7,1.3,0,2.3.4,3,1.3s1.1,2.1,1.1,3.6v.7h-6.7c0,1,.3,1.8.8,2.4.6.6,1.2.9,2.1.9s1.1-.1,1.5-.4c.4-.2.8-.6,1.1-1l1,.8c-.8,1.3-2.1,1.9-3.7,1.9ZM166.1,50.3c-.7,0-1.2.2-1.7.8-.5.5-.7,1.2-.8,2.1h4.9c0-1-.3-1.6-.7-2.1-.4-.5-1-.7-1.7-.7ZM176.3,53.9c0-1.5.4-2.7,1.1-3.6.7-.9,1.7-1.4,2.8-1.4s2.1.4,2.8,1.2v-5.1h1.7v14h-1.5v-1.1c-.8.8-1.7,1.2-2.9,1.2s-2.1-.5-2.8-1.4c-.7-.9-1.1-2.2-1.1-3.7h0ZM178,54.1c0,1.1.2,2,.7,2.6.5.6,1.1.9,1.9.9s1.9-.5,2.3-1.4v-4.5c-.5-.9-1.3-1.4-2.3-1.4s-1.5.3-1.9,1c-.5.6-.7,1.6-.7,2.8ZM191.3,59.1c-1.3,0-2.4-.4-3.3-1.3-.8-.9-1.2-2.1-1.2-3.5v-.3c0-1,.2-1.8.6-2.6.4-.8.9-1.4,1.6-1.8.7-.4,1.4-.7,2.2-.7,1.3,0,2.3.4,3,1.3.7.8,1.1,2.1,1.1,3.6v.7h-6.7c0,1,.3,1.8.8,2.4.6.6,1.2.9,2.1.9s1.1-.1,1.5-.4c.4-.2.8-.6,1.1-1l1,.8c-.8,1.3-2.1,1.9-3.7,1.9ZM191.1,50.3c-.7,0-1.2.2-1.7.8-.5.5-.7,1.2-.8,2.1h4.9c0-1-.3-1.6-.7-2.1-.4-.5-1-.7-1.7-.7ZM197.9,58.9v-8.5h-1.6v-1.3h1.6v-1c0-1.1.3-1.9.8-2.4.6-.6,1.4-.9,2.4-.9s.8,0,1.2.2v1.4c-.4,0-.7,0-1,0-.5,0-1,.2-1.3.5-.3.3-.4.8-.4,1.4v1h2.1v1.3h-2.1v8.5h-1.7ZM209.7,58.9c0-.2-.2-.5-.2-1-.8.8-1.7,1.2-2.8,1.2s-1.8-.3-2.4-.8c-.6-.6-.9-1.2-.9-2.1s.4-1.8,1.2-2.4c.8-.6,1.9-.9,3.3-.9h1.6v-.8c0-.6-.2-1.1-.5-1.4-.3-.4-.9-.5-1.5-.5s-1.1.2-1.5.5c-.4.3-.6.7-.6,1.1h-1.7c0-.5.2-1,.5-1.4.4-.5.8-.8,1.4-1.1.6-.3,1.3-.4,2-.4,1.1,0,2,.3,2.7.9.6.6,1,1.3,1,2.3v4.5c0,.9.1,1.6.3,2.2h0c0,.1-1.8.1-1.8.1ZM206.9,57.7c.5,0,1-.1,1.5-.4.5-.3.8-.6,1-1.1v-2h-1.3c-2.1,0-3.1.6-3.1,1.8s.2.9.5,1.2c.4.3.8.4,1.4.4ZM219.8,58c-.7.8-1.6,1.2-2.9,1.2s-1.9-.3-2.4-.9c-.5-.6-.8-1.5-.8-2.7v-6.4h1.7v6.4c0,1.5.6,2.2,1.8,2.2s2.1-.5,2.6-1.4v-7.2h1.7v9.9h-1.6v-1ZM225.9,58.9h-1.7v-14h1.7v14ZM230.8,46.7v2.4h1.8v1.3h-1.8v6.1c0,.4,0,.7.2.9.2.2.4.3.8.3s.5,0,.8-.1v1.4c-.4.1-.9.2-1.3.2-.8,0-1.3-.2-1.7-.7-.4-.5-.6-1.1-.6-1.9v-6.1h-1.8v-1.3h1.8v-2.4h1.7Z"/>
        <path d="M72.3,75.9c0-1,.2-1.8.6-2.6.4-.8.9-1.4,1.6-1.8.7-.4,1.4-.6,2.3-.6,1.3,0,2.4.5,3.2,1.4.8.9,1.2,2.2,1.2,3.7h0c0,1.1-.2,1.9-.5,2.7-.4.8-.9,1.4-1.6,1.8-.7.4-1.5.6-2.4.6-1.3,0-2.4-.5-3.2-1.4-.8-.9-1.2-2.2-1.2-3.7h0ZM74,76.1c0,1.1.3,2,.8,2.6.5.7,1.2,1,2,1s1.5-.3,2-1c.5-.7.8-1.6.8-2.8s-.3-2-.8-2.6c-.5-.7-1.2-1-2-1s-1.5.3-2,1c-.5.7-.8,1.6-.8,2.8ZM85,71.1v1.2c.8-.9,1.8-1.4,3-1.4,2.1,0,3.1,1.2,3.2,3.5v6.5h-1.7v-6.5c0-.7-.2-1.2-.5-1.6-.3-.3-.8-.5-1.5-.5s-1,.1-1.4.4c-.4.3-.7.7-1,1.2v7h-1.7v-9.9h1.6ZM97.2,76h-4.4v-1.4h4.4v1.4ZM107.2,76.1c0,1.5-.3,2.7-1,3.6-.7.9-1.6,1.4-2.8,1.4s-2.2-.4-2.9-1.3v1.1h-1.6v-14h1.7v5.2c.7-.8,1.6-1.3,2.8-1.3s2.1.5,2.8,1.4c.7.9,1,2.1,1,3.7v.2ZM105.5,75.9c0-1.1-.2-2-.7-2.7-.4-.6-1.1-.9-1.9-.9s-1.9.5-2.4,1.5v4.3c.5,1,1.3,1.5,2.4,1.5s1.4-.3,1.9-.9c.4-.6.7-1.6.7-2.8ZM111.2,80.9h-1.7v-14h1.7v14ZM113.4,75.9c0-1,.2-1.8.6-2.6.4-.8.9-1.4,1.6-1.8.7-.4,1.4-.6,2.3-.6,1.3,0,2.4.5,3.2,1.4.8.9,1.2,2.2,1.2,3.7h0c0,1.1-.2,1.9-.5,2.7-.4.8-.9,1.4-1.6,1.8-.7.4-1.5.6-2.4.6-1.3,0-2.4-.5-3.2-1.4-.8-.9-1.2-2.2-1.2-3.7h0ZM115.1,76.1c0,1.1.3,2,.8,2.6.5.7,1.2,1,2,1s1.5-.3,2-1c.5-.7.8-1.6.8-2.8s-.3-2-.8-2.6c-.5-.7-1.2-1-2-1s-1.5.3-2,1c-.5.7-.8,1.6-.8,2.8ZM128.5,79.8c.6,0,1.1-.2,1.6-.5.5-.4.7-.8.8-1.4h1.6c0,.6-.2,1.1-.6,1.6-.4.5-.8.9-1.4,1.2-.6.3-1.2.5-1.9.5-1.3,0-2.4-.4-3.2-1.3-.8-.9-1.2-2.1-1.2-3.7v-.3c0-1,.2-1.8.5-2.5.4-.8.9-1.3,1.5-1.7.7-.4,1.4-.6,2.3-.6s2,.3,2.8,1c.7.7,1.1,1.5,1.2,2.6h-1.6c0-.6-.3-1.2-.7-1.6-.4-.4-1-.6-1.6-.6s-1.5.3-2,.9c-.5.6-.7,1.5-.7,2.7v.3c0,1.1.2,2,.7,2.6.5.6,1.1.9,2,.9ZM137,76.4l-1.1,1.1v3.5h-1.7v-14h1.7v8.5l.9-1.1,3.1-3.2h2l-3.8,4.1,4.3,5.7h-2l-3.4-4.6ZM147.9,75.9c0-1.5.4-2.7,1.1-3.6.7-.9,1.7-1.4,2.8-1.4s2.1.4,2.8,1.2v-5.1h1.7v14h-1.5v-1.1c-.8.8-1.7,1.2-2.9,1.2s-2.1-.5-2.8-1.4c-.7-.9-1.1-2.2-1.1-3.7h0ZM149.6,76.1c0,1.1.2,2,.7,2.6.5.6,1.1.9,1.9.9s1.9-.5,2.3-1.4v-4.5c-.5-.9-1.3-1.4-2.3-1.4s-1.5.3-1.9,1c-.5.6-.7,1.6-.7,2.8ZM160.7,80.9h-1.7v-9.9h1.7v9.9ZM158.9,68.5c0-.3,0-.5.2-.7.2-.2.4-.3.7-.3s.6,0,.8.3c.2.2.3.4.3.7s0,.5-.3.7c-.2.2-.4.3-.8.3s-.6,0-.7-.3c-.2-.2-.2-.4-.2-.7ZM169.1,78.3c0-.5-.2-.8-.5-1.1s-.9-.5-1.8-.6c-.9-.2-1.5-.4-2-.7-.5-.3-.9-.6-1.1-.9-.2-.4-.4-.8-.4-1.3,0-.8.3-1.5,1-2,.7-.6,1.6-.8,2.6-.8s2,.3,2.7.9c.7.6,1,1.3,1,2.2h-1.7c0-.5-.2-.9-.6-1.2-.4-.3-.9-.5-1.5-.5s-1.1.1-1.4.4c-.3.3-.5.6-.5,1s.2.7.5.9c.3.2.9.4,1.7.6.8.2,1.5.4,2,.7.5.3.9.6,1.2.9.3.4.4.8.4,1.3,0,.9-.4,1.6-1.1,2.1-.7.5-1.6.8-2.7.8s-1.5-.1-2.1-.4c-.6-.3-1.1-.7-1.4-1.2s-.5-1-.5-1.6h1.7c0,.6.3,1,.7,1.3.4.3,1,.5,1.7.5s1.1-.1,1.5-.4c.4-.3.6-.6.6-1ZM181.3,76.1c0,1.5-.3,2.7-1,3.6-.7.9-1.6,1.4-2.8,1.4s-2.1-.4-2.8-1.1v4.8h-1.7v-13.7h1.5v1.1c.8-.8,1.7-1.3,2.9-1.3s2.1.4,2.8,1.3c.7.9,1,2.1,1,3.7v.2ZM179.6,75.9c0-1.1-.2-2-.7-2.6-.5-.6-1.1-1-2-1s-1.8.5-2.3,1.4v4.7c.5.9,1.3,1.4,2.3,1.4s1.4-.3,1.9-1c.5-.6.7-1.6.7-2.9ZM185.3,80.9h-1.7v-14h1.7v14ZM194.1,80.9c0-.2-.2-.5-.2-1-.8.8-1.7,1.2-2.8,1.2s-1.8-.3-2.4-.8c-.6-.6-.9-1.2-.9-2.1s.4-1.8,1.2-2.4c.8-.6,1.9-.9,3.3-.9h1.6v-.8c0-.6-.2-1.1-.5-1.4-.3-.4-.9-.5-1.5-.5s-1.1.2-1.5.5c-.4.3-.6.7-.6,1.1h-1.7c0-.5.2-1,.5-1.4.4-.5.8-.8,1.4-1.1.6-.3,1.3-.4,2-.4,1.1,0,2,.3,2.7.9.6.6,1,1.3,1,2.3v4.5c0,.9.1,1.6.3,2.2h0c0,.1-1.8.1-1.8.1ZM191.3,79.7c.5,0,1-.1,1.5-.4.5-.3.8-.6,1-1.1v-2h-1.3c-2.1,0-3.1.6-3.1,1.8s.2.9.5,1.2c.4.3.8.4,1.4.4ZM201.2,78.5l2.3-7.4h1.8l-4,11.4c-.6,1.6-1.6,2.5-2.9,2.5h-.3s-.6-.2-.6-.2v-1.4h.5c.6,0,1,0,1.3-.3.3-.2.6-.7.8-1.3l.4-1-3.5-9.8h1.8l2.5,7.4ZM220.2,78.6l1.9-7.5h1.7l-2.9,9.9h-1.4l-2.4-7.5-2.3,7.5h-1.4l-2.9-9.9h1.7l2,7.4,2.3-7.4h1.4l2.3,7.5ZM225,75.9c0-1,.2-1.8.6-2.6.4-.8.9-1.4,1.6-1.8.7-.4,1.4-.6,2.3-.6,1.3,0,2.4.5,3.2,1.4.8.9,1.3,2.2,1.2,3.7h0c0,1.1-.2,1.9-.5,2.7-.4.8-.9,1.4-1.6,1.8-.7.4-1.5.6-2.4.6-1.3,0-2.4-.5-3.2-1.4-.8-.9-1.2-2.2-1.2-3.7h0ZM226.7,76.1c0,1.1.3,2,.8,2.6.5.7,1.2,1,2,1s1.5-.3,2-1c.5-.7.8-1.6.8-2.8,0-1.1-.3-2-.8-2.6-.5-.7-1.2-1-2-1s-1.5.3-2,1c-.5.7-.8,1.6-.8,2.8ZM240.9,72.6c-.3,0-.5,0-.8,0-1.1,0-1.9.5-2.2,1.4v7h-1.7v-9.9h1.6v1.1c.6-.9,1.4-1.3,2.4-1.3s.6,0,.8.1v1.6ZM245.2,76.4l-1.1,1.1v3.5h-1.7v-14h1.7v8.5l.9-1.1,3.1-3.2h2l-3.8,4.1,4.3,5.7h-2l-3.4-4.6ZM253.9,77.2c0-.7,0-1.3.2-1.7.2-.4.5-.9.9-1.4l1.2-1.2c.5-.6.8-1.2.8-1.8s-.2-1.1-.5-1.5c-.3-.4-.8-.5-1.5-.5s-1.1.2-1.5.5c-.4.3-.6.8-.6,1.3h-1.7c0-1,.4-1.8,1-2.4.7-.6,1.6-.9,2.7-.9s2.1.3,2.7.9c.6.6,1,1.5,1,2.5s-.5,2.1-1.5,3.1l-1,1c-.4.5-.7,1.2-.7,2.1h-1.7ZM253.8,80.1c0-.3,0-.5.2-.7.2-.2.4-.3.8-.3s.6,0,.8.3.2.4.2.7,0,.5-.2.7c-.2.2-.4.3-.8.3s-.6,0-.8-.3c-.2-.2-.2-.4-.2-.7Z"/>
        <path class="st1" d="M565.5,276.1h166.1c21.8,0,39.4,17.1,39.4,38.2s-17.6,38.2-39.4,38.2h-166.1c-21.8,0-39.4-17.1-39.4-38.2s17.6-38.2,39.4-38.2Z"/>
        <path class="st5" d="M565.5,276.1h166.1c21.8,0,39.4,17.1,39.4,38.2s-17.6,38.2-39.4,38.2h-166.1c-21.8,0-39.4-17.1-39.4-38.2s17.6-38.2,39.4-38.2Z"/>
        <path class="st9" d="M671.3,292.4h78.4v22.4h-78.4v-22.4Z"/>
        <path d="M558.7,306.1c-.2,1.4-.7,2.5-1.6,3.2-.9.8-2,1.1-3.5,1.1s-2.8-.6-3.8-1.7c-.9-1.1-1.4-2.6-1.4-4.5v-1.3c0-1.2.2-2.3.7-3.2.4-.9,1.1-1.7,1.9-2.2.8-.5,1.8-.8,2.8-.8s2.5.4,3.4,1.2c.9.8,1.3,1.9,1.5,3.3h-1.8c-.1-1.1-.5-1.8-1-2.3-.5-.5-1.2-.7-2.1-.7s-2,.4-2.6,1.2c-.6.8-1,2-1,3.5v1.3c0,1.4.3,2.6.9,3.4.6.8,1.4,1.3,2.5,1.3s1.7-.2,2.2-.7c.5-.4.9-1.2,1-2.3h1.8ZM566.9,309.3c-.7.8-1.6,1.2-2.9,1.2s-1.9-.3-2.4-.9c-.5-.6-.8-1.5-.8-2.7v-6.4h1.7v6.4c0,1.5.6,2.2,1.8,2.2s2.1-.5,2.6-1.4v-7.2h1.7v9.9h-1.6v-1ZM576.8,307.7c0-.5-.2-.8-.5-1.1s-.9-.5-1.8-.6c-.9-.2-1.5-.4-2-.7-.5-.3-.9-.6-1.1-.9s-.4-.8-.4-1.3c0-.8.3-1.5,1-2,.7-.6,1.6-.8,2.6-.8s2,.3,2.7.9,1,1.3,1,2.2h-1.7c0-.5-.2-.9-.6-1.2s-.9-.5-1.5-.5-1.1.1-1.4.4c-.3.3-.5.6-.5,1s.2.7.5.9.9.4,1.7.6c.8.2,1.5.4,2,.7s.9.6,1.2.9c.3.4.4.8.4,1.3,0,.9-.4,1.6-1.1,2.1-.7.5-1.6.8-2.7.8s-1.5-.1-2.1-.4c-.6-.3-1.1-.7-1.4-1.2s-.5-1-.5-1.6h1.7c0,.6.3,1,.7,1.3.4.3,1,.5,1.7.5s1.1-.1,1.5-.4.6-.6.6-1ZM583,298v2.4h1.8v1.3h-1.8v6.1c0,.4,0,.7.2.9.2.2.4.3.8.3s.5,0,.8-.1v1.4c-.4.1-.9.2-1.3.2-.8,0-1.3-.2-1.7-.7s-.6-1.1-.6-1.9v-6.1h-1.8v-1.3h1.8v-2.4h1.7ZM586.1,305.3c0-1,.2-1.8.6-2.6.4-.8.9-1.4,1.6-1.8s1.4-.6,2.3-.6c1.3,0,2.4.5,3.2,1.4.8.9,1.2,2.2,1.2,3.7h0c0,1.1-.2,1.9-.5,2.7s-.9,1.4-1.6,1.8c-.7.4-1.5.6-2.4.6-1.3,0-2.4-.5-3.2-1.4-.8-.9-1.2-2.2-1.2-3.7h0ZM587.8,305.5c0,1.1.3,2,.8,2.6.5.7,1.2,1,2,1s1.5-.3,2-1c.5-.7.8-1.6.8-2.8s-.3-2-.8-2.6c-.5-.7-1.2-1-2-1s-1.5.3-2,1c-.5.7-.8,1.6-.8,2.8ZM598.8,300.4v1.1c.8-.8,1.7-1.3,3-1.3s2.3.5,2.8,1.6c.3-.5.8-.9,1.3-1.1.5-.3,1.2-.4,1.9-.4,2.2,0,3.3,1.1,3.3,3.4v6.6h-1.7v-6.5c0-.7-.2-1.2-.5-1.6-.3-.4-.9-.5-1.6-.5s-1.1.2-1.6.6c-.4.4-.6.9-.7,1.5v6.5h-1.7v-6.5c0-1.4-.7-2.2-2.1-2.2s-1.9.5-2.3,1.4v7.2h-1.7v-9.9h1.6ZM615.4,310.3h-1.7v-9.9h1.7v9.9ZM613.6,297.8c0-.3,0-.5.2-.7.2-.2.4-.3.7-.3s.6,0,.8.3c.2.2.3.4.3.7s0,.5-.3.7c-.2.2-.4.3-.8.3s-.6,0-.7-.3c-.2-.2-.2-.4-.2-.7ZM619.7,308.9h5.8v1.4h-7.8v-1.2l5.4-7.2h-5.3v-1.4h7.5v1.2l-5.5,7.3ZM631.3,310.5c-1.3,0-2.4-.4-3.3-1.3-.8-.9-1.2-2.1-1.2-3.5v-.3c0-1,.2-1.8.6-2.6.4-.8.9-1.4,1.6-1.8.7-.4,1.4-.7,2.2-.7,1.3,0,2.3.4,3,1.3s1.1,2.1,1.1,3.6v.7h-6.7c0,1,.3,1.8.8,2.4.6.6,1.2.9,2.1.9s1.1-.1,1.5-.4c.4-.2.8-.6,1.1-1l1,.8c-.8,1.3-2.1,1.9-3.7,1.9ZM631.1,301.6c-.7,0-1.2.2-1.7.8-.5.5-.7,1.2-.8,2.1h4.9c0-1-.3-1.6-.7-2.1-.4-.5-1-.7-1.7-.7ZM644,298v2.4h1.8v1.3h-1.8v6.1c0,.4,0,.7.2.9.2.2.4.3.8.3s.5,0,.8-.1v1.4c-.4.1-.9.2-1.3.2-.8,0-1.3-.2-1.7-.7s-.6-1.1-.6-1.9v-6.1h-1.8v-1.3h1.8v-2.4h1.7ZM649.5,301.6c.8-.9,1.7-1.4,2.9-1.4,2.1,0,3.1,1.2,3.2,3.5v6.5h-1.7v-6.5c0-.7-.2-1.2-.5-1.6-.3-.3-.8-.5-1.5-.5s-1,.1-1.4.4c-.4.3-.7.7-1,1.2v7h-1.7v-14h1.7v5.3ZM662.2,310.5c-1.3,0-2.4-.4-3.3-1.3-.8-.9-1.2-2.1-1.2-3.5v-.3c0-1,.2-1.8.6-2.6.4-.8.9-1.4,1.6-1.8.7-.4,1.4-.7,2.2-.7,1.3,0,2.3.4,3,1.3.7.8,1.1,2.1,1.1,3.6v.7h-6.7c0,1,.3,1.8.8,2.4.6.6,1.2.9,2.1.9s1.1-.1,1.5-.4c.4-.2.8-.6,1.1-1l1,.8c-.8,1.3-2.1,1.9-3.7,1.9ZM662,301.6c-.7,0-1.2.2-1.7.8-.5.5-.7,1.2-.8,2.1h4.9c0-1-.3-1.6-.7-2.1-.4-.5-1-.7-1.7-.7Z"/>
        <path class="st7" d="M671.3,290.7h78.4v24.6h-78.4v-24.6Z"/>
        <path d="M679.4,300.2c.2,0,.3,0,.5,0,.2,0,.3,0,.5,0,.2,0,.3,0,.4,0,.1,0,.2,0,.3.1l-.2,1.6c-.3,0-.6-.1-.9-.2-.3,0-.6,0-.9,0-.8,0-1.4.2-1.9.5-.5.4-.8.8-1.1,1.5v6.3h-1.7v-9.9h1.6v1.6c.5-.5,1-1,1.5-1.3s1.2-.5,1.9-.5ZM688.4,310.5c-.7,0-1.3-.1-1.9-.4-.6-.2-1.1-.6-1.5-1-.4-.4-.7-.9-1-1.5-.2-.6-.3-1.2-.3-1.9v-.4c0-.8.1-1.5.4-2.1.3-.6.6-1.2,1-1.6.4-.4.9-.8,1.4-1,.5-.2,1.1-.3,1.7-.3s1.3.1,1.9.4c.5.2,1,.6,1.3,1,.4.4.6.9.8,1.5.2.6.3,1.2.3,1.9v.8h-7c0,.5,0,.9.2,1.3.2.4.4.7.6,1,.3.3.6.5,1,.7.4.2.8.2,1.2.2s1.1-.1,1.6-.4c.5-.2.9-.6,1.2-1l1,.8c-.2.2-.4.5-.6.7-.2.2-.5.4-.8.6-.3.2-.7.3-1.1.4-.4.1-.8.2-1.3.2ZM688.2,301.6c-.3,0-.7,0-1,.2-.3.1-.6.3-.8.5-.2.2-.4.5-.6.9-.2.3-.3.7-.3,1.2h5.3c0-.5,0-.8-.2-1.1-.1-.3-.3-.6-.5-.9-.2-.3-.5-.5-.8-.6s-.7-.2-1.1-.2ZM696.8,300.4v1.5c.5-.5.9-.9,1.4-1.2.5-.3,1.1-.4,1.8-.4s1,0,1.4.2c.4.1.8.4,1.1.7.3.3.5.7.7,1.2.2.5.2,1,.2,1.7v6.3h-1.7v-6.2c0-.4,0-.8-.2-1.1,0-.3-.2-.5-.4-.7-.2-.2-.4-.3-.7-.4-.3,0-.6-.1-1-.1-.6,0-1.1.1-1.5.4-.4.3-.8.7-1,1.1v7.1h-1.7v-9.9h1.5ZM706.2,305.3c0-.7,0-1.4.3-2,.2-.6.4-1.2.8-1.6.3-.4.8-.8,1.2-1,.5-.2,1-.4,1.6-.4s1.1,0,1.5.3c.4.2.8.5,1.1.9v-5.1h1.7v14h-1.5v-1c-.4.4-.8.7-1.2.9-.4.2-1,.3-1.6.3s-1.1-.1-1.6-.4c-.5-.3-.9-.6-1.2-1.1-.3-.5-.6-1-.8-1.6-.2-.6-.3-1.3-.3-2v-.2ZM707.9,305.5c0,.5,0,.9.2,1.4.1.4.3.8.5,1.1.2.3.5.6.8.8.3.2.7.3,1.2.3s.6,0,.8,0c.2,0,.4-.2.6-.3s.4-.3.5-.4c.1-.2.3-.4.4-.6v-4.6c-.2-.4-.5-.7-.9-1-.4-.3-.8-.4-1.4-.4s-.9,0-1.2.3c-.3.2-.6.4-.8.8-.2.3-.4.7-.5,1.2-.1.4-.2.9-.2,1.4v.2ZM722,310.5c-.7,0-1.3-.1-1.9-.4s-1.1-.6-1.5-1c-.4-.4-.7-.9-1-1.5s-.3-1.2-.3-1.9v-.4c0-.8.1-1.5.4-2.1.3-.6.6-1.2,1-1.6.4-.4.9-.8,1.4-1,.5-.2,1.1-.3,1.7-.3s1.3.1,1.9.4c.5.2,1,.6,1.3,1,.4.4.6.9.8,1.5.2.6.3,1.2.3,1.9v.8h-7c0,.5,0,.9.2,1.3.2.4.4.7.6,1,.3.3.6.5,1,.7.4.2.8.2,1.2.2s1.1-.1,1.6-.4c.5-.2.9-.6,1.2-1l1,.8c-.2.2-.4.5-.6.7-.2.2-.5.4-.8.6s-.7.3-1.1.4c-.4.1-.8.2-1.3.2ZM721.8,301.6c-.3,0-.7,0-1,.2s-.6.3-.8.5-.4.5-.6.9c-.2.3-.3.7-.3,1.2h5.3c0-.5,0-.8-.2-1.1-.1-.3-.3-.6-.5-.9-.2-.3-.5-.5-.8-.6s-.7-.2-1.1-.2ZM735.3,300.2c.2,0,.3,0,.5,0,.2,0,.3,0,.5,0,.2,0,.3,0,.4,0,.1,0,.2,0,.3.1l-.2,1.6c-.3,0-.6-.1-.9-.2-.3,0-.6,0-.9,0-.8,0-1.4.2-1.9.5-.5.4-.8.8-1.1,1.5v6.3h-1.7v-9.9h1.6v1.6c.5-.5,1-1,1.5-1.3s1.2-.5,1.9-.5ZM748.3,311.6h-8.4v-1.4h8.4v1.4Z"/>
        <path d="M616.4,332.3v-8.5h-1.6v-1.3h1.6v-1c0-1.1.3-1.9.8-2.4.6-.6,1.4-.9,2.4-.9s.8,0,1.2.2v1.4c-.4,0-.7,0-1,0-.5,0-1,.2-1.3.5-.3.3-.4.8-.4,1.4v1h2.1v1.3h-2.1v8.5h-1.7ZM628.2,331.3c-.7.8-1.6,1.2-2.9,1.2s-1.9-.3-2.4-.9c-.5-.6-.8-1.5-.8-2.7v-6.4h1.7v6.4c0,1.5.6,2.2,1.8,2.2s2.1-.5,2.6-1.4v-7.2h1.7v9.9h-1.6v-1ZM634,322.4v1.2c.8-.9,1.8-1.4,3-1.4,2.1,0,3.1,1.2,3.2,3.5v6.5h-1.7v-6.5c0-.7-.2-1.2-.5-1.6-.3-.3-.8-.5-1.5-.5s-1,.1-1.4.4c-.4.3-.7.7-1,1.2v7h-1.7v-9.9h1.6ZM646.6,331.1c.6,0,1.1-.2,1.6-.5.5-.4.7-.8.8-1.4h1.6c0,.6-.2,1.1-.6,1.6s-.8.9-1.4,1.2c-.6.3-1.2.5-1.9.5-1.3,0-2.4-.4-3.2-1.3s-1.2-2.1-1.2-3.7v-.3c0-1,.2-1.8.5-2.5.4-.8.9-1.3,1.5-1.7.7-.4,1.4-.6,2.3-.6s2,.3,2.8,1c.7.7,1.1,1.5,1.2,2.6h-1.6c0-.6-.3-1.2-.7-1.6-.4-.4-1-.6-1.6-.6s-1.5.3-2,.9c-.5.6-.7,1.5-.7,2.7v.3c0,1.1.2,2,.7,2.6s1.1.9,2,.9ZM654.7,320v2.4h1.8v1.3h-1.8v6.1c0,.4,0,.7.2.9.2.2.4.3.8.3s.5,0,.8-.1v1.4c-.4.1-.9.2-1.3.2-.8,0-1.3-.2-1.7-.7s-.6-1.1-.6-1.9v-6.1h-1.8v-1.3h1.8v-2.4h1.7ZM660.4,332.3h-1.7v-9.9h1.7v9.9ZM658.5,319.8c0-.3,0-.5.2-.7.2-.2.4-.3.7-.3s.6,0,.8.3c.2.2.3.4.3.7s0,.5-.3.7c-.2.2-.4.3-.8.3s-.6,0-.7-.3c-.2-.2-.2-.4-.2-.7ZM662.6,327.3c0-1,.2-1.8.6-2.6.4-.8.9-1.4,1.6-1.8s1.4-.6,2.3-.6c1.3,0,2.4.5,3.2,1.4.8.9,1.2,2.2,1.2,3.7h0c0,1.1-.2,1.9-.5,2.7s-.9,1.4-1.6,1.8c-.7.4-1.5.6-2.4.6-1.3,0-2.4-.5-3.3-1.4-.8-.9-1.2-2.2-1.2-3.7h0ZM664.3,327.5c0,1.1.3,2,.8,2.6.5.7,1.2,1,2,1s1.5-.3,2-1c.5-.7.8-1.6.8-2.8s-.3-2-.8-2.6c-.5-.7-1.2-1-2-1s-1.5.3-2,1c-.5.7-.8,1.6-.8,2.8ZM675.3,322.4v1.2c.8-.9,1.8-1.4,3-1.4,2.1,0,3.1,1.2,3.2,3.5v6.5h-1.7v-6.5c0-.7-.2-1.2-.5-1.6-.3-.3-.8-.5-1.5-.5s-1,.1-1.4.4c-.4.3-.7.7-1,1.2v7h-1.7v-9.9h1.6Z"/>
        <path class="st3" d="M127.7,189.4h0c0-11.6,16.9-21,37.8-21h0c20.9,0,37.8,9.4,37.8,21h0c0,11.6-16.9,21-37.8,21h0c-20.9,0-37.8-9.4-37.8-21Z"/>
        <path d="M156,189.7l3.5-6.7h2l-4.6,8.3v5h-1.8v-5l-4.6-8.3h2l3.4,6.7ZM166.4,196.5c-1.3,0-2.4-.4-3.3-1.3-.8-.9-1.2-2.1-1.2-3.5v-.3c0-1,.2-1.8.6-2.6.4-.8.9-1.4,1.6-1.8.7-.4,1.4-.7,2.2-.7,1.3,0,2.3.4,3,1.3.7.8,1.1,2.1,1.1,3.6v.7h-6.7c0,1,.3,1.8.8,2.4.6.6,1.2.9,2.1.9s1.1-.1,1.5-.4c.4-.2.8-.6,1.1-1l1,.8c-.8,1.3-2.1,1.9-3.7,1.9ZM166.2,187.7c-.7,0-1.2.2-1.7.8-.5.5-.7,1.2-.8,2.1h4.9c0-1-.3-1.6-.7-2.1-.4-.5-1-.7-1.7-.7ZM177.9,193.7c0-.5-.2-.8-.5-1.1-.3-.2-.9-.5-1.8-.6-.9-.2-1.5-.4-2-.7-.5-.3-.9-.6-1.1-.9-.2-.4-.4-.8-.4-1.3,0-.8.3-1.5,1-2,.7-.6,1.6-.8,2.6-.8s2,.3,2.7.9c.7.6,1,1.3,1,2.2h-1.7c0-.5-.2-.9-.6-1.2-.4-.3-.9-.5-1.5-.5s-1.1.1-1.4.4c-.3.3-.5.6-.5,1,0,.4.2.7.5.9.3.2.9.4,1.7.6.8.2,1.5.4,2,.7.5.3.9.6,1.2.9.3.4.4.8.4,1.3,0,.9-.4,1.6-1.1,2.1-.7.5-1.6.8-2.7.8s-1.5-.1-2.1-.4c-.6-.3-1.1-.7-1.4-1.2-.3-.5-.5-1-.5-1.6h1.7c0,.6.3,1,.7,1.3.4.3,1,.5,1.7.5s1.1-.1,1.5-.4c.4-.3.6-.6.6-1Z"/>
        <path class="st3" d="M372.5,69h0c0-11.6,16.9-21,37.8-21h0c20.9,0,37.8,9.4,37.8,21h0c0,11.6-16.9,21-37.8,21h0c-20.9,0-37.8-9.4-37.8-21Z"/>
        <path d="M410.1,75.9h-1.8l-6.7-10.2v10.2h-1.8v-13.3h1.8l6.7,10.3v-10.3h1.7v13.3ZM412.5,70.9c0-1,.2-1.8.6-2.6.4-.8.9-1.4,1.6-1.8s1.4-.6,2.3-.6c1.3,0,2.4.5,3.2,1.4.8.9,1.2,2.2,1.2,3.7h0c0,1.1-.2,1.9-.5,2.7s-.9,1.4-1.6,1.8c-.7.4-1.5.6-2.4.6-1.3,0-2.4-.5-3.2-1.4-.8-.9-1.2-2.2-1.2-3.7h0ZM414.2,71.1c0,1.1.3,2,.8,2.6.5.7,1.2,1,2,1s1.5-.3,2-1c.5-.7.8-1.6.8-2.8s-.3-2-.8-2.6c-.5-.7-1.2-1-2-1s-1.5.3-2,1c-.5.7-.8,1.6-.8,2.8Z"/>
        <path class="st3" d="M165.4,210.5v44.6"/>
        <path class="st5" d="M165.4,210.5v38.6"/>
        <path class="st2" d="M163.8,249.1l1.7,4.5,1.7-4.5h-3.3Z"/>
        <path class="st3" d="M127.7,439.3h0c0-11.6,16.9-21,37.8-21h0c20.9,0,37.8,9.4,37.8,21h0c0,11.6-16.9,21-37.8,21h0c-20.9,0-37.8-9.4-37.8-21Z"/>
        <path d="M165.2,446.2h-1.8l-6.7-10.2v10.2h-1.8v-13.3h1.8l6.7,10.3v-10.3h1.7v13.3ZM167.6,441.2c0-1,.2-1.8.6-2.6.4-.8.9-1.4,1.6-1.8.7-.4,1.4-.6,2.3-.6,1.3,0,2.4.5,3.2,1.4.8.9,1.2,2.2,1.2,3.7h0c0,1.1-.2,1.9-.5,2.7-.4.8-.9,1.4-1.6,1.8-.7.4-1.5.6-2.4.6-1.3,0-2.4-.5-3.2-1.4-.8-.9-1.2-2.2-1.2-3.7h0ZM169.3,441.4c0,1.1.3,2,.8,2.6.5.7,1.2,1,2,1,.9,0,1.5-.3,2-1,.5-.7.8-1.6.8-2.8s-.3-2-.8-2.6c-.5-.7-1.2-1-2-1-.8,0-1.5.3-2,1-.5.7-.8,1.6-.8,2.8Z"/>
        <path class="st3" d="M127.7,689.1h0c0-11.6,16.9-21,37.8-21h0c20.9,0,37.8,9.4,37.8,21h0c0,11.6-16.9,21-37.8,21h0c-20.9,0-37.8-9.4-37.8-21Z"/>
        <path d="M165.2,696h-1.8l-6.7-10.2v10.2h-1.8v-13.3h1.8l6.7,10.3v-10.3h1.7v13.3ZM167.6,691c0-1,.2-1.8.6-2.6.4-.8.9-1.4,1.6-1.8.7-.4,1.4-.6,2.3-.6,1.3,0,2.4.5,3.2,1.4.8.9,1.2,2.2,1.2,3.7h0c0,1.1-.2,1.9-.5,2.7-.4.8-.9,1.4-1.6,1.8-.7.4-1.5.6-2.4.6-1.3,0-2.4-.5-3.2-1.4-.8-.9-1.2-2.2-1.2-3.7h0ZM169.3,691.2c0,1.1.3,2,.8,2.6.5.7,1.2,1,2,1,.9,0,1.5-.3,2-1,.5-.7.7-1.6.8-2.8,0-1.1-.3-2-.8-2.6-.5-.7-1.2-1-2-1-.8,0-1.5.3-2,1-.5.7-.8,1.6-.8,2.8Z"/>
        <path class="st3" d="M372.5,314.4h0c0-11.6,16.9-21,37.8-21h0c20.9,0,37.8,9.4,37.8,21h0c0,11.6-16.9,21-37.8,21h0c-20.9,0-37.8-9.4-37.8-21Z"/>
        <path d="M400.8,314.7l3.5-6.7h2l-4.6,8.3v5h-1.8v-5l-4.6-8.3h2l3.4,6.7ZM411.2,321.5c-1.3,0-2.4-.4-3.3-1.3-.8-.9-1.2-2.1-1.2-3.5v-.3c0-1,.2-1.8.6-2.6.4-.8.9-1.4,1.6-1.8.7-.4,1.4-.7,2.2-.7,1.3,0,2.3.4,3,1.3.7.8,1.1,2.1,1.1,3.6v.7h-6.7c0,1,.3,1.8.8,2.4.6.6,1.2.9,2.1.9s1.1-.1,1.5-.4c.4-.2.8-.6,1.1-1l1,.8c-.8,1.3-2.1,1.9-3.7,1.9ZM411,312.6c-.7,0-1.2.2-1.7.8-.5.5-.7,1.2-.8,2.1h4.9c0-1-.3-1.6-.7-2.1-.4-.5-1-.7-1.7-.7ZM422.8,318.7c0-.5-.2-.8-.5-1.1s-.9-.5-1.8-.6c-.9-.2-1.5-.4-2-.7-.5-.3-.9-.6-1.1-.9-.2-.4-.4-.8-.4-1.3,0-.8.3-1.5,1-2,.7-.6,1.6-.8,2.6-.8s2,.3,2.7.9c.7.6,1,1.3,1,2.2h-1.7c0-.5-.2-.9-.6-1.2-.4-.3-.9-.5-1.5-.5s-1.1.1-1.4.4c-.3.3-.5.6-.5,1s.2.7.5.9c.3.2.9.4,1.7.6.8.2,1.5.4,2,.7.5.3.9.6,1.2.9.3.4.4.8.4,1.3,0,.9-.4,1.6-1.1,2.1-.7.5-1.6.8-2.7.8s-1.5-.1-2.1-.4c-.6-.3-1.1-.7-1.4-1.2s-.5-1-.5-1.6h1.7c0,.6.3,1,.7,1.3.4.3,1,.5,1.7.5s1.1-.1,1.5-.4c.4-.3.6-.6.6-1Z"/>
        <path class="st3" d="M311.5,314.4h61"/>
        <path class="st5" d="M311.5,314.4h61"/>
        <path class="st3" d="M448.1,314.4h77.9"/>
        <path class="st5" d="M448.1,314.4h71.9"/>
        <path class="st2" d="M520,316l4.5-1.7-4.5-1.7v3.3Z"/>
        <path class="st3" d="M165.5,373.6v44.6"/>
        <path class="st5" d="M165.5,373.6v44.6"/>
        <path class="st3" d="M165.5,460.3v44.6"/>
        <path class="st5" d="M165.5,460.3v38.6"/>
        <path class="st2" d="M163.8,498.9l1.6,4.5,1.7-4.5h-3.3Z"/>
        <path class="st3" d="M372.5,564.2h0c0-11.6,16.9-21,37.8-21h0c20.9,0,37.8,9.4,37.8,21h0c0,11.6-16.9,21-37.8,21h0c-20.9,0-37.8-9.4-37.8-21Z"/>
        <path d="M400.8,564.5l3.5-6.7h2l-4.6,8.3v5h-1.8v-5l-4.6-8.3h2l3.4,6.7ZM411.2,571.3c-1.3,0-2.4-.4-3.3-1.3-.8-.9-1.2-2.1-1.2-3.5v-.3c0-1,.2-1.8.6-2.6.4-.8.9-1.4,1.6-1.8.7-.4,1.4-.7,2.2-.7,1.3,0,2.3.4,3,1.3.7.8,1.1,2.1,1.1,3.6v.7h-6.7c0,1,.3,1.8.8,2.4.6.6,1.2.9,2.1.9s1.1-.1,1.5-.4c.4-.2.8-.6,1.1-1l1,.8c-.8,1.3-2.1,1.9-3.7,1.9ZM411,562.5c-.7,0-1.2.2-1.7.8-.5.5-.7,1.2-.8,2.1h4.9c0-1-.3-1.6-.7-2.1-.4-.5-1-.7-1.7-.7ZM422.8,568.5c0-.5-.2-.8-.5-1.1s-.9-.5-1.8-.6c-.9-.2-1.5-.4-2-.7-.5-.3-.9-.6-1.1-.9-.2-.4-.4-.8-.4-1.3,0-.8.3-1.5,1-2,.7-.6,1.6-.8,2.6-.8s2,.3,2.7.9c.7.6,1,1.3,1,2.2h-1.7c0-.5-.2-.9-.6-1.2-.4-.3-.9-.5-1.5-.5s-1.1.1-1.4.4c-.3.3-.5.6-.5,1s.2.7.5.9c.3.2.9.4,1.7.6.8.2,1.5.4,2,.7.5.3.9.6,1.2.9.3.4.4.8.4,1.3,0,.9-.4,1.6-1.1,2.1-.7.5-1.6.8-2.7.8s-1.5-.1-2.1-.4c-.6-.3-1.1-.7-1.4-1.2s-.5-1-.5-1.6h1.7c0,.6.3,1,.7,1.3.4.3,1,.5,1.7.5s1.1-.1,1.5-.4c.4-.3.6-.6.6-1Z"/>
        <path class="st3" d="M165.5,710.2v44.6"/>
        <path class="st5" d="M165.5,710.2v38.6"/>
        <path class="st2" d="M163.8,748.8l1.7,4.5,1.7-4.5h-3.3Z"/>
        <path class="st3" d="M165.4,623.4v44.6"/>
        <path class="st5" d="M165.4,623.4v44.6"/>
        <path class="st3" d="M311.5,564.2h61"/>
        <path class="st5" d="M311.5,564.2h61"/>
        <path class="st3" d="M448.1,564.2h77.9"/>
        <path class="st5" d="M448.1,564.2h71.9"/>
        <path class="st2" d="M520,565.8l4.5-1.7-4.5-1.7v3.3Z"/>
        <path class="st3" d="M165.5,123.8v44.6"/>
        <path class="st5" d="M165.5,123.8v44.6"/>
        <path class="st3" d="M448.1,69h200.4v207.2"/>
        <path class="st5" d="M448.1,69h200.4v201.2"/>
        <path class="st2" d="M646.9,270.1l1.7,4.5,1.7-4.5h-3.3Z"/>
        <path class="st3" d="M320.6,67.4l51.9,1.5"/>
        <path class="st5" d="M320.6,67.4l51.9,1.5"/>
        <path class="st1" d="M565.5,505h166.1c21.8,0,39.4,26.5,39.4,59.2s-17.6,59.2-39.4,59.2h-166.1c-21.8,0-39.4-26.5-39.4-59.2s17.6-59.2,39.4-59.2Z"/>
        <path class="st5" d="M565.5,505h166.1c21.8,0,39.4,26.5,39.4,59.2s-17.6,59.2-39.4,59.2h-166.1c-21.8,0-39.4-26.5-39.4-59.2s17.6-59.2,39.4-59.2Z"/>
        <path d="M597.4,533.9c-.2,1.4-.7,2.5-1.6,3.2-.9.8-2,1.1-3.5,1.1s-2.8-.6-3.8-1.7-1.4-2.6-1.4-4.5v-1.3c0-1.2.2-2.3.7-3.2.4-.9,1.1-1.7,1.9-2.2.8-.5,1.8-.8,2.8-.8s2.5.4,3.4,1.2c.9.8,1.3,1.9,1.5,3.3h-1.8c-.1-1.1-.5-1.8-1-2.3-.5-.5-1.2-.7-2.1-.7s-2,.4-2.6,1.2c-.6.8-1,2-1,3.5v1.3c0,1.4.3,2.6.9,3.4.6.8,1.4,1.3,2.5,1.3s1.7-.2,2.2-.7.9-1.2,1-2.3h1.8ZM605.6,538.1c0-.2-.2-.5-.2-1-.8.8-1.7,1.2-2.8,1.2s-1.8-.3-2.4-.8c-.6-.6-.9-1.2-.9-2.1s.4-1.8,1.2-2.4c.8-.6,1.9-.9,3.3-.9h1.6v-.8c0-.6-.2-1.1-.5-1.4-.3-.4-.9-.5-1.5-.5s-1.1.2-1.5.5c-.4.3-.6.7-.6,1.1h-1.7c0-.5.2-1,.5-1.4.4-.5.8-.8,1.4-1.1.6-.3,1.3-.4,2-.4,1.1,0,2,.3,2.7.9.6.6,1,1.3,1,2.3v4.5c0,.9.1,1.6.3,2.2h0c0,.1-1.8.1-1.8.1ZM602.8,536.8c.5,0,1-.1,1.5-.4.5-.3.8-.6,1-1.1v-2h-1.3c-2.1,0-3.1.6-3.1,1.8s.2.9.5,1.2c.4.3.8.4,1.4.4ZM611.5,538.1h-1.7v-14h1.7v14ZM616.1,538.1h-1.7v-14h1.7v14ZM625.7,525.9v2.4h1.8v1.3h-1.8v6.1c0,.4,0,.7.2.9.2.2.4.3.8.3s.5,0,.8-.1v1.4c-.4.1-.9.2-1.3.2-.8,0-1.3-.2-1.7-.7-.4-.5-.6-1.1-.6-1.9v-6.1h-1.8v-1.3h1.8v-2.4h1.7ZM631.1,529.5c.8-.9,1.7-1.4,2.9-1.4,2.1,0,3.1,1.2,3.2,3.5v6.5h-1.7v-6.5c0-.7-.2-1.2-.5-1.6-.3-.3-.8-.5-1.5-.5s-1,.1-1.4.4c-.4.3-.7.7-1,1.2v7h-1.7v-14h1.7v5.3ZM643.8,538.3c-1.3,0-2.4-.4-3.3-1.3-.8-.9-1.2-2.1-1.2-3.5v-.3c0-1,.2-1.8.6-2.6.4-.8.9-1.4,1.6-1.8.7-.4,1.4-.7,2.2-.7,1.3,0,2.3.4,3,1.3.7.8,1.1,2.1,1.1,3.6v.7h-6.7c0,1,.3,1.8.8,2.4.6.6,1.2.9,2.1.9s1.1-.1,1.5-.4c.4-.2.8-.6,1.1-1l1,.8c-.8,1.3-2.1,1.9-3.7,1.9ZM643.6,529.5c-.7,0-1.2.2-1.7.8-.5.5-.7,1.2-.8,2.1h4.9c0-1-.3-1.6-.7-2.1-.4-.5-1-.7-1.7-.7ZM653.8,533.1c0-1.5.4-2.7,1.1-3.6.7-.9,1.7-1.4,2.8-1.4s2.1.4,2.8,1.2v-5.1h1.7v14h-1.5v-1.1c-.8.8-1.7,1.2-2.9,1.2s-2.1-.5-2.8-1.4c-.7-.9-1.1-2.2-1.1-3.7h0ZM655.5,533.3c0,1.1.2,2,.7,2.6.5.6,1.1.9,1.9.9s1.9-.5,2.3-1.4v-4.5c-.5-.9-1.3-1.4-2.3-1.4s-1.5.3-1.9,1c-.5.6-.7,1.6-.7,2.8ZM668.9,538.3c-1.3,0-2.4-.4-3.3-1.3-.8-.9-1.2-2.1-1.2-3.5v-.3c0-1,.2-1.8.6-2.6.4-.8.9-1.4,1.6-1.8.7-.4,1.4-.7,2.2-.7,1.3,0,2.3.4,3,1.3.7.8,1.1,2.1,1.1,3.6v.7h-6.7c0,1,.3,1.8.8,2.4.6.6,1.2.9,2.1.9s1.1-.1,1.5-.4c.4-.2.8-.6,1.1-1l1,.8c-.8,1.3-2.1,1.9-3.7,1.9ZM668.6,529.5c-.7,0-1.2.2-1.7.8-.5.5-.7,1.2-.8,2.1h4.9c0-1-.3-1.6-.7-2.1-.4-.5-1-.7-1.7-.7ZM675.5,538.1v-8.5h-1.6v-1.3h1.6v-1c0-1.1.3-1.9.8-2.4.6-.6,1.4-.9,2.4-.9s.8,0,1.2.2v1.4c-.4,0-.7,0-1,0-.5,0-1,.2-1.3.5-.3.3-.4.8-.4,1.4v1h2.1v1.3h-2.1v8.5h-1.7ZM687.2,538.1c0-.2-.2-.5-.2-1-.8.8-1.7,1.2-2.8,1.2s-1.8-.3-2.4-.8c-.6-.6-.9-1.2-.9-2.1s.4-1.8,1.2-2.4c.8-.6,1.9-.9,3.3-.9h1.6v-.8c0-.6-.2-1.1-.5-1.4-.3-.4-.9-.5-1.5-.5s-1.1.2-1.5.5c-.4.3-.6.7-.6,1.1h-1.7c0-.5.2-1,.5-1.4.4-.5.8-.8,1.4-1.1.6-.3,1.3-.4,2-.4,1.1,0,2,.3,2.7.9.6.6,1,1.3,1,2.3v4.5c0,.9.1,1.6.3,2.2h0c0,.1-1.8.1-1.8.1ZM684.4,536.8c.5,0,1-.1,1.5-.4.5-.3.8-.6,1-1.1v-2h-1.3c-2.1,0-3.1.6-3.1,1.8s.2.9.5,1.2c.4.3.8.4,1.4.4ZM697.4,537.1c-.7.8-1.6,1.2-2.9,1.2s-1.9-.3-2.4-.9c-.5-.6-.8-1.5-.8-2.7v-6.4h1.7v6.4c0,1.5.6,2.2,1.8,2.2s2.1-.5,2.6-1.4v-7.2h1.7v9.9h-1.6v-1ZM703.4,538.1h-1.7v-14h1.7v14ZM708.4,525.9v2.4h1.8v1.3h-1.8v6.1c0,.4,0,.7.2.9.2.2.4.3.8.3s.5,0,.8-.1v1.4c-.4.1-.9.2-1.3.2-.8,0-1.3-.2-1.7-.7-.4-.5-.6-1.1-.6-1.9v-6.1h-1.8v-1.3h1.8v-2.4h1.7Z"/>
        <path class="st9" d="M555.3,542.2h78.4v22.4h-78.4v-22.4Z"/>
        <path class="st6" d="M555.3,540.6h78.4v24.6h-78.4v-24.6Z"/>
        <path d="M563.3,550.1c.2,0,.3,0,.5,0,.2,0,.3,0,.5,0,.2,0,.3,0,.4,0,.1,0,.2,0,.3.1l-.2,1.6c-.3,0-.6-.1-.9-.2-.3,0-.6,0-.9,0-.8,0-1.4.2-1.9.5-.5.4-.8.8-1.1,1.5v6.3h-1.7v-9.9h1.6v1.6c.5-.5,1-1,1.5-1.3s1.2-.5,1.9-.5ZM572.4,560.3c-.7,0-1.3-.1-1.9-.4-.6-.2-1.1-.6-1.5-1-.4-.4-.7-.9-1-1.5-.2-.6-.3-1.2-.3-1.9v-.4c0-.8.1-1.5.4-2.1.3-.6.6-1.2,1-1.6.4-.4.9-.8,1.4-1,.5-.2,1.1-.3,1.7-.3s1.3.1,1.9.4c.5.2,1,.6,1.3,1,.4.4.6.9.8,1.5.2.6.3,1.2.3,1.9v.8h-7c0,.5,0,.9.2,1.3.2.4.4.7.6,1,.3.3.6.5,1,.7.4.2.8.2,1.2.2s1.1-.1,1.6-.4c.5-.2.9-.6,1.2-1l1,.8c-.2.2-.4.5-.6.7-.2.2-.5.4-.8.6-.3.2-.7.3-1.1.4-.4.1-.8.2-1.3.2ZM572.2,551.5c-.3,0-.7,0-1,.2s-.6.3-.8.5c-.2.2-.4.5-.6.9-.2.3-.3.7-.3,1.2h5.3c0-.5,0-.8-.2-1.1-.1-.3-.3-.6-.5-.9-.2-.3-.5-.5-.8-.6s-.7-.2-1.1-.2ZM580.8,550.3v1.5c.5-.5.9-.9,1.4-1.2.5-.3,1.1-.4,1.8-.4s1,0,1.4.2c.4.1.8.4,1.1.7.3.3.5.7.7,1.2.2.5.2,1,.2,1.7v6.3h-1.7v-6.2c0-.4,0-.8-.2-1.1,0-.3-.2-.5-.4-.7-.2-.2-.4-.3-.7-.4-.3,0-.6-.1-1-.1-.6,0-1.1.1-1.5.4s-.8.7-1,1.1v7.1h-1.7v-9.9h1.5ZM590.1,555.1c0-.7,0-1.4.3-2,.2-.6.4-1.2.8-1.6.3-.4.8-.8,1.2-1,.5-.2,1-.4,1.6-.4s1.1,0,1.5.3c.4.2.8.5,1.1.9v-5.1h1.7v14h-1.5v-1c-.4.4-.8.7-1.2.9-.4.2-1,.3-1.6.3s-1.1-.1-1.6-.4c-.5-.3-.9-.6-1.2-1.1-.3-.5-.6-1-.8-1.6-.2-.6-.3-1.3-.3-2v-.2ZM591.8,555.3c0,.5,0,.9.2,1.4.1.4.3.8.5,1.1.2.3.5.6.8.8.3.2.7.3,1.2.3s.6,0,.8,0c.2,0,.4-.2.6-.3s.4-.3.5-.4c.1-.2.3-.4.4-.6v-4.6c-.2-.4-.5-.7-.9-1-.4-.3-.8-.4-1.4-.4s-.9,0-1.2.3c-.3.2-.6.4-.8.8-.2.3-.4.7-.5,1.2-.1.4-.2.9-.2,1.4v.2ZM606,560.3c-.7,0-1.3-.1-1.9-.4-.6-.2-1.1-.6-1.5-1-.4-.4-.7-.9-1-1.5-.2-.6-.3-1.2-.3-1.9v-.4c0-.8.1-1.5.4-2.1.3-.6.6-1.2,1-1.6.4-.4.9-.8,1.4-1,.5-.2,1.1-.3,1.7-.3s1.3.1,1.9.4c.5.2,1,.6,1.3,1,.4.4.6.9.8,1.5.2.6.3,1.2.3,1.9v.8h-7c0,.5,0,.9.2,1.3.2.4.4.7.6,1,.3.3.6.5,1,.7.4.2.8.2,1.2.2s1.1-.1,1.6-.4c.5-.2.9-.6,1.2-1l1,.8c-.2.2-.4.5-.6.7-.2.2-.5.4-.8.6-.3.2-.7.3-1.1.4-.4.1-.8.2-1.3.2ZM605.8,551.5c-.3,0-.7,0-1,.2-.3.1-.6.3-.8.5-.2.2-.4.5-.6.9-.2.3-.3.7-.3,1.2h5.3c0-.5,0-.8-.2-1.1-.1-.3-.3-.6-.5-.9-.2-.3-.5-.5-.8-.6s-.7-.2-1.1-.2ZM619.3,550.1c.2,0,.3,0,.5,0,.2,0,.3,0,.5,0,.2,0,.3,0,.4,0,.1,0,.2,0,.3.1l-.2,1.6c-.3,0-.6-.1-.9-.2-.3,0-.6,0-.9,0-.8,0-1.4.2-1.9.5-.5.4-.8.8-1.1,1.5v6.3h-1.7v-9.9h1.6v1.6c.5-.5,1-1,1.5-1.3s1.2-.5,1.9-.5ZM632.2,561.5h-8.4v-1.4h8.4v1.4Z"/>
        <path d="M640.4,560.1v-8.5h-1.6v-1.3h1.6v-1c0-1.1.3-1.9.8-2.4.6-.6,1.4-.9,2.4-.9s.8,0,1.2.2v1.4c-.4,0-.7,0-1,0-.5,0-1,.2-1.3.5-.3.3-.4.8-.4,1.4v1h2.1v1.3h-2.1v8.5h-1.7ZM652.1,559.1c-.7.8-1.6,1.2-2.9,1.2s-1.9-.3-2.4-.9c-.5-.6-.8-1.5-.8-2.7v-6.4h1.7v6.4c0,1.5.6,2.2,1.8,2.2s2.1-.5,2.6-1.4v-7.2h1.7v9.9h-1.6v-1ZM657.9,550.3v1.2c.8-.9,1.8-1.4,3-1.4,2.1,0,3.1,1.2,3.2,3.5v6.5h-1.7v-6.5c0-.7-.2-1.2-.5-1.6-.3-.3-.8-.5-1.5-.5s-1,.1-1.4.4c-.4.3-.7.7-1,1.2v7h-1.7v-9.9h1.6ZM670.6,558.9c.6,0,1.1-.2,1.6-.5.5-.4.7-.8.8-1.4h1.6c0,.6-.2,1.1-.6,1.6-.4.5-.8.9-1.4,1.2-.6.3-1.2.5-1.9.5-1.3,0-2.4-.4-3.2-1.3-.8-.9-1.2-2.1-1.2-3.7v-.3c0-1,.2-1.8.5-2.5.4-.8.9-1.3,1.5-1.7.7-.4,1.4-.6,2.3-.6s2,.3,2.8,1c.7.7,1.1,1.5,1.2,2.6h-1.6c0-.6-.3-1.2-.7-1.6-.4-.4-1-.6-1.6-.6s-1.5.3-2,.9c-.5.6-.7,1.5-.7,2.7v.3c0,1.1.2,2,.7,2.6.5.6,1.1.9,2,.9ZM678.6,547.9v2.4h1.8v1.3h-1.8v6.1c0,.4,0,.7.2.9.2.2.4.3.8.3s.5,0,.8-.1v1.4c-.4.1-.9.2-1.3.2-.8,0-1.3-.2-1.7-.7-.4-.5-.6-1.1-.6-1.9v-6.1h-1.8v-1.3h1.8v-2.4h1.7ZM684.3,560.1h-1.7v-9.9h1.7v9.9ZM682.5,547.6c0-.3,0-.5.2-.7.2-.2.4-.3.7-.3s.6,0,.8.3c.2.2.3.4.3.7,0,.3,0,.5-.3.7-.2.2-.4.3-.8.3s-.6,0-.7-.3c-.2-.2-.2-.4-.2-.7ZM686.5,555.1c0-1,.2-1.8.6-2.6.4-.8.9-1.4,1.6-1.8.7-.4,1.4-.6,2.3-.6,1.3,0,2.4.5,3.2,1.4.8.9,1.2,2.2,1.2,3.7h0c0,1.1-.2,1.9-.5,2.7-.4.8-.9,1.4-1.6,1.8-.7.4-1.5.6-2.4.6-1.3,0-2.4-.5-3.2-1.4-.8-.9-1.2-2.2-1.2-3.7h0ZM688.2,555.3c0,1.1.3,2,.8,2.6.5.7,1.2,1,2,1s1.5-.3,2-1c.5-.7.8-1.6.8-2.8s-.3-2-.8-2.6c-.5-.7-1.2-1-2-1s-1.5.3-2,1c-.5.7-.8,1.6-.8,2.8ZM699.2,550.3v1.2c.8-.9,1.8-1.4,3-1.4,2.1,0,3.1,1.2,3.2,3.5v6.5h-1.7v-6.5c0-.7-.2-1.2-.5-1.6-.3-.3-.8-.5-1.5-.5s-1,.1-1.4.4c-.4.3-.7.7-1,1.2v7h-1.7v-9.9h1.6ZM707.9,562.8l-1-.7c.6-.8.9-1.6.9-2.5v-1.5h1.7v1.3c0,.6-.2,1.2-.5,1.8-.3.6-.7,1.1-1.1,1.5ZM724.5,555.3c0,1.5-.3,2.7-1,3.6-.7.9-1.6,1.4-2.8,1.4s-2.2-.4-2.9-1.3v1.1h-1.6v-14h1.7v5.2c.7-.8,1.6-1.3,2.8-1.3s2.1.5,2.8,1.4c.7.9,1,2.1,1,3.7v.2ZM722.9,555.1c0-1.1-.2-2-.7-2.7-.4-.6-1.1-.9-1.9-.9s-1.9.5-2.4,1.5v4.3c.5,1,1.3,1.5,2.4,1.5s1.4-.3,1.9-.9.7-1.6.7-2.8ZM732.7,559.1c-.7.8-1.6,1.2-2.9,1.2s-1.9-.3-2.4-.9c-.5-.6-.8-1.5-.8-2.7v-6.4h1.7v6.4c0,1.5.6,2.2,1.8,2.2s2.1-.5,2.6-1.4v-7.2h1.7v9.9h-1.6v-1ZM739.2,547.9v2.4h1.8v1.3h-1.8v6.1c0,.4,0,.7.2.9.2.2.4.3.8.3s.5,0,.8-.1v1.4c-.4.1-.9.2-1.3.2-.8,0-1.3-.2-1.7-.7-.4-.5-.6-1.1-.6-1.9v-6.1h-1.8v-1.3h1.8v-2.4h1.7Z"/>
        <path d="M551.3,577.1c0-1,.2-1.8.6-2.6.4-.8.9-1.4,1.6-1.8.7-.4,1.4-.6,2.3-.6,1.3,0,2.4.5,3.2,1.4.8.9,1.2,2.2,1.2,3.7h0c0,1.1-.2,1.9-.5,2.7-.4.8-.9,1.4-1.6,1.8-.7.4-1.5.6-2.4.6-1.3,0-2.4-.5-3.2-1.4-.8-.9-1.2-2.2-1.2-3.7h0ZM553,577.3c0,1.1.3,2,.8,2.6.5.7,1.2,1,2,1s1.5-.3,2-1c.5-.7.8-1.6.8-2.8s-.3-2-.8-2.6c-.5-.7-1.2-1-2-1s-1.5.3-2,1c-.5.7-.8,1.6-.8,2.8ZM565.5,579.8l2.4-7.6h1.7l-3.5,9.9h-1.3l-3.6-9.9h1.7l2.5,7.6ZM575.2,582.3c-1.3,0-2.4-.4-3.3-1.3-.8-.9-1.2-2.1-1.2-3.5v-.3c0-1,.2-1.8.6-2.6.4-.8.9-1.4,1.6-1.8.7-.4,1.4-.7,2.2-.7,1.3,0,2.3.4,3,1.3.7.8,1.1,2.1,1.1,3.6v.7h-6.7c0,1,.3,1.8.8,2.4.6.6,1.2.9,2.1.9s1.1-.1,1.5-.4c.4-.2.8-.6,1.1-1l1,.8c-.8,1.3-2.1,1.9-3.7,1.9ZM575,573.5c-.7,0-1.2.2-1.7.8-.5.5-.7,1.2-.8,2.1h4.9c0-1-.3-1.6-.7-2.1-.4-.5-1-.7-1.7-.7ZM585.8,573.8c-.3,0-.5,0-.8,0-1.1,0-1.9.5-2.2,1.4v7h-1.7v-9.9h1.6v1.1c.6-.9,1.4-1.3,2.4-1.3s.6,0,.8.1v1.6ZM592.1,573.8c-.3,0-.5,0-.8,0-1.1,0-1.9.5-2.2,1.4v7h-1.7v-9.9h1.6v1.1c.6-.9,1.4-1.3,2.4-1.3s.6,0,.8.1v1.6ZM595.5,582.1h-1.7v-9.9h1.7v9.9ZM593.7,569.6c0-.3,0-.5.2-.7.2-.2.4-.3.7-.3s.6,0,.8.3c.2.2.3.4.3.7s0,.5-.3.7c-.2.2-.4.3-.8.3s-.6,0-.7-.3c-.2-.2-.2-.4-.2-.7ZM597.8,577.1c0-1.5.4-2.7,1.1-3.6.7-.9,1.7-1.4,2.8-1.4s2.1.4,2.8,1.2v-5.1h1.7v14h-1.5v-1.1c-.8.8-1.7,1.2-2.9,1.2s-2.1-.5-2.8-1.4c-.7-.9-1.1-2.2-1.1-3.7h0ZM599.4,577.3c0,1.1.2,2,.7,2.6.5.6,1.1.9,1.9.9s1.9-.5,2.3-1.4v-4.5c-.5-.9-1.3-1.4-2.3-1.4s-1.5.3-1.9,1c-.5.6-.7,1.6-.7,2.8ZM612.8,582.3c-1.3,0-2.4-.4-3.3-1.3-.8-.9-1.2-2.1-1.2-3.5v-.3c0-1,.2-1.8.6-2.6.4-.8.9-1.4,1.6-1.8.7-.4,1.4-.7,2.2-.7,1.3,0,2.3.4,3,1.3s1.1,2.1,1.1,3.6v.7h-6.7c0,1,.3,1.8.8,2.4.6.6,1.2.9,2.1.9s1.1-.1,1.5-.4c.4-.2.8-.6,1.1-1l1,.8c-.8,1.3-2.1,1.9-3.7,1.9ZM612.6,573.5c-.7,0-1.2.2-1.7.8-.5.5-.7,1.2-.8,2.1h4.9c0-1-.3-1.6-.7-2.1-.4-.5-1-.7-1.7-.7ZM625,582.1h-1.7v-9.9h1.7v9.9ZM623.2,569.6c0-.3,0-.5.2-.7.2-.2.4-.3.7-.3s.6,0,.8.3c.2.2.3.4.3.7s0,.5-.3.7c-.2.2-.4.3-.8.3s-.6,0-.7-.3c-.2-.2-.2-.4-.2-.7ZM630,569.9v2.4h1.8v1.3h-1.8v6.1c0,.4,0,.7.2.9.2.2.4.3.8.3s.5,0,.8-.1v1.4c-.4.1-.9.2-1.3.2-.8,0-1.3-.2-1.7-.7-.4-.5-.6-1.1-.6-1.9v-6.1h-1.8v-1.3h1.8v-2.4h1.7ZM640.7,569.9v2.4h1.8v1.3h-1.8v6.1c0,.4,0,.7.2.9.2.2.4.3.8.3s.5,0,.8-.1v1.4c-.4.1-.9.2-1.3.2-.8,0-1.3-.2-1.7-.7-.4-.5-.6-1.1-.6-1.9v-6.1h-1.8v-1.3h1.8v-2.4h1.7ZM643.9,577.1c0-1,.2-1.8.6-2.6.4-.8.9-1.4,1.6-1.8.7-.4,1.4-.6,2.3-.6,1.3,0,2.4.5,3.2,1.4.8.9,1.2,2.2,1.2,3.7h0c0,1.1-.2,1.9-.5,2.7-.4.8-.9,1.4-1.6,1.8-.7.4-1.5.6-2.4.6-1.3,0-2.4-.5-3.2-1.4-.8-.9-1.2-2.2-1.2-3.7h0ZM645.6,577.3c0,1.1.3,2,.8,2.6.5.7,1.2,1,2,1s1.5-.3,2-1c.5-.7.8-1.6.8-2.8s-.3-2-.8-2.6c-.5-.7-1.2-1-2-1s-1.5.3-2,1c-.5.7-.8,1.6-.8,2.8ZM665.7,581.1c-.7.8-1.6,1.2-2.9,1.2s-1.9-.3-2.4-.9c-.5-.6-.8-1.5-.8-2.7v-6.4h1.7v6.4c0,1.5.6,2.2,1.8,2.2s2.1-.5,2.6-1.4v-7.2h1.7v9.9h-1.6v-1ZM678.2,577.3c0,1.5-.3,2.7-1,3.6-.7.9-1.6,1.4-2.8,1.4s-2.1-.4-2.8-1.1v4.8h-1.7v-13.7h1.5v1.1c.8-.8,1.7-1.3,2.9-1.3s2.1.4,2.8,1.3c.7.9,1,2.1,1,3.7v.2ZM676.5,577.1c0-1.1-.2-2-.7-2.6-.5-.6-1.1-1-2-1s-1.8.5-2.3,1.4v4.7c.5.9,1.3,1.4,2.3,1.4s1.4-.3,1.9-1c.5-.6.7-1.6.7-2.9ZM679.9,577.1c0-1.5.4-2.7,1.1-3.6.7-.9,1.7-1.4,2.8-1.4s2.1.4,2.8,1.2v-5.1h1.7v14h-1.5v-1.1c-.8.8-1.7,1.2-2.9,1.2s-2.1-.5-2.8-1.4c-.7-.9-1.1-2.2-1.1-3.7h0ZM681.6,577.3c0,1.1.2,2,.7,2.6.5.6,1.1.9,1.9.9s1.9-.5,2.3-1.4v-4.5c-.5-.9-1.3-1.4-2.3-1.4s-1.5.3-1.9,1c-.5.6-.7,1.6-.7,2.8ZM697,582.1c0-.2-.2-.5-.2-1-.8.8-1.7,1.2-2.8,1.2s-1.8-.3-2.4-.8c-.6-.6-.9-1.2-.9-2.1s.4-1.8,1.2-2.4c.8-.6,1.9-.9,3.3-.9h1.6v-.8c0-.6-.2-1.1-.5-1.4-.3-.4-.9-.5-1.5-.5s-1.1.2-1.5.5c-.4.3-.6.7-.6,1.1h-1.7c0-.5.2-1,.5-1.4.4-.5.8-.8,1.4-1.1.6-.3,1.3-.4,2-.4,1.1,0,2,.3,2.7.9.6.6,1,1.3,1,2.3v4.5c0,.9.1,1.6.3,2.2h0c0,.1-1.8.1-1.8.1ZM694.2,580.8c.5,0,1-.1,1.5-.4.5-.3.8-.6,1-1.1v-2h-1.3c-2.1,0-3.1.6-3.1,1.8s.2.9.5,1.2c.4.3.8.4,1.4.4ZM703.3,569.9v2.4h1.8v1.3h-1.8v6.1c0,.4,0,.7.2.9.2.2.4.3.8.3s.5,0,.8-.1v1.4c-.4.1-.9.2-1.3.2-.8,0-1.3-.2-1.7-.7-.4-.5-.6-1.1-.6-1.9v-6.1h-1.8v-1.3h1.8v-2.4h1.7ZM711.2,582.3c-1.3,0-2.4-.4-3.3-1.3-.8-.9-1.2-2.1-1.2-3.5v-.3c0-1,.2-1.8.6-2.6.4-.8.9-1.4,1.6-1.8.7-.4,1.4-.7,2.2-.7,1.3,0,2.3.4,3,1.3.7.8,1.1,2.1,1.1,3.6v.7h-6.7c0,1,.3,1.8.8,2.4.6.6,1.2.9,2.1.9s1.1-.1,1.5-.4c.4-.2.8-.6,1.1-1l1,.8c-.8,1.3-2.1,1.9-3.7,1.9ZM711,573.5c-.7,0-1.2.2-1.7.8-.5.5-.7,1.2-.8,2.1h4.9c0-1-.3-1.6-.7-2.1-.4-.5-1-.7-1.7-.7ZM723.9,569.9v2.4h1.8v1.3h-1.8v6.1c0,.4,0,.7.2.9.2.2.4.3.8.3s.5,0,.8-.1v1.4c-.4.1-.9.2-1.3.2-.8,0-1.3-.2-1.7-.7-.4-.5-.6-1.1-.6-1.9v-6.1h-1.8v-1.3h1.8v-2.4h1.7ZM729.4,573.5c.8-.9,1.7-1.4,2.9-1.4,2.1,0,3.1,1.2,3.2,3.5v6.5h-1.7v-6.5c0-.7-.2-1.2-.5-1.6-.3-.3-.8-.5-1.5-.5s-1,.1-1.4.4c-.4.3-.7.7-1,1.2v7h-1.7v-14h1.7v5.3ZM742.1,582.3c-1.3,0-2.4-.4-3.3-1.3-.8-.9-1.2-2.1-1.2-3.5v-.3c0-1,.2-1.8.6-2.6.4-.8.9-1.4,1.6-1.8.7-.4,1.4-.7,2.2-.7,1.3,0,2.3.4,3,1.3.7.8,1.1,2.1,1.1,3.6v.7h-6.7c0,1,.3,1.8.8,2.4.6.6,1.2.9,2.1.9s1.1-.1,1.5-.4c.4-.2.8-.6,1.1-1l1,.8c-.8,1.3-2.1,1.9-3.7,1.9ZM741.9,573.5c-.7,0-1.2.2-1.7.8-.5.5-.7,1.2-.8,2.1h4.9c0-1-.3-1.6-.7-2.1-.4-.5-1-.7-1.7-.7Z"/>
        <path d="M607.7,604.1v-8.5h-1.6v-1.3h1.6v-.8c0-1.1.3-2,.9-2.6.6-.6,1.5-.9,2.7-.9s1.5.2,2.6.6l-.3,1.4c-.8-.3-1.5-.5-2.2-.5s-1.3.2-1.6.5c-.3.3-.5.8-.5,1.5v.9h2v1.3h-2v8.5h-1.7ZM614.7,604.1h-1.7v-9.9h1.7v9.9ZM621.5,604.3c-1.3,0-2.4-.4-3.3-1.3-.8-.9-1.2-2.1-1.2-3.5v-.3c0-1,.2-1.8.6-2.6.4-.8.9-1.4,1.6-1.8.7-.4,1.4-.7,2.2-.7,1.3,0,2.3.4,3,1.3s1.1,2.1,1.1,3.6v.7h-6.7c0,1,.3,1.8.8,2.4.6.6,1.2.9,2.1.9s1.1-.1,1.5-.4c.4-.2.8-.6,1.1-1l1,.8c-.8,1.3-2.1,1.9-3.7,1.9ZM621.3,595.5c-.7,0-1.2.2-1.7.8-.5.5-.7,1.2-.8,2.1h4.9c0-1-.3-1.6-.7-2.1-.4-.5-1-.7-1.7-.7ZM629.2,604.1h-1.7v-14h1.7v14ZM631.5,599.1c0-1.5.4-2.7,1.1-3.6.7-.9,1.7-1.4,2.8-1.4s2.1.4,2.8,1.2v-5.1h1.7v14h-1.5v-1.1c-.8.8-1.7,1.2-2.9,1.2s-2.1-.5-2.8-1.4c-.7-.9-1.1-2.2-1.1-3.7h0ZM633.1,599.3c0,1.1.2,2,.7,2.6.5.6,1.1.9,1.9.9s1.9-.5,2.3-1.4v-4.5c-.5-.9-1.3-1.4-2.3-1.4s-1.5.3-1.9,1c-.5.6-.7,1.6-.7,2.8ZM642.5,594.6l-1-.7c.6-.8.9-1.6.9-2.5v-1.3h1.7v1.2c0,.6-.2,1.2-.5,1.8-.3.6-.7,1.1-1.1,1.5ZM650.8,601.5c0-.5-.2-.8-.5-1.1s-.9-.5-1.8-.6c-.9-.2-1.5-.4-2-.7-.5-.3-.9-.6-1.1-.9-.2-.4-.4-.8-.4-1.3,0-.8.3-1.5,1-2,.7-.6,1.6-.8,2.6-.8s2,.3,2.7.9c.7.6,1,1.3,1,2.2h-1.7c0-.5-.2-.9-.6-1.2-.4-.3-.9-.5-1.5-.5s-1.1.1-1.4.4c-.3.3-.5.6-.5,1s.2.7.5.9c.3.2.9.4,1.7.6.8.2,1.5.4,2,.7.5.3.9.6,1.2.9.3.4.4.8.4,1.3,0,.9-.4,1.6-1.1,2.1-.7.5-1.6.8-2.7.8s-1.5-.1-2.1-.4c-.6-.3-1.1-.7-1.4-1.2s-.5-1-.5-1.6h1.7c0,.6.3,1,.7,1.3.4.3,1,.5,1.7.5s1.1-.1,1.5-.4c.4-.3.6-.6.6-1ZM665.1,601.5c0-.5-.2-.8-.5-1.1s-.9-.5-1.8-.6c-.9-.2-1.5-.4-2-.7-.5-.3-.9-.6-1.1-.9-.2-.4-.4-.8-.4-1.3,0-.8.3-1.5,1-2,.7-.6,1.6-.8,2.6-.8s2,.3,2.7.9c.7.6,1,1.3,1,2.2h-1.7c0-.5-.2-.9-.6-1.2-.4-.3-.9-.5-1.5-.5s-1.1.1-1.4.4c-.3.3-.5.6-.5,1s.2.7.5.9c.3.2.9.4,1.7.6.8.2,1.5.4,2,.7.5.3.9.6,1.2.9.3.4.4.8.4,1.3,0,.9-.4,1.6-1.1,2.1-.7.5-1.6.8-2.7.8s-1.5-.1-2.1-.4c-.6-.3-1.1-.7-1.4-1.2s-.5-1-.5-1.6h1.7c0,.6.3,1,.7,1.3.4.3,1,.5,1.7.5s1.1-.1,1.5-.4c.4-.3.6-.6.6-1ZM670.8,604.1h-1.7v-9.9h1.7v9.9ZM669,591.6c0-.3,0-.5.2-.7.2-.2.4-.3.7-.3s.6,0,.8.3c.2.2.3.4.3.7s0,.5-.3.7c-.2.2-.4.3-.8.3s-.6,0-.7-.3c-.2-.2-.2-.4-.2-.7ZM675.1,602.7h5.8v1.4h-7.8v-1.2l5.4-7.2h-5.3v-1.4h7.5v1.2l-5.5,7.3ZM686.7,604.3c-1.3,0-2.4-.4-3.3-1.3-.8-.9-1.2-2.1-1.2-3.5v-.3c0-1,.2-1.8.6-2.6.4-.8.9-1.4,1.6-1.8.7-.4,1.4-.7,2.2-.7,1.3,0,2.3.4,3,1.3.7.8,1.1,2.1,1.1,3.6v.7h-6.7c0,1,.3,1.8.8,2.4.6.6,1.2.9,2.1.9s1.1-.1,1.5-.4c.4-.2.8-.6,1.1-1l1,.8c-.8,1.3-2.1,1.9-3.7,1.9ZM686.5,595.5c-.7,0-1.3.2-1.7.8-.5.5-.7,1.2-.8,2.1h4.9c0-1-.3-1.6-.7-2.1-.4-.5-1-.7-1.7-.7Z"/>
        <path class="st1" d="M82.4,754.8h166.1c21.8,0,39.4,17.1,39.4,38.2s-17.6,38.2-39.4,38.2H82.4c-21.8,0-39.4-17.1-39.4-38.2s17.6-38.2,39.4-38.2Z"/>
        <path class="st5" d="M82.4,754.8h166.1c21.8,0,39.4,17.1,39.4,38.2s-17.6,38.2-39.4,38.2H82.4c-21.8,0-39.4-17.1-39.4-38.2s17.6-38.2,39.4-38.2Z"/>
        <path d="M96.3,788.9h-1.8l-6.7-10.2v10.2h-1.8v-13.3h1.8l6.7,10.3v-10.3h1.7v13.3ZM98.7,783.9c0-1,.2-1.8.6-2.6.4-.8.9-1.4,1.6-1.8.7-.4,1.4-.6,2.3-.6,1.3,0,2.4.5,3.2,1.4.8.9,1.2,2.2,1.2,3.7h0c0,1.1-.2,1.9-.5,2.7-.4.8-.9,1.4-1.6,1.8-.7.4-1.5.6-2.4.6-1.3,0-2.4-.5-3.2-1.4-.8-.9-1.2-2.2-1.2-3.7h0ZM100.4,784.1c0,1.1.3,2,.8,2.6.5.7,1.2,1,2,1s1.5-.3,2-1c.5-.7.8-1.6.8-2.8s-.3-2-.8-2.6c-.5-.7-1.2-1-2-1s-1.5.3-2,1c-.5.7-.8,1.6-.8,2.8ZM116,779.1v1.2c.8-.9,1.8-1.4,3-1.4,2.1,0,3.1,1.2,3.2,3.5v6.5h-1.7v-6.5c0-.7-.2-1.2-.5-1.6-.3-.3-.8-.5-1.5-.5s-1,.1-1.4.4c-.4.3-.7.7-1,1.2v7h-1.7v-9.9h1.6ZM128.8,789.1c-1.3,0-2.4-.4-3.3-1.3-.8-.9-1.2-2.1-1.2-3.5v-.3c0-1,.2-1.8.6-2.6.4-.8.9-1.4,1.6-1.8.7-.4,1.4-.7,2.2-.7,1.3,0,2.3.4,3,1.3.7.8,1.1,2.1,1.1,3.6v.7h-6.7c0,1,.3,1.8.8,2.4.6.6,1.2.9,2.1.9s1.1-.1,1.5-.4c.4-.2.8-.6,1.1-1l1,.8c-.8,1.3-2.1,1.9-3.7,1.9ZM128.6,780.3c-.7,0-1.2.2-1.7.8-.5.5-.7,1.2-.8,2.1h4.9c0-1-.3-1.6-.7-2.1-.4-.5-1-.7-1.7-.7ZM138.6,789.1c-1.3,0-2.4-.4-3.3-1.3-.8-.9-1.2-2.1-1.2-3.5v-.3c0-1,.2-1.8.6-2.6.4-.8.9-1.4,1.6-1.8.7-.4,1.4-.7,2.2-.7,1.3,0,2.3.4,3,1.3s1.1,2.1,1.1,3.6v.7h-6.7c0,1,.3,1.8.8,2.4.6.6,1.2.9,2.1.9s1.1-.1,1.5-.4c.4-.2.8-.6,1.1-1l1,.8c-.8,1.3-2.1,1.9-3.7,1.9ZM138.4,780.3c-.7,0-1.2.2-1.7.8-.5.5-.7,1.2-.8,2.1h4.9c0-1-.3-1.6-.7-2.1-.4-.5-1-.7-1.7-.7ZM144,783.9c0-1.5.4-2.7,1.1-3.6.7-.9,1.7-1.4,2.8-1.4s2.1.4,2.8,1.2v-5.1h1.7v14h-1.5v-1.1c-.8.8-1.7,1.2-2.9,1.2s-2.1-.5-2.8-1.4c-.7-.9-1.1-2.2-1.1-3.7h0ZM145.7,784.1c0,1.1.2,2,.7,2.6.5.6,1.1.9,1.9.9s1.9-.5,2.3-1.4v-4.5c-.5-.9-1.3-1.4-2.3-1.4s-1.5.3-1.9,1c-.5.6-.7,1.6-.7,2.8ZM161.9,776.7v2.4h1.8v1.3h-1.8v6.1c0,.4,0,.7.2.9.2.2.4.3.8.3s.5,0,.8-.1v1.4c-.4.1-.9.2-1.3.2-.8,0-1.3-.2-1.7-.7-.4-.5-.6-1.1-.6-1.9v-6.1h-1.8v-1.3h1.8v-2.4h1.7ZM165.1,783.9c0-1,.2-1.8.6-2.6.4-.8.9-1.4,1.6-1.8.7-.4,1.4-.6,2.3-.6,1.3,0,2.4.5,3.2,1.4.8.9,1.2,2.2,1.2,3.7h0c0,1.1-.2,1.9-.5,2.7-.4.8-.9,1.4-1.6,1.8-.7.4-1.5.6-2.4.6-1.3,0-2.4-.5-3.2-1.4-.8-.9-1.2-2.2-1.2-3.7h0ZM166.7,784.1c0,1.1.3,2,.8,2.6.5.7,1.2,1,2,1s1.5-.3,2-1c.5-.7.8-1.6.8-2.8s-.3-2-.8-2.6c-.5-.7-1.2-1-2-1s-1.5.3-2,1c-.5.7-.8,1.6-.8,2.8ZM180.3,783.9c0-1,.2-1.8.6-2.6.4-.8.9-1.4,1.6-1.8.7-.4,1.4-.6,2.3-.6,1.3,0,2.4.5,3.2,1.4.8.9,1.3,2.2,1.2,3.7h0c0,1.1-.2,1.9-.5,2.7-.4.8-.9,1.4-1.6,1.8-.7.4-1.5.6-2.4.6-1.3,0-2.4-.5-3.2-1.4-.8-.9-1.2-2.2-1.2-3.7h0ZM182,784.1c0,1.1.3,2,.8,2.6.5.7,1.2,1,2,1s1.5-.3,2-1c.5-.7.8-1.6.8-2.8,0-1.1-.3-2-.8-2.6-.5-.7-1.2-1-2-1s-1.5.3-2,1c-.5.7-.8,1.6-.8,2.8ZM194.5,786.6l2.4-7.6h1.7l-3.5,9.9h-1.3l-3.6-9.9h1.7l2.5,7.6ZM204.3,789.1c-1.3,0-2.4-.4-3.3-1.3-.8-.9-1.2-2.1-1.2-3.5v-.3c0-1,.2-1.8.6-2.6.4-.8.9-1.4,1.6-1.8.7-.4,1.4-.7,2.2-.7,1.3,0,2.3.4,3,1.3.7.8,1.1,2.1,1.1,3.6v.7h-6.7c0,1,.3,1.8.8,2.4.6.6,1.2.9,2.1.9s1.1-.1,1.5-.4c.4-.2.8-.6,1.1-1l1,.8c-.8,1.3-2.1,1.9-3.7,1.9ZM204.1,780.3c-.7,0-1.2.2-1.7.8-.5.5-.7,1.2-.8,2.1h4.9c0-1-.3-1.6-.7-2.1-.4-.5-1-.7-1.7-.7ZM214.8,780.6c-.3,0-.5,0-.8,0-1.1,0-1.9.5-2.2,1.4v7h-1.7v-9.9h1.6v1.1c.6-.9,1.4-1.3,2.4-1.3s.6,0,.8.1v1.6ZM221.1,780.6c-.3,0-.5,0-.8,0-1.1,0-1.9.5-2.2,1.4v7h-1.7v-9.9h1.6v1.1c.6-.9,1.4-1.3,2.4-1.3s.6,0,.8.1v1.6ZM224.5,788.9h-1.7v-9.9h1.7v9.9ZM222.7,776.4c0-.3,0-.5.2-.7.2-.2.4-.3.7-.3s.6,0,.8.3c.2.2.3.4.3.7s0,.5-.3.7c-.2.2-.4.3-.8.3s-.6,0-.7-.3c-.2-.2-.2-.4-.2-.7ZM226.8,783.9c0-1.5.4-2.7,1.1-3.6.7-.9,1.7-1.4,2.8-1.4s2.1.4,2.8,1.2v-5.1h1.7v14h-1.5v-1.1c-.8.8-1.7,1.2-2.9,1.2s-2.1-.5-2.8-1.4c-.7-.9-1.1-2.2-1.1-3.7h0ZM228.5,784.1c0,1.1.2,2,.7,2.6.5.6,1.1.9,1.9.9s1.9-.5,2.3-1.4v-4.5c-.5-.9-1.3-1.4-2.3-1.4s-1.5.3-1.9,1c-.5.6-.7,1.6-.7,2.8ZM241.8,789.1c-1.3,0-2.4-.4-3.3-1.3-.8-.9-1.2-2.1-1.2-3.5v-.3c0-1,.2-1.8.6-2.6.4-.8.9-1.4,1.6-1.8.7-.4,1.4-.7,2.2-.7,1.3,0,2.3.4,3,1.3s1.1,2.1,1.1,3.6v.7h-6.7c0,1,.3,1.8.8,2.4.6.6,1.2.9,2.1.9s1.1-.1,1.5-.4c.4-.2.8-.6,1.1-1l1,.8c-.8,1.3-2.1,1.9-3.7,1.9ZM241.6,780.3c-.7,0-1.2.2-1.7.8-.5.5-.7,1.2-.8,2.1h4.9c0-1-.3-1.6-.7-2.1-.4-.5-1-.7-1.7-.7Z"/>
        <path class="st9" d="M126.3,793h78.4v22.4h-78.4v-22.4Z"/>
        <path class="st6" d="M126.3,791.4h78.4v24.6h-78.4v-24.6Z"/>
        <path d="M134.3,800.9c.2,0,.3,0,.5,0,.2,0,.3,0,.5,0,.2,0,.3,0,.4,0,.1,0,.2,0,.3.1l-.2,1.6c-.3,0-.6-.1-.9-.2-.3,0-.6,0-.9,0-.8,0-1.4.2-1.9.5-.5.4-.8.8-1.1,1.5v6.3h-1.7v-9.9h1.6v1.6c.5-.5,1-1,1.5-1.3s1.2-.5,1.9-.5ZM143.4,811.1c-.7,0-1.3-.1-1.9-.4-.6-.2-1.1-.6-1.5-1-.4-.4-.7-.9-1-1.5-.2-.6-.3-1.2-.3-1.9v-.4c0-.8.1-1.5.4-2.1.3-.6.6-1.2,1-1.6.4-.4.9-.8,1.4-1,.5-.2,1.1-.3,1.7-.3s1.3.1,1.9.4c.5.2,1,.6,1.3,1,.4.4.6.9.8,1.5.2.6.3,1.2.3,1.9v.8h-7c0,.5,0,.9.2,1.3.2.4.4.7.6,1,.3.3.6.5,1,.7.4.2.8.2,1.2.2s1.1-.1,1.6-.4c.5-.2.9-.6,1.2-1l1,.8c-.2.2-.4.5-.6.7-.2.2-.5.4-.8.6-.3.2-.7.3-1.1.4-.4.1-.8.2-1.3.2ZM143.2,802.3c-.3,0-.7,0-1,.2s-.6.3-.8.5c-.2.2-.4.5-.6.9-.2.3-.3.7-.3,1.2h5.3c0-.5,0-.8-.2-1.1-.1-.3-.3-.6-.5-.9-.2-.3-.5-.5-.8-.6s-.7-.2-1.1-.2ZM151.7,801.1v1.5c.5-.5.9-.9,1.4-1.2.5-.3,1.1-.4,1.8-.4s1,0,1.4.2c.4.1.8.4,1.1.7.3.3.5.7.7,1.2.2.5.2,1,.2,1.7v6.3h-1.7v-6.2c0-.4,0-.8-.2-1.1,0-.3-.2-.5-.4-.7-.2-.2-.4-.3-.7-.4-.3,0-.6-.1-1-.1-.6,0-1.1.1-1.5.4-.4.3-.8.7-1,1.1v7.1h-1.7v-9.9h1.5ZM161.1,805.9c0-.7,0-1.4.3-2,.2-.6.4-1.2.8-1.6.3-.4.8-.8,1.2-1,.5-.2,1-.4,1.6-.4s1.1,0,1.5.3c.4.2.8.5,1.1.9v-5.1h1.7v14h-1.5v-1c-.4.4-.8.7-1.2.9-.4.2-1,.3-1.6.3s-1.1-.1-1.6-.4c-.5-.3-.9-.6-1.2-1.1-.3-.5-.6-1-.8-1.6-.2-.6-.3-1.3-.3-2v-.2ZM162.8,806.1c0,.5,0,.9.2,1.4.1.4.3.8.5,1.1.2.3.5.6.8.8.3.2.7.3,1.2.3s.6,0,.8,0c.2,0,.4-.2.6-.3s.4-.3.5-.4c.1-.2.3-.4.4-.6v-4.6c-.2-.4-.5-.7-.9-1-.4-.3-.8-.4-1.4-.4s-.9,0-1.2.3c-.3.2-.6.4-.8.8-.2.3-.4.7-.5,1.2-.1.4-.2.9-.2,1.4v.2ZM177,811.1c-.7,0-1.3-.1-1.9-.4-.6-.2-1.1-.6-1.5-1-.4-.4-.7-.9-1-1.5-.2-.6-.3-1.2-.3-1.9v-.4c0-.8.1-1.5.4-2.1.3-.6.6-1.2,1-1.6.4-.4.9-.8,1.4-1,.5-.2,1.1-.3,1.7-.3s1.3.1,1.9.4c.5.2,1,.6,1.3,1,.4.4.6.9.8,1.5.2.6.3,1.2.3,1.9v.8h-7c0,.5,0,.9.2,1.3.2.4.4.7.6,1,.3.3.6.5,1,.7.4.2.8.2,1.2.2s1.1-.1,1.6-.4c.5-.2.9-.6,1.2-1l1,.8c-.2.2-.4.5-.6.7-.2.2-.5.4-.8.6-.3.2-.7.3-1.1.4-.4.1-.8.2-1.3.2ZM176.8,802.3c-.3,0-.7,0-1,.2-.3.1-.6.3-.8.5-.2.2-.4.5-.6.9-.2.3-.3.7-.3,1.2h5.3c0-.5,0-.8-.2-1.1-.1-.3-.3-.6-.5-.9-.2-.3-.5-.5-.8-.6s-.7-.2-1.1-.2ZM190.3,800.9c.2,0,.3,0,.5,0,.2,0,.3,0,.5,0,.2,0,.3,0,.4,0,.1,0,.2,0,.3.1l-.2,1.6c-.3,0-.6-.1-.9-.2-.3,0-.6,0-.9,0-.8,0-1.4.2-1.9.5-.5.4-.8.8-1.1,1.5v6.3h-1.7v-9.9h1.6v1.6c.5-.5,1-1,1.5-1.3s1.2-.5,1.9-.5ZM203.2,812.3h-8.4v-1.4h8.4v1.4Z"/>
        <path class="st6" d="M204.6,791.4h0v24.6h0v-24.6Z"/>
        <path class="st1" d="M19.4,564.2l146-59.2,146,59.2-146,59.2-146-59.2Z"/>
        <path class="st5" d="M19.4,564.2l146-59.2,146,59.2-146,59.2-146-59.2Z"/>
        <path class="st3" d="M69.2,522.8h192.5v91.2H69.2v-91.2Z"/>
        <path d="M114.5,549.7v-13.4h4.6c1,0,1.8,0,2.4.2.8.2,1.4.5,2,1,.7.6,1.2,1.4,1.6,2.3.4.9.5,2,.5,3.2s-.1,1.9-.4,2.7c-.2.8-.5,1.4-.9,1.9-.4.5-.8.9-1.2,1.2-.4.3-1,.5-1.6.7-.6.1-1.3.2-2.1.2h-4.8ZM116.3,548.1h2.9c.9,0,1.6,0,2.1-.2.5-.2.9-.4,1.2-.7.4-.4.7-1,1-1.7.2-.7.4-1.6.4-2.6s-.2-2.5-.7-3.2-1-1.2-1.7-1.5c-.5-.2-1.2-.3-2.3-.3h-2.8v10.2ZM127.2,544.8c0-1.8.5-3.1,1.5-4,.8-.7,1.8-1.1,3-1.1s2.4.4,3.3,1.3c.8.9,1.3,2.1,1.3,3.6s-.2,2.2-.6,2.9c-.4.7-.9,1.3-1.6,1.7-.7.4-1.5.6-2.3.6-1.4,0-2.4-.4-3.3-1.3-.8-.9-1.2-2.1-1.2-3.8ZM128.8,544.8c0,1.2.3,2.2.8,2.8.5.6,1.2.9,2,.9s1.5-.3,2-.9c.5-.6.8-1.6.8-2.8s-.3-2.1-.8-2.7c-.5-.6-1.2-.9-2-.9s-1.5.3-2,.9c-.5.6-.8,1.5-.8,2.8ZM143.2,553.4l-.2-1.5c.4,0,.7.1.9.1s.7,0,.9-.2c.2-.1.4-.3.5-.5.1-.2.3-.6.5-1.2,0,0,0-.2.1-.4l-3.7-9.7h1.8l2,5.6c.3.7.5,1.5.7,2.2.2-.8.4-1.5.7-2.2l2.1-5.6h1.6l-3.7,9.8c-.4,1.1-.7,1.8-.9,2.2-.3.5-.6.9-1,1.2s-.8.4-1.3.4-.7,0-1.1-.2ZM152,544.8c0-1.8.5-3.1,1.5-4,.8-.7,1.8-1.1,3-1.1s2.4.4,3.3,1.3c.8.9,1.3,2.1,1.3,3.6s-.2,2.2-.6,2.9c-.4.7-.9,1.3-1.6,1.7-.7.4-1.5.6-2.3.6-1.4,0-2.4-.4-3.3-1.3-.8-.9-1.2-2.1-1.2-3.8ZM153.7,544.8c0,1.2.3,2.2.8,2.8.5.6,1.2.9,2,.9s1.5-.3,2-.9c.5-.6.8-1.6.8-2.8s-.3-2.1-.8-2.7c-.5-.6-1.2-.9-2-.9s-1.5.3-2,.9c-.5.6-.8,1.5-.8,2.8ZM169.4,549.7v-1.4c-.8,1.1-1.8,1.6-3.1,1.6s-1.1-.1-1.6-.3c-.5-.2-.9-.5-1.1-.8s-.4-.7-.5-1.2c0-.3-.1-.8-.1-1.5v-6h1.6v5.4c0,.9,0,1.4.1,1.7.1.4.3.8.7,1s.7.4,1.2.4.9-.1,1.4-.4c.4-.3.7-.6.9-1,.2-.4.3-1.1.3-1.9v-5.2h1.6v9.7h-1.5ZM178.6,549.7v-13.4h1.6v4.8c.8-.9,1.7-1.3,2.9-1.3s1.3.1,1.9.4c.5.3.9.7,1.1,1.2s.3,1.2.3,2.2v6.1h-1.6v-6.1c0-.8-.2-1.4-.5-1.8s-.9-.6-1.5-.6-.9.1-1.4.4c-.4.2-.7.6-.9,1-.2.4-.3,1-.3,1.8v5.3h-1.6ZM195.3,548.5c-.6.5-1.2.9-1.8,1.1-.6.2-1.2.3-1.8.3-1.1,0-1.9-.3-2.5-.8-.6-.5-.9-1.2-.9-2s.1-.9.3-1.3c.2-.4.5-.7.8-.9.4-.2.8-.4,1.2-.5.3,0,.8-.2,1.5-.2,1.3-.2,2.3-.3,2.9-.6,0-.2,0-.4,0-.4,0-.7-.2-1.1-.5-1.4-.4-.4-1-.5-1.9-.5s-1.3.1-1.7.4c-.4.3-.6.7-.8,1.4l-1.6-.2c.1-.7.4-1.2.7-1.6.3-.4.8-.8,1.5-1,.6-.2,1.4-.3,2.2-.3s1.5,0,2,.3c.5.2.9.4,1.1.7.2.3.4.7.5,1.1,0,.3,0,.8,0,1.5v2.2c0,1.5,0,2.5.1,2.9,0,.4.2.8.4,1.2h-1.7c-.2-.3-.3-.7-.3-1.2ZM195.1,544.8c-.6.2-1.5.5-2.7.6-.7,0-1.2.2-1.4.3s-.5.3-.7.5c-.1.2-.2.5-.2.8,0,.4.2.8.5,1.1.3.3.8.4,1.5.4s1.2-.1,1.7-.4c.5-.3.9-.7,1.1-1.1.2-.4.3-.9.3-1.6v-.6ZM202,549.7l-3.7-9.7h1.7l2.1,5.8c.2.6.4,1.3.6,1.9.1-.5.3-1.1.6-1.8l2.1-5.9h1.7l-3.7,9.7h-1.5ZM215.3,546.6l1.7.2c-.3,1-.8,1.8-1.5,2.3-.7.5-1.6.8-2.8.8s-2.5-.4-3.4-1.3c-.8-.9-1.2-2.1-1.2-3.7s.4-2.9,1.2-3.8c.8-.9,1.9-1.3,3.3-1.3s2.3.4,3.2,1.3c.8.9,1.2,2.1,1.2,3.7v.4h-7.2c0,1.1.4,1.9.9,2.5.5.6,1.2.8,2,.8s1.1-.2,1.5-.5c.4-.3.8-.8,1-1.5ZM209.9,543.9h5.4c0-.8-.3-1.4-.6-1.8-.5-.6-1.2-1-2-1s-1.4.3-1.9.8c-.5.5-.8,1.2-.8,2Z"/>
        <path d="M108.7,570.5c-.6.5-1.2.9-1.8,1.1-.6.2-1.2.3-1.8.3-1.1,0-1.9-.3-2.5-.8-.6-.5-.9-1.2-.9-2,0-.5.1-.9.3-1.3.2-.4.5-.7.8-.9.4-.2.8-.4,1.2-.5.3,0,.8-.2,1.5-.2,1.3-.2,2.3-.3,2.9-.6,0-.2,0-.4,0-.4,0-.7-.2-1.1-.5-1.4-.4-.4-1-.5-1.9-.5s-1.3.1-1.7.4c-.4.3-.6.7-.8,1.4l-1.6-.2c.1-.7.4-1.2.7-1.6.3-.4.8-.8,1.5-1,.6-.2,1.4-.3,2.2-.3s1.5,0,2,.3c.5.2.9.4,1.1.7.3.3.4.7.5,1.1,0,.3,0,.8,0,1.5v2.2c0,1.5,0,2.5.1,2.9,0,.4.2.8.4,1.2h-1.7c-.2-.3-.3-.7-.3-1.2ZM108.5,566.8c-.6.2-1.5.5-2.7.6-.7,0-1.2.2-1.4.3-.3.1-.5.3-.7.5-.1.2-.2.5-.2.8,0,.4.2.8.5,1.1.3.3.8.4,1.5.4s1.2-.1,1.7-.4c.5-.3.9-.7,1.1-1.1.2-.4.3-.9.3-1.6v-.6ZM119,571.7v-1.2c-.6,1-1.5,1.4-2.7,1.4s-1.5-.2-2.1-.6-1.1-1-1.5-1.8-.5-1.6-.5-2.6.2-1.8.5-2.6c.3-.8.8-1.4,1.4-1.8.6-.4,1.4-.6,2.2-.6s1.1.1,1.5.4c.5.2.8.6,1.1,1v-4.8h1.6v13.4h-1.5ZM113.8,566.9c0,1.2.3,2.2.8,2.8s1.1.9,1.8.9,1.3-.3,1.8-.9c.5-.6.8-1.5.8-2.7s-.3-2.3-.8-2.9c-.5-.6-1.1-.9-1.9-.9s-1.3.3-1.8.9-.7,1.5-.7,2.8ZM129.4,571.7v-1.2c-.6,1-1.5,1.4-2.7,1.4s-1.5-.2-2.1-.6c-.6-.4-1.1-1-1.5-1.8-.4-.8-.5-1.6-.5-2.6,0-1,.2-1.8.5-2.6.3-.8.8-1.4,1.4-1.8.6-.4,1.4-.6,2.2-.6s1.1.1,1.5.4c.5.2.8.6,1.1,1v-4.8h1.6v13.4h-1.5ZM124.2,566.9c0,1.2.3,2.2.8,2.8.5.6,1.1.9,1.8.9s1.3-.3,1.8-.9c.5-.6.8-1.5.8-2.7s-.3-2.3-.8-2.9c-.5-.6-1.1-.9-1.9-.9s-1.3.3-1.8.9c-.5.6-.7,1.5-.7,2.8ZM133.5,560.2v-1.9h1.6v1.9h-1.6ZM133.5,571.7v-9.7h1.6v9.7h-1.6ZM141.2,570.2l.2,1.5c-.5,0-.9.1-1.2.1-.6,0-1.1,0-1.4-.3-.3-.2-.6-.4-.7-.7-.1-.3-.2-1-.2-1.9v-5.6h-1.2v-1.3h1.2v-2.4l1.6-1v3.4h1.7v1.3h-1.7v5.7c0,.5,0,.8,0,.9,0,.1.2.2.3.3.1,0,.3.1.6.1s.4,0,.7,0ZM142.8,560.2v-1.9h1.6v1.9h-1.6ZM142.8,571.7v-9.7h1.6v9.7h-1.6ZM146.4,566.8c0-1.8.5-3.1,1.5-4,.8-.7,1.8-1.1,3-1.1s2.4.4,3.3,1.3c.8.9,1.3,2.1,1.3,3.6s-.2,2.2-.6,2.9c-.4.7-.9,1.3-1.6,1.7-.7.4-1.5.6-2.3.6-1.4,0-2.4-.4-3.3-1.3-.8-.9-1.2-2.1-1.2-3.8ZM148,566.8c0,1.2.3,2.2.8,2.8.5.6,1.2.9,2,.9s1.5-.3,2-.9c.5-.6.8-1.6.8-2.8s-.3-2.1-.8-2.7c-.5-.6-1.2-.9-2-.9s-1.5.3-2,.9c-.5.6-.8,1.5-.8,2.8ZM157.3,571.7v-9.7h1.5v1.4c.7-1.1,1.7-1.6,3.1-1.6s1.1.1,1.6.3.9.5,1.1.8c.2.3.4.7.5,1.2,0,.3,0,.8,0,1.6v6h-1.6v-5.9c0-.7,0-1.2-.2-1.5-.1-.3-.3-.6-.7-.8s-.7-.3-1.1-.3c-.7,0-1.3.2-1.8.7-.5.4-.8,1.3-.8,2.5v5.3h-1.6ZM174,570.5c-.6.5-1.2.9-1.8,1.1-.6.2-1.2.3-1.8.3-1.1,0-1.9-.3-2.5-.8-.6-.5-.9-1.2-.9-2s.1-.9.3-1.3c.2-.4.5-.7.8-.9.4-.2.8-.4,1.2-.5.3,0,.8-.2,1.5-.2,1.3-.2,2.3-.3,2.9-.6,0-.2,0-.4,0-.4,0-.7-.2-1.1-.5-1.4-.4-.4-1-.5-1.9-.5s-1.3.1-1.7.4c-.4.3-.6.7-.8,1.4l-1.6-.2c.1-.7.4-1.2.7-1.6.3-.4.8-.8,1.5-1,.6-.2,1.4-.3,2.2-.3s1.5,0,2,.3c.5.2.9.4,1.1.7.2.3.4.7.5,1.1,0,.3,0,.8,0,1.5v2.2c0,1.5,0,2.5.1,2.9,0,.4.2.8.4,1.2h-1.7c-.2-.3-.3-.7-.3-1.2ZM173.9,566.8c-.6.2-1.5.5-2.7.6-.7,0-1.2.2-1.4.3s-.5.3-.7.5c-.1.2-.2.5-.2.8,0,.4.2.8.5,1.1.3.3.8.4,1.5.4s1.2-.1,1.7-.4c.5-.3.9-.7,1.1-1.1.2-.4.3-.9.3-1.6v-.6ZM178.1,571.7v-13.4h1.6v13.4h-1.6ZM186.8,568.8l1.6-.2c0,.6.3,1.1.8,1.5.4.3,1,.5,1.8.5s1.3-.2,1.7-.5c.4-.3.5-.7.5-1.1,0-.4-.2-.7-.5-.9-.2-.1-.8-.3-1.7-.5-1.2-.3-2-.6-2.5-.8-.5-.2-.8-.5-1-.9-.2-.4-.4-.8-.4-1.3,0-.4,0-.8.3-1.2.2-.4.5-.7.8-.9.3-.2.6-.3,1-.5.4-.1.9-.2,1.4-.2.8,0,1.4.1,2,.3.6.2,1,.5,1.3.9.3.4.5.9.6,1.5l-1.6.2c0-.5-.3-.9-.6-1.2-.3-.3-.8-.4-1.5-.4s-1.3.1-1.6.4c-.3.2-.5.5-.5.9,0,.2,0,.4.2.6.1.2.3.3.6.4.2,0,.6.2,1.4.4,1.2.3,2,.6,2.4.8.5.2.8.5,1.1.9.3.4.4.8.4,1.4,0,.6-.2,1.1-.5,1.5-.3.5-.8.9-1.4,1.1-.6.3-1.3.4-2,.4-1.2,0-2.2-.3-2.9-.8-.7-.5-1.1-1.3-1.2-2.3ZM200.3,570.2l.2,1.5c-.5,0-.9.1-1.2.1-.6,0-1.1,0-1.4-.3-.3-.2-.6-.4-.7-.7-.1-.3-.2-1-.2-1.9v-5.6h-1.2v-1.3h1.2v-2.4l1.6-1v3.4h1.7v1.3h-1.7v5.7c0,.5,0,.8,0,.9,0,.1.2.2.3.3.1,0,.3.1.6.1s.4,0,.7,0ZM208.2,570.5c-.6.5-1.2.9-1.8,1.1-.6.2-1.2.3-1.8.3-1.1,0-1.9-.3-2.5-.8-.6-.5-.9-1.2-.9-2s.1-.9.3-1.3c.2-.4.5-.7.8-.9.4-.2.8-.4,1.2-.5.3,0,.8-.2,1.5-.2,1.3-.2,2.3-.3,2.9-.6,0-.2,0-.4,0-.4,0-.7-.2-1.1-.5-1.4-.4-.4-1-.5-1.9-.5s-1.3.1-1.7.4c-.4.3-.6.7-.8,1.4l-1.6-.2c.1-.7.4-1.2.7-1.6.3-.4.8-.8,1.5-1,.6-.2,1.4-.3,2.2-.3s1.5,0,2,.3c.5.2.9.4,1.1.7.2.3.4.7.5,1.1,0,.3,0,.8,0,1.5v2.2c0,1.5,0,2.5.1,2.9,0,.4.2.8.4,1.2h-1.7c-.2-.3-.3-.7-.3-1.2ZM208.1,566.8c-.6.2-1.5.5-2.7.6-.7,0-1.2.2-1.4.3s-.5.3-.7.5c-.1.2-.2.5-.2.8,0,.4.2.8.5,1.1.3.3.8.4,1.5.4s1.2-.1,1.7-.4c.5-.3.9-.7,1.1-1.1.2-.4.3-.9.3-1.6v-.6ZM215.9,570.2l.2,1.5c-.5,0-.9.1-1.2.1-.6,0-1.1,0-1.4-.3-.3-.2-.6-.4-.7-.7-.1-.3-.2-1-.2-1.9v-5.6h-1.2v-1.3h1.2v-2.4l1.6-1v3.4h1.7v1.3h-1.7v5.7c0,.5,0,.8,0,.9,0,.1.2.2.3.3.1,0,.3.1.6.1s.4,0,.7,0ZM217.5,560.2v-1.9h1.6v1.9h-1.6ZM217.5,571.7v-9.7h1.6v9.7h-1.6ZM228,568.1l1.6.2c-.2,1.1-.6,2-1.4,2.6-.7.6-1.6.9-2.7.9s-2.4-.4-3.2-1.3c-.8-.9-1.2-2.1-1.2-3.7s.2-2,.5-2.8.9-1.4,1.6-1.8c.7-.4,1.5-.6,2.3-.6s1.9.3,2.6.8c.7.5,1.1,1.3,1.3,2.3l-1.6.2c-.2-.6-.4-1.1-.8-1.5-.4-.3-.8-.5-1.4-.5-.8,0-1.5.3-2,.9-.5.6-.8,1.5-.8,2.8s.2,2.2.8,2.8c.5.6,1.2.9,2,.9s1.2-.2,1.6-.6c.4-.4.7-1,.8-1.8Z"/>
        <path d="M130.3,590.6l1.7.2c-.3,1-.8,1.8-1.5,2.3-.7.5-1.6.8-2.8.8s-2.5-.4-3.4-1.3c-.8-.9-1.2-2.1-1.2-3.7,0-1.6.4-2.9,1.2-3.8.8-.9,1.9-1.3,3.3-1.3s2.3.4,3.2,1.3c.8.9,1.2,2.1,1.2,3.7v.4h-7.2c0,1.1.4,1.9.9,2.5.5.6,1.2.8,2,.8s1.1-.2,1.5-.5c.4-.3.8-.8,1-1.5ZM124.9,587.9h5.4c0-.8-.3-1.4-.6-1.8-.5-.6-1.2-1-2-1s-1.4.3-1.9.8c-.5.5-.8,1.2-.8,2ZM134,593.7v-13.4h1.6v13.4h-1.6ZM144.8,590.6l1.7.2c-.3,1-.8,1.8-1.5,2.3-.7.5-1.6.8-2.8.8s-2.5-.4-3.4-1.3c-.8-.9-1.2-2.1-1.2-3.7s.4-2.9,1.2-3.8c.8-.9,1.9-1.3,3.3-1.3s2.3.4,3.2,1.3c.8.9,1.2,2.1,1.2,3.7v.4h-7.2c0,1.1.4,1.9.9,2.5.5.6,1.2.8,2,.8s1.1-.2,1.5-.5c.4-.3.8-.8,1-1.5ZM139.4,587.9h5.4c0-.8-.3-1.4-.6-1.8-.5-.6-1.2-1-2-1s-1.4.3-1.9.8c-.5.5-.8,1.2-.8,2ZM148.5,593.7v-9.7h1.5v1.4c.3-.5.7-.9,1.2-1.1.5-.3,1.1-.4,1.7-.4s1.3.2,1.8.5c.5.3.8.7,1,1.2.8-1.1,1.8-1.7,3-1.7s1.7.3,2.2.8c.5.5.8,1.3.8,2.5v6.6h-1.6v-6.1c0-.7,0-1.1-.2-1.4-.1-.3-.3-.5-.6-.7s-.6-.3-1-.3c-.7,0-1.2.2-1.7.7-.4.4-.7,1.2-.7,2.2v5.6h-1.6v-6.3c0-.7-.1-1.3-.4-1.6s-.7-.5-1.3-.5-.9.1-1.3.4-.7.6-.9,1.1c-.2.5-.2,1.1-.2,2v5h-1.6ZM170.7,590.6l1.7.2c-.3,1-.8,1.8-1.5,2.3-.7.5-1.6.8-2.8.8s-2.5-.4-3.4-1.3c-.8-.9-1.2-2.1-1.2-3.7s.4-2.9,1.2-3.8c.8-.9,1.9-1.3,3.3-1.3s2.3.4,3.2,1.3c.8.9,1.2,2.1,1.2,3.7,0,.1,0,.2,0,.4h-7.2c0,1.1.4,1.9.9,2.5.5.6,1.2.8,2,.8s1.1-.2,1.5-.5c.4-.3.8-.8,1-1.5ZM165.3,587.9h5.4c0-.8-.3-1.4-.6-1.8-.5-.6-1.2-1-2-1s-1.4.3-1.9.8c-.5.5-.8,1.2-.8,2ZM174.4,593.7v-9.7h1.5v1.4c.7-1.1,1.7-1.6,3.1-1.6s1.1.1,1.6.3c.5.2.9.5,1.1.8.2.3.4.7.5,1.2,0,.3,0,.8,0,1.6v6h-1.6v-5.9c0-.7,0-1.2-.2-1.5-.1-.3-.3-.6-.7-.8-.3-.2-.7-.3-1.1-.3-.7,0-1.3.2-1.8.7-.5.4-.8,1.3-.8,2.5v5.3h-1.6ZM188.4,592.2l.2,1.5c-.5,0-.9.1-1.2.1-.6,0-1.1,0-1.4-.3-.3-.2-.6-.4-.7-.7-.1-.3-.2-1-.2-1.9v-5.6h-1.2v-1.3h1.2v-2.4l1.6-1v3.4h1.7v1.3h-1.7v5.7c0,.5,0,.8,0,.9,0,.1.2.2.3.3.1,0,.3.1.6.1s.4,0,.7,0ZM189.3,590.8l1.6-.2c0,.6.3,1.1.8,1.5.4.3,1,.5,1.8.5s1.3-.2,1.7-.5c.4-.3.5-.7.5-1.1s-.2-.7-.5-.9c-.2-.1-.8-.3-1.7-.5-1.2-.3-2-.6-2.5-.8-.5-.2-.8-.5-1-.9-.2-.4-.4-.8-.4-1.3s0-.8.3-1.2c.2-.4.5-.7.8-.9.2-.2.6-.3,1-.5.4-.1.9-.2,1.4-.2.8,0,1.4.1,2,.3.6.2,1,.5,1.3.9.3.4.5.9.6,1.5l-1.6.2c0-.5-.3-.9-.6-1.2-.3-.3-.8-.4-1.5-.4s-1.3.1-1.6.4c-.3.2-.5.5-.5.9s0,.4.2.6c.1.2.3.3.6.4.2,0,.6.2,1.4.4,1.2.3,2,.6,2.4.8.5.2.8.5,1.1.9.3.4.4.8.4,1.4s-.2,1.1-.5,1.5c-.3.5-.8.9-1.4,1.1-.6.3-1.3.4-2,.4-1.2,0-2.2-.3-2.9-.8-.7-.5-1.1-1.3-1.2-2.3ZM202.4,590.4v-.5c0-.6,0-1.2.3-1.7.1-.3.3-.7.6-1.1.2-.3.6-.6,1.2-1.1.6-.5.9-.9,1.1-1.2.2-.3.3-.6.3-1,0-.6-.2-1.2-.8-1.7-.5-.5-1.1-.7-1.8-.7s-1.3.2-1.8.7-.8,1.1-.9,2l-1.7-.2c.2-1.2.6-2.2,1.4-2.8.8-.7,1.7-1,3-1s2.4.4,3.1,1.1c.8.7,1.2,1.6,1.2,2.6s-.1,1.1-.4,1.6c-.3.5-.8,1.1-1.6,1.8-.5.5-.9.8-1,1-.2.2-.3.5-.4.8,0,.3-.1.8-.1,1.4h-1.6ZM202.3,593.7v-1.9h1.9v1.9h-1.9Z"/>
      </g>
    </g>
  </g>
</svg>