<svg width="800" height="800" viewBox="0 0 800 800" fill="none" xmlns="http://www.w3.org/2000/svg">
<rect width="800" height="800" fill="white"/>
<path fill-rule="evenodd" clip-rule="evenodd" d="M695.784 530.353L673.895 508.341L668.518 522.936L667.138 536.206C666.634 535.329 666.339 534.29 666.339 533.156V479.39C666.339 474.728 671.24 471.84 675.161 474.156L689.484 482.621C692.605 484.471 696.326 483.003 697.725 480.019L698.125 398.665C698.125 393.412 696.06 388.674 692.739 385.261L671.278 363.841L635.371 379.837H142.43C132.476 379.837 124.387 388.283 124.387 398.665V589.619L105.896 597.856L128.317 620.363C131.629 624.681 136.711 627.456 142.421 627.456H180.688C183.41 627.456 185.989 628.571 187.835 630.554L203.138 646.817C214.682 659.095 233.658 659.095 245.192 646.817L260.495 630.554C262.342 628.571 264.949 627.456 267.643 627.456H680.072C688.742 627.456 696.003 621.059 697.716 612.546V532.707C697.269 531.745 696.574 530.944 695.746 530.353H695.784Z" fill="#4285F4"/>
<path fill-rule="evenodd" clip-rule="evenodd" d="M695.784 530.353L673.895 508.341L668.518 522.936L667.138 536.206C666.634 535.329 666.339 534.29 666.339 533.156V479.39C666.339 474.728 671.24 471.84 675.161 474.156L689.484 482.621C692.605 484.471 696.326 483.003 697.725 480.019L698.125 398.665C698.125 393.412 696.06 388.674 692.739 385.261L671.278 363.841L635.371 379.837H142.43C132.476 379.837 124.387 388.283 124.387 398.665V589.619L105.896 597.856L128.317 620.363C131.629 624.681 136.711 627.456 142.421 627.456H180.688C183.41 627.456 185.989 628.571 187.835 630.554L203.138 646.817C214.682 659.095 233.658 659.095 245.192 646.817L260.495 630.554C262.342 628.571 264.949 627.456 267.643 627.456H680.072C688.742 627.456 696.003 621.059 697.716 612.546V532.707C697.269 531.745 696.574 530.944 695.746 530.353H695.784Z" fill="url(#paint0_linear_2488_52)"/>
<path fill-rule="evenodd" clip-rule="evenodd" d="M695.784 530.353L673.895 508.341L668.518 522.936L667.138 536.206C666.634 535.329 666.339 534.29 666.339 533.156V479.39C666.339 474.728 671.24 471.84 675.161 474.156L689.484 482.621C692.605 484.471 696.326 483.003 697.725 480.019L698.125 398.665C698.125 393.412 696.06 388.674 692.739 385.261L671.278 363.841L635.371 379.837H142.43C132.476 379.837 124.387 388.283 124.387 398.665V589.619L105.896 597.856L128.317 620.363C131.629 624.681 136.711 627.456 142.421 627.456H180.688C183.41 627.456 185.989 628.571 187.835 630.554L203.138 646.817C214.682 659.095 233.658 659.095 245.192 646.817L260.495 630.554C262.342 628.571 264.949 627.456 267.643 627.456H680.072C688.742 627.456 696.003 621.059 697.716 612.546V532.707C697.269 531.745 696.574 530.944 695.746 530.353H695.784Z" fill="url(#paint1_linear_2488_52)"/>
<path fill-rule="evenodd" clip-rule="evenodd" d="M695.784 530.353L673.895 508.341L668.518 522.936L667.138 536.206C666.634 535.329 666.339 534.29 666.339 533.156V479.39C666.339 474.728 671.24 471.84 675.161 474.156L689.484 482.621C692.605 484.471 696.326 483.003 697.725 480.019L698.125 398.665C698.125 393.412 696.06 388.674 692.739 385.261L671.278 363.841L635.371 379.837H142.43C132.476 379.837 124.387 388.283 124.387 398.665V589.619L105.896 597.856L128.317 620.363C131.629 624.681 136.711 627.456 142.421 627.456H180.688C183.41 627.456 185.989 628.571 187.835 630.554L203.138 646.817C214.682 659.095 233.658 659.095 245.192 646.817L260.495 630.554C262.342 628.571 264.949 627.456 267.643 627.456H680.072C688.742 627.456 696.003 621.059 697.716 612.546V532.707C697.269 531.745 696.574 530.944 695.746 530.353H695.784Z" stroke="#202124" stroke-width="4" stroke-linecap="round" stroke-linejoin="round"/>
<path fill-rule="evenodd" clip-rule="evenodd" d="M120.044 358.007C110.089 358.007 102 366.435 102 376.795V586.325C102 596.713 110.089 605.114 120.044 605.114H158.311C161.033 605.114 163.612 606.227 165.458 608.205L180.762 624.435C192.305 636.688 211.282 636.688 222.817 624.435L238.12 608.205C239.966 606.227 242.574 605.114 245.267 605.114H657.7C666.369 605.114 673.631 598.73 675.344 590.235V510.561C673.945 507.565 670.243 506.119 667.121 507.917L652.713 516.279C648.811 518.543 643.938 515.632 643.938 511.008V457.354C643.938 452.702 648.839 449.819 652.76 452.131L667.083 460.579C670.205 462.424 673.926 460.959 675.325 457.972L675.724 376.786C675.724 366.397 667.635 357.997 657.68 357.997H120.025H120.044V358.007Z" fill="#4285F4" stroke="#202124" stroke-width="4" stroke-miterlimit="10"/>
<path d="M412.411 566.554C399.305 563.737 389.472 552.086 389.491 538.151V502.553C389.453 501.021 389.358 500.507 389.158 499.84C389.063 499.498 388.806 499.079 388.444 498.698L410.298 520.581L410.869 521.142C411.145 521.475 411.345 521.818 411.431 522.113C411.631 522.779 411.726 523.293 411.764 524.826V560.424C411.764 562.528 411.983 564.574 412.411 566.554Z" fill="white"/>
<path d="M412.411 566.554C399.305 563.737 389.472 552.086 389.491 538.151V502.553C389.453 501.021 389.358 500.507 389.158 499.84C389.063 499.498 388.806 499.079 388.444 498.698L410.298 520.581L410.869 521.142C411.145 521.475 411.345 521.818 411.431 522.113C411.631 522.779 411.726 523.293 411.764 524.826V560.424C411.764 562.528 411.983 564.574 412.411 566.554Z" fill="url(#paint2_linear_2488_52)"/>
<path d="M412.411 566.554C399.305 563.737 389.472 552.086 389.491 538.151V502.553C389.453 501.021 389.358 500.507 389.158 499.84C389.063 499.498 388.806 499.079 388.444 498.698L410.298 520.581L410.869 521.142C411.145 521.475 411.345 521.818 411.431 522.113C411.631 522.779 411.726 523.293 411.764 524.826V560.424C411.764 562.528 411.983 564.574 412.411 566.554Z" stroke="#202124" stroke-width="4" stroke-miterlimit="10"/>
<path d="M605.574 415.804C603.594 415.375 601.529 415.147 599.416 415.147H440.841C424.784 415.147 411.763 428.158 411.763 444.197V480.223C411.763 480.223 411.81 481.756 411.458 482.707C411.097 483.669 410.544 484.154 409.631 484.602C408.355 485.23 406.775 485.268 405.376 484.449L394.23 478.044C391.184 476.283 387.367 478.481 387.367 482.003V497.87C387.282 497.823 387.196 497.784 387.111 497.746C385.883 497.232 384.436 497.261 383.122 497.994L371.91 504.314C368.883 506.027 365.095 503.819 365.095 500.326V459.73C365.095 456.209 368.902 454.01 371.957 455.761L383.103 462.177C384.502 462.995 386.083 462.948 387.358 462.329C388.272 461.881 388.824 461.396 389.185 460.435C389.538 459.483 389.49 457.95 389.49 457.95V421.924C389.49 405.886 402.502 392.874 418.568 392.874H577.143C591.116 392.874 602.776 402.697 605.574 415.804Z" fill="white"/>
<path d="M605.574 415.804C603.594 415.375 601.529 415.147 599.416 415.147H440.841C424.784 415.147 411.763 428.158 411.763 444.197V480.223C411.763 480.223 411.81 481.756 411.458 482.707C411.097 483.669 410.544 484.154 409.631 484.602C408.355 485.23 406.775 485.268 405.376 484.449L394.23 478.044C391.184 476.283 387.367 478.481 387.367 482.003V497.87C387.282 497.823 387.196 497.784 387.111 497.746C385.883 497.232 384.436 497.261 383.122 497.994L371.91 504.314C368.883 506.027 365.095 503.819 365.095 500.326V459.73C365.095 456.209 368.902 454.01 371.957 455.761L383.103 462.177C384.502 462.995 386.083 462.948 387.358 462.329C388.272 461.881 388.824 461.396 389.185 460.435C389.538 459.483 389.49 457.95 389.49 457.95V421.924C389.49 405.886 402.502 392.874 418.568 392.874H577.143C591.116 392.874 602.776 402.697 605.574 415.804Z" fill="url(#paint3_linear_2488_52)"/>
<path d="M605.574 415.804C603.594 415.375 601.529 415.147 599.416 415.147H440.841C424.784 415.147 411.763 428.158 411.763 444.197V480.223C411.763 480.223 411.81 481.756 411.458 482.707C411.097 483.669 410.544 484.154 409.631 484.602C408.355 485.23 406.775 485.268 405.376 484.449L394.23 478.044C391.184 476.283 387.367 478.481 387.367 482.003V497.87C387.282 497.823 387.196 497.784 387.111 497.746C385.883 497.232 384.436 497.261 383.122 497.994L371.91 504.314C368.883 506.027 365.095 503.819 365.095 500.326V459.73C365.095 456.209 368.902 454.01 371.957 455.761L383.103 462.177C384.502 462.995 386.083 462.948 387.358 462.329C388.272 461.881 388.824 461.396 389.185 460.435C389.538 459.483 389.49 457.95 389.49 457.95V421.924C389.49 405.886 402.502 392.874 418.568 392.874H577.143C591.116 392.874 602.776 402.697 605.574 415.804Z" fill="url(#paint4_linear_2488_52)"/>
<path d="M605.574 415.804C603.594 415.375 601.529 415.147 599.416 415.147H440.841C424.784 415.147 411.763 428.158 411.763 444.197V480.223C411.763 480.223 411.81 481.756 411.458 482.707C411.097 483.669 410.544 484.154 409.631 484.602C408.355 485.23 406.775 485.268 405.376 484.449L394.23 478.044C391.184 476.283 387.367 478.481 387.367 482.003V497.87C387.282 497.823 387.196 497.784 387.111 497.746C385.883 497.232 384.436 497.261 383.122 497.994L371.91 504.314C368.883 506.027 365.095 503.819 365.095 500.326V459.73C365.095 456.209 368.902 454.01 371.957 455.761L383.103 462.177C384.502 462.995 386.083 462.948 387.358 462.329C388.272 461.881 388.824 461.396 389.185 460.435C389.538 459.483 389.49 457.95 389.49 457.95V421.924C389.49 405.886 402.502 392.874 418.568 392.874H577.143C591.116 392.874 602.776 402.697 605.574 415.804Z" stroke="#202124" stroke-width="4" stroke-miterlimit="10"/>
<path d="M606.574 422.213V538.362C606.574 554.387 593.546 567.369 577.458 567.369H418.677V567.397C416.561 567.397 414.503 567.169 412.511 566.741C412.082 564.763 411.863 562.718 411.863 560.616V525.048C411.825 523.517 411.729 523.003 411.529 522.337C411.443 522.043 411.243 521.7 410.967 521.367L410.395 520.806L388.513 498.942C388.217 498.619 387.845 498.324 387.436 498.115V482.261C387.436 478.742 391.257 476.545 394.307 478.305L405.468 484.705C406.869 485.523 408.451 485.485 409.728 484.857C410.643 484.41 411.196 483.925 411.558 482.965C411.91 482.014 411.863 480.483 411.863 480.483V444.486C411.863 428.461 424.901 415.461 440.979 415.461H599.76C601.876 415.461 603.944 415.689 605.926 416.117C606.355 418.086 606.574 420.121 606.574 422.213Z" fill="white" stroke="#202124" stroke-width="4" stroke-miterlimit="10"/>
<path d="M214.893 547.898C211.831 547.05 209.499 545.402 208.75 542.088C208.437 540.726 208.684 539.421 208.93 538.107C211.613 523.239 214.409 508.391 216.988 493.514C217.964 487.856 218.495 482.094 219.206 476.398V475.998C219.358 470.741 218.59 469.636 213.566 468.046C206.447 465.798 199.299 463.598 192.171 461.321C189.867 460.588 187.621 459.674 185.63 458.245C181.061 454.997 181.374 447.492 186.208 444.549C187.782 443.587 189.488 443.501 191.204 444.016C200.55 446.863 210.068 448.997 219.699 450.673C230.212 452.502 240.715 452.635 251.275 450.921C261.484 449.273 271.513 446.959 281.429 444.063C284.51 443.178 287.135 444.111 288.823 446.844C291.373 451.007 291.42 456.035 286.007 459.026C283.078 460.655 279.865 461.54 276.727 462.655C270.783 464.769 264.83 466.817 258.868 468.912C254.033 470.608 253.341 471.56 253.559 476.703C253.758 481.646 254.536 486.523 255.313 491.399C257.512 505.114 260.309 518.734 262.792 532.411C263.19 534.592 263.617 536.754 263.987 538.935C264.717 543.078 262.792 546.279 258.792 547.574C258.508 547.66 258.214 547.774 257.948 547.86H253.531C250.004 546.745 248.336 544.05 247.492 540.669C247.379 540.24 247.293 539.821 247.227 539.402C245.587 530.763 243.871 522.153 241.767 513.62C240.658 509.172 239.615 504.695 237.681 500.486C237.397 499.838 237.15 498.904 236.354 498.885C235.425 498.838 235.226 499.847 234.913 500.514C233.359 503.829 232.496 507.372 231.586 510.886C229.216 520.258 227.368 529.716 225.614 539.231C224.903 543.126 223.415 546.469 219.31 547.869H214.893V547.917V547.898Z" fill="white" stroke="#202124" stroke-width="4" stroke-linecap="round" stroke-linejoin="round"/>
<path d="M250.561 430.089C250.561 438.258 244.079 444.698 235.9 444.679C227.759 444.679 221.343 438.173 221.343 429.985C221.343 421.797 227.844 415.442 236.07 415.461C244.145 415.461 250.561 421.968 250.561 430.089Z" fill="white" stroke="#202124" stroke-width="4" stroke-linecap="round" stroke-linejoin="round"/>
<path d="M512.667 481.92L502.791 471.949L494.519 480.071C491.573 481.606 489.137 483.998 487.541 486.925L478.986 495.333L489.316 505.761C489.977 506.572 490.723 507.315 491.526 507.992L491.686 508.154L491.705 508.135C494.576 510.47 498.221 511.881 502.205 511.881C511.43 511.881 518.918 504.341 518.918 495.037C518.918 489.737 516.482 485.018 512.696 481.93L512.667 481.92Z" fill="#FBBC04" stroke="#202124" stroke-width="4" stroke-linecap="round" stroke-linejoin="round"/>
<path d="M437.126 244.419L437.097 244.381C435.889 242.877 434.527 241.497 433.033 240.278L412.654 219.69L391.847 234.272H248.874C234.054 234.272 222.051 246.265 222.051 261.057V296.322C222.051 296.322 222.099 297.75 221.765 298.635C221.432 299.501 220.918 299.968 220.071 300.367C218.891 300.929 217.444 300.967 216.15 300.215L205.879 294.323C203.072 292.696 199.55 294.723 199.55 297.969V335.433C199.55 338.659 203.024 340.687 205.832 339.107L216.169 333.281C217.368 332.615 218.71 332.596 219.843 333.063C220.804 333.443 221.556 334.357 221.737 334.976C221.918 335.604 222.003 336.089 222.051 337.489V353.279L204.642 365.482L227.153 388.088C232.026 394.798 239.936 399.157 248.874 399.157V399.176H416.11C430.93 399.176 442.932 387.183 442.932 372.392V261.057C442.932 254.765 440.752 248.988 437.116 244.409L437.126 244.419Z" fill="#FBBC04"/>
<path d="M437.126 244.419L437.097 244.381C435.889 242.877 434.527 241.497 433.033 240.278L412.654 219.69L391.847 234.272H248.874C234.054 234.272 222.051 246.265 222.051 261.057V296.322C222.051 296.322 222.099 297.75 221.765 298.635C221.432 299.501 220.918 299.968 220.071 300.367C218.891 300.929 217.444 300.967 216.15 300.215L205.879 294.323C203.072 292.696 199.55 294.723 199.55 297.969V335.433C199.55 338.659 203.024 340.687 205.832 339.107L216.169 333.281C217.368 332.615 218.71 332.596 219.843 333.063C220.804 333.443 221.556 334.357 221.737 334.976C221.918 335.604 222.003 336.089 222.051 337.489V353.279L204.642 365.482L227.153 388.088C232.026 394.798 239.936 399.157 248.874 399.157V399.176H416.11C430.93 399.176 442.932 387.183 442.932 372.392V261.057C442.932 254.765 440.752 248.988 437.116 244.409L437.126 244.419Z" fill="url(#paint5_linear_2488_52)"/>
<path d="M437.126 244.419L437.097 244.381C435.889 242.877 434.527 241.497 433.033 240.278L412.654 219.69L391.847 234.272H248.874C234.054 234.272 222.051 246.265 222.051 261.057V296.322C222.051 296.322 222.099 297.75 221.765 298.635C221.432 299.501 220.918 299.968 220.071 300.367C218.891 300.929 217.444 300.967 216.15 300.215L205.879 294.323C203.072 292.696 199.55 294.723 199.55 297.969V335.433C199.55 338.659 203.024 340.687 205.832 339.107L216.169 333.281C217.368 332.615 218.71 332.596 219.843 333.063C220.804 333.443 221.556 334.357 221.737 334.976C221.918 335.604 222.003 336.089 222.051 337.489V353.279L204.642 365.482L227.153 388.088C232.026 394.798 239.936 399.157 248.874 399.157V399.176H416.11C430.93 399.176 442.932 387.183 442.932 372.392V261.057C442.932 254.765 440.752 248.988 437.116 244.409L437.126 244.419Z" stroke="#202124" stroke-width="4" stroke-linejoin="round"/>
<path d="M226.429 376.885C211.609 376.885 199.607 364.892 199.607 350.101V315.216C199.559 313.817 199.473 313.322 199.293 312.703C199.112 312.085 198.36 311.171 197.398 310.79C196.266 310.324 194.924 310.343 193.724 311.009L183.388 316.834C180.58 318.414 177.105 316.387 177.105 313.16V275.696C177.105 272.451 180.627 270.423 183.435 272.051L193.705 277.943C195 278.695 196.447 278.656 197.627 278.095C198.474 277.695 198.988 277.229 199.321 276.363C199.654 275.468 199.607 274.05 199.607 274.05V238.784C199.607 223.993 211.619 212 226.429 212H393.665C408.485 212 420.488 223.993 420.488 238.784V350.11C420.488 364.902 408.476 376.895 393.665 376.895H226.429V376.876V376.885Z" fill="#FBBC04" stroke="#202124" stroke-width="4" stroke-miterlimit="10"/>
<path d="M253.233 293.98C254.928 290.22 256.727 286.527 259.021 283.082C263.837 275.829 269.852 269.823 277.162 265.064C284.558 260.238 292.649 257.163 301.339 255.812C307.24 254.879 313.189 254.831 319.138 255.66C330.674 257.24 340.973 261.685 349.996 269.033C358.106 275.638 364.169 283.805 368.195 293.485C368.481 294.151 368.481 294.732 368.195 295.398C362.427 308.99 353.09 319.384 340.078 326.437C332.93 330.311 325.306 332.605 317.244 333.443C305.327 334.661 293.981 332.691 283.311 327.323C269.738 320.517 259.896 310.056 253.833 296.112C253.652 295.712 253.452 295.313 253.252 294.913V294.018L253.233 293.999V293.98Z" fill="white" stroke="#202124" stroke-width="4" stroke-miterlimit="10"/>
<path d="M310.846 268.425C296.474 268.425 284.795 280.123 284.823 294.477C284.823 308.783 296.521 320.414 310.846 320.443C325.219 320.443 336.936 308.783 336.936 294.439C336.936 280.095 325.238 268.406 310.865 268.406L310.846 268.425Z" fill="#FBBC04" stroke="#202124" stroke-width="4" stroke-miterlimit="10"/>
<path d="M504.967 487.533C637.371 366.277 543.869 242.149 432.839 305.943" stroke="#202124" stroke-width="4" stroke-linecap="round" stroke-linejoin="bevel"/>
<path d="M492.622 502.142C501.761 502.142 509.179 494.512 509.179 485.098C509.179 475.684 501.77 468.054 492.622 468.054C483.473 468.054 476.064 475.684 476.064 485.098C476.064 494.512 483.473 502.142 492.622 502.142Z" fill="#FBBC04" stroke="#202124" stroke-width="4" stroke-linecap="round" stroke-linejoin="round"/>
<defs>
<linearGradient id="paint0_linear_2488_52" x1="8.71842" y1="541.358" x2="543.447" y2="98.3286" gradientUnits="userSpaceOnUse">
<stop stop-color="#1F87FC"/>
<stop offset="0.06" stop-color="#2686FB"/>
<stop offset="0.15" stop-color="#3985FA"/>
<stop offset="0.19" stop-color="#4385FA"/>
<stop offset="0.28" stop-color="#5283F8"/>
<stop offset="0.46" stop-color="#7981F3"/>
<stop offset="0.65" stop-color="#A97EED"/>
<stop offset="0.73" stop-color="#BC6BC9"/>
<stop offset="0.85" stop-color="#E04B88"/>
<stop offset="1" stop-color="#FD2B25"/>
</linearGradient>
<linearGradient id="paint1_linear_2488_52" x1="145.943" y1="509.917" x2="698.149" y2="509.917" gradientUnits="userSpaceOnUse">
<stop stop-color="#1F87FC"/>
<stop offset="0.64" stop-color="#6F84FA"/>
<stop offset="1" stop-color="#A083FA"/>
</linearGradient>
<linearGradient id="paint2_linear_2488_52" x1="382.491" y1="539.924" x2="500.636" y2="591.941" gradientUnits="userSpaceOnUse">
<stop stop-color="#1F87FC"/>
<stop offset="0.06" stop-color="#2686FB"/>
<stop offset="0.15" stop-color="#3985FA"/>
<stop offset="0.19" stop-color="#4385FA"/>
<stop offset="0.28" stop-color="#5283F8"/>
<stop offset="0.46" stop-color="#7981F3"/>
<stop offset="0.65" stop-color="#A97EED"/>
<stop offset="0.73" stop-color="#BC6BC9"/>
<stop offset="0.85" stop-color="#E04B88"/>
<stop offset="1" stop-color="#FD2B25"/>
</linearGradient>
<linearGradient id="paint3_linear_2488_52" x1="305.358" y1="460.939" x2="513.642" y2="264.953" gradientUnits="userSpaceOnUse">
<stop stop-color="#1F87FC"/>
<stop offset="0.06" stop-color="#2686FB"/>
<stop offset="0.15" stop-color="#3985FA"/>
<stop offset="0.19" stop-color="#4385FA"/>
<stop offset="0.28" stop-color="#5283F8"/>
<stop offset="0.46" stop-color="#7981F3"/>
<stop offset="0.65" stop-color="#A97EED"/>
<stop offset="0.73" stop-color="#BC6BC9"/>
<stop offset="0.85" stop-color="#E04B88"/>
<stop offset="1" stop-color="#FD2B25"/>
</linearGradient>
<linearGradient id="paint4_linear_2488_52" x1="365.115" y1="448.884" x2="605.584" y2="448.884" gradientUnits="userSpaceOnUse">
<stop stop-color="#1F87FC"/>
<stop offset="0.64" stop-color="#6F84FA"/>
<stop offset="1" stop-color="#A083FA"/>
</linearGradient>
<linearGradient id="paint5_linear_2488_52" x1="199.565" y1="309.437" x2="442.932" y2="309.437" gradientUnits="userSpaceOnUse">
<stop stop-color="#FFB800"/>
<stop offset="1" stop-color="#FFE100"/>
</linearGradient>
</defs>
</svg>
