<svg width="1088" height="688" viewBox="0 0 1088 688" fill="none" xmlns="http://www.w3.org/2000/svg">
<g clip-path="url(#clip0_2350_35)">
<path d="M1088 0H0V688H1088V0Z" fill="white"/>
<path d="M362.92 369.57L322.34 387.94C312.5 383.72 297.79 384.51 287.75 390.05L200.92 440.17V440.19L267.79 478.79L354.6 428.65C360.17 425.28 362.98 421.02 362.93 416.92V369.58L362.92 369.57Z" fill="url(#paint0_linear_2350_35)" stroke="#202124" stroke-width="4" stroke-linecap="round" stroke-linejoin="round"/>
<path d="M157.17 471.03H157.26C156.7 475.11 158.91 479.12 164 482.05L195.21 500.07C205.06 505.76 221.94 505.25 232.87 498.91L246.92 490.8C247.01 490.77 247.11 490.71 247.21 490.65L267.77 478.78V431.69L157.17 424.18V471.03Z" fill="#2F80F6" stroke="#202124" stroke-width="4" stroke-linecap="round" stroke-linejoin="round"/>
<path d="M354.579 381.55L267.779 431.69L200.909 393.09V393.07L287.739 342.95C298.039 337.27 313.259 336.57 323.079 341.15C323.679 341.44 324.289 341.76 324.859 342.09L356.069 360.11C356.669 360.46 357.279 360.83 357.789 361.21C365.639 366.88 364.409 375.62 354.579 381.55Z" fill="#F8BA07" stroke="#202124" stroke-width="4" stroke-linecap="round" stroke-linejoin="round"/>
<path d="M267.78 431.69L247.22 443.56C247.12 443.61 247.03 443.67 246.93 443.71L232.88 451.82C221.95 458.15 205.07 458.67 195.22 452.98L164.01 434.96C154.16 429.29 155.08 419.54 166.04 413.21L180.34 404.95L200.91 393.09L267.78 431.69Z" fill="#2F80F6" stroke="#202124" stroke-width="4" stroke-linecap="round" stroke-linejoin="round"/>
<path d="M200.899 393.08H200.869" stroke="#202124" stroke-width="4" stroke-linecap="round" stroke-linejoin="round"/>
<path d="M886.58 374.57L930.82 325.09L842.34 311.4L854.2 336.94L886.58 374.57Z" fill="white" stroke="#202124" stroke-width="4" stroke-linecap="round" stroke-linejoin="round"/>
<path d="M898.44 166.24V343.78L854.2 336.94V159.04C854.56 159.26 854.92 159.48 855.3 159.7C855.96 160.08 856.63 160.44 857.32 160.8C868.01 166.25 882.16 168.21 895.34 166.68C896.38 166.56 897.41 166.42 898.44 166.25V166.24Z" fill="url(#paint1_linear_2350_35)" stroke="#202124" stroke-width="4" stroke-linecap="round" stroke-linejoin="round"/>
<path d="M930.82 141.83V325.09L898.43 343.79V166.25C899.19 166.13 899.94 166 900.69 165.86C906.97 164.64 912.86 162.59 917.86 159.71C922.86 156.82 926.41 153.42 928.52 149.8C929.12 148.77 929.61 147.71 929.97 146.65C930.52 145.07 930.8 143.46 930.82 141.86V141.83Z" fill="url(#paint2_linear_2350_35)" stroke="#202124" stroke-width="4" stroke-linecap="round" stroke-linejoin="round"/>
<path d="M854.2 159.03V336.93L842.34 311.39V141.82C842.42 147.78 846.09 153.73 853.36 158.49C853.63 158.67 853.91 158.85 854.2 159.03Z" fill="url(#paint3_linear_2350_35)" stroke="#202124" stroke-width="4" stroke-linecap="round" stroke-linejoin="round"/>
<path d="M842.34 103.55V141.83C842.42 147.79 846.09 153.74 853.36 158.5C853.63 158.68 853.91 158.86 854.2 159.04C854.56 159.26 854.92 159.48 855.3 159.7C855.96 160.08 856.63 160.44 857.32 160.8C868.01 166.25 882.16 168.21 895.34 166.68C896.38 166.56 897.41 166.42 898.44 166.25C899.2 166.13 899.95 166 900.7 165.86C906.98 164.64 912.87 162.59 917.87 159.71C922.87 156.82 926.42 153.42 928.53 149.8C929.13 148.77 929.62 147.71 929.98 146.65C930.53 145.07 930.81 143.46 930.83 141.86V103.58H842.35L842.34 103.55Z" fill="#FFE100" stroke="#202124" stroke-width="4" stroke-linecap="round" stroke-linejoin="round"/>
<path d="M917.87 85.4801C935.15 95.4601 935.15 111.63 917.87 121.61C900.59 131.59 872.58 131.59 855.3 121.61C838.02 111.63 838.02 95.4601 855.3 85.4801C872.58 75.5001 900.59 75.5001 917.87 85.4801Z" fill="white" stroke="#202124" stroke-width="4" stroke-linecap="round" stroke-linejoin="round"/>
<path d="M886.58 374.57L903.1 356.1C892.86 359.89 881.99 360.49 871.08 356.55L886.59 374.57H886.58Z" fill="#D8D8D8" stroke="#202124" stroke-width="4" stroke-linecap="round" stroke-linejoin="round"/>
<path d="M865.19 497.1L859.58 500.34L692.33 403.77C669.36 390.51 632.11 390.51 609.14 403.77L387.95 531.48L382.35 528.25C359.37 514.99 359.37 493.48 382.35 480.21L609.14 349.26C632.11 336 669.36 336 692.33 349.26L865.19 449.07C888.16 462.33 888.16 483.84 865.19 497.1Z" fill="white" stroke="#202124" stroke-width="4" stroke-linecap="round" stroke-linejoin="round"/>
<path d="M859.58 500.34L638.39 628.05C615.41 641.32 578.16 641.32 555.19 628.05L501.03 596.77C498.78 595.54 497.89 595.2 496.64 594.8C495.38 594.39 492.79 594.26 490.73 594.77C488.26 595.35 486.2 596.57 485.38 598.27L478.41 612.75C476.53 616.68 467.95 617.98 462.95 615.08L440.88 602.34L404.79 581.5C399.76 578.6 402.06 573.64 408.92 572.56L434.02 568.65C437.2 568.16 439.39 566.84 440.35 565.26C440.69 564.71 440.88 564.22 440.88 563.74C440.89 563.24 440.7 562.75 440.26 562.19C439.42 561.1 437.14 559.85 437.14 559.85L387.96 531.46L609.15 403.75C632.12 390.48 669.37 390.48 692.34 403.75L859.59 500.32L859.58 500.34Z" fill="#B3B3B3" stroke="#202124" stroke-width="4" stroke-linecap="round" stroke-linejoin="round"/>
<path fill-rule="evenodd" clip-rule="evenodd" d="M882.409 227.16V175.87L825.039 180.79L703.559 110.65C681.939 98.17 646.899 98.17 625.279 110.65L447.719 213.18L365.289 220.25V270.7L365.419 270.78C363.739 280.04 369.039 289.63 381.329 296.73L399.899 307.45V342.97C399.739 344.33 400.529 345.75 402.429 346.85L457.149 378.45C461.859 381.17 469.929 379.95 471.699 376.25L478.259 362.62C479.029 361.02 480.969 359.89 483.289 359.33C485.239 358.86 487.659 358.98 488.849 359.36C490.039 359.74 490.869 360.05 492.989 361.21L543.949 390.64C565.559 403.12 600.619 403.13 622.229 390.64L866.199 249.77C877.009 243.53 882.409 235.35 882.409 227.17V227.16Z" fill="url(#paint4_linear_2350_35)" stroke="#202124" stroke-width="4" stroke-linecap="round" stroke-linejoin="round"/>
<path d="M622.24 339.33C600.62 351.81 565.57 351.81 543.96 339.33L493 309.9C490.88 308.74 490.05 308.43 488.86 308.05C487.67 307.67 485.25 307.55 483.3 308.02C480.97 308.58 479.04 309.72 478.27 311.31L471.71 324.94C469.94 328.64 461.87 329.86 457.16 327.14L402.44 295.54C397.71 292.81 399.86 288.14 406.33 287.13L429.95 283.45C432.94 282.99 435.01 281.74 435.9 280.27C436.54 279.21 436.62 278.4 435.82 277.38C435.02 276.36 432.88 275.18 432.88 275.18L381.34 245.43C359.72 232.95 359.71 212.71 381.34 200.23L625.31 59.36C646.93 46.88 681.97 46.88 703.59 59.36L866.23 153.27C887.85 165.75 887.85 185.99 866.23 198.47L622.26 339.34L622.24 339.33Z" fill="#2F80F6" stroke="#202124" stroke-width="4" stroke-linecap="round" stroke-linejoin="round"/>
<path d="M399.89 313.13V291.68" stroke="#202124" stroke-width="4" stroke-linecap="round" stroke-linejoin="round"/>
<path d="M699.39 116.79C685.28 121.35 671.2 125.94 656.98 130.39C624.19 140.65 594.08 149.13 561.4 159.5C560.95 159.64 560.5 159.83 560.06 160.01L560 159.97C560 159.97 559.92 160.04 559.88 160.07C559.82 160.09 559.76 160.12 559.7 160.14L559.76 160.18C559.45 160.44 559.13 160.69 558.88 160.95C540.92 179.82 526.23 197.21 508.47 216.14C500.77 224.35 492.82 232.48 484.91 240.63C481.28 244.37 482.38 248.98 487.72 251.7C493.29 254.54 500.99 254.39 507.56 252.12C522.92 246.82 538.6 241.82 554.28 236.66C561.81 241.01 574.36 248.23 581.52 252.4C585.24 254.56 589.59 254.96 594.9 255.17C611.16 255.79 623.86 253.37 638.79 249.53C655.76 245.16 670.12 238.83 683.39 231.56H683.4C683.4 231.56 683.5 231.51 683.54 231.48C683.59 231.45 683.64 231.42 683.7 231.4H683.69C696.28 223.73 707.25 215.44 714.81 205.64C721.46 197.02 726.61 189.27 724.57 180.3C723.88 177.26 723.53 174.72 719.78 172.58C712.56 168.45 700.05 161.2 692.52 156.85C701.46 147.8 710.11 138.74 719.3 129.88C723.23 126.09 723.48 121.64 718.57 118.43C713.86 115.35 705.86 114.71 699.39 116.81V116.79Z" fill="#F8BA07" stroke="#202124" stroke-width="4" stroke-linecap="round" stroke-linejoin="round"/>
<path d="M708.77 141.29L748.58 164.14" stroke="#202124" stroke-width="4" stroke-linecap="round" stroke-linejoin="round"/>
<path fill-rule="evenodd" clip-rule="evenodd" d="M594.32 218.04L647 201.39L705.38 143.73" fill="#F8BA07"/>
<path d="M594.32 218.04L647 201.39L705.38 143.73" stroke="#202124" stroke-width="4" stroke-linecap="round" stroke-linejoin="round"/>
<path d="M772.279 176.96C779.069 173.04 779.069 166.68 772.279 162.76C765.489 158.84 754.479 158.84 747.679 162.76C740.889 166.68 740.889 173.04 747.679 176.96C754.469 180.88 765.479 180.88 772.279 176.96Z" fill="#F8BA07" stroke="#202124" stroke-width="4" stroke-linecap="round" stroke-linejoin="round"/>
</g>
<defs>
<linearGradient id="paint0_linear_2350_35" x1="200.91" y1="424.18" x2="362.92" y2="424.18" gradientUnits="userSpaceOnUse">
<stop stop-color="#FFB800"/>
<stop offset="1" stop-color="#FFE100"/>
</linearGradient>
<linearGradient id="paint1_linear_2350_35" x1="822.49" y1="305.23" x2="929.96" y2="197.76" gradientUnits="userSpaceOnUse">
<stop stop-color="#FFB800"/>
<stop offset="1" stop-color="#FFE100"/>
</linearGradient>
<linearGradient id="paint2_linear_2350_35" x1="857.47" y1="302.82" x2="974.64" y2="185.65" gradientUnits="userSpaceOnUse">
<stop stop-color="#FFB800"/>
<stop offset="1" stop-color="#FFE100"/>
</linearGradient>
<linearGradient id="paint3_linear_2350_35" x1="802.46" y1="285.2" x2="894.09" y2="193.57" gradientUnits="userSpaceOnUse">
<stop stop-color="#FFB800"/>
<stop offset="1" stop-color="#FFE100"/>
</linearGradient>
<linearGradient id="paint4_linear_2350_35" x1="365.129" y1="250.641" x2="882.447" y2="250.641" gradientUnits="userSpaceOnUse">
<stop offset="0.25" stop-color="#1F87FC"/>
<stop offset="0.64" stop-color="#6F84FA"/>
<stop offset="1" stop-color="#A083FA"/>
</linearGradient>
<clipPath id="clip0_2350_35">
<rect width="1088" height="688" fill="white"/>
</clipPath>
</defs>
</svg>
