<svg width="50" height="50" viewBox="0 0 50 50" fill="none" xmlns="http://www.w3.org/2000/svg">
<path d="M19.1875 35C20.4792 35 21.5625 34.5537 22.4375 33.6612C23.3125 32.7687 23.75 31.6958 23.75 30.4425C23.75 29.1892 23.3125 28.1146 22.4375 27.2188C21.5625 26.3229 20.4896 25.875 19.2188 25.875C17.9479 25.875 16.8646 26.3213 15.9688 27.2138C15.0729 28.1063 14.625 29.1792 14.625 30.4325C14.625 31.6858 15.0717 32.7604 15.9653 33.6562C16.8587 34.5521 17.9328 35 19.1875 35ZM30.8075 35C32.0608 35 33.1354 34.5537 34.0312 33.6612C34.9271 32.7687 35.375 31.6958 35.375 30.4425C35.375 29.1892 34.9288 28.1146 34.0363 27.2188C33.1437 26.3229 32.0708 25.875 30.8175 25.875C29.5642 25.875 28.4896 26.3213 27.5938 27.2138C26.6979 28.1063 26.25 29.1792 26.25 30.4325C26.25 31.6858 26.6962 32.7604 27.5887 33.6562C28.4813 34.5521 29.5542 35 30.8075 35ZM24.995 23.3125C26.2483 23.3125 27.3229 22.875 28.2188 22C29.1146 21.125 29.5625 20.0521 29.5625 18.7812C29.5625 17.5104 29.1163 16.4271 28.2238 15.5312C27.3312 14.6354 26.2583 14.1875 25.005 14.1875C23.7517 14.1875 22.6771 14.6342 21.7812 15.5277C20.8854 16.4212 20.4375 17.4953 20.4375 18.75C20.4375 20.0417 20.8838 21.125 21.7763 22C22.6688 22.875 23.7417 23.3125 24.995 23.3125ZM25.0166 50C21.5694 50 18.3298 49.3438 15.2979 48.0312C12.266 46.7188 9.61458 44.9271 7.34375 42.6562C5.07292 40.3854 3.28125 37.7325 1.96875 34.6974C0.65625 31.6624 0 28.4195 0 24.9688C0 21.518 0.65625 18.2751 1.96875 15.2401C3.28125 12.205 5.07292 9.5625 7.34375 7.3125C9.61458 5.0625 12.2675 3.28125 15.3026 1.96875C18.3376 0.65625 21.5805 0 25.0312 0C28.482 0 31.7249 0.65625 34.7599 1.96875C37.795 3.28125 40.4375 5.0625 42.6875 7.3125C44.9375 9.5625 46.7188 12.2083 48.0312 15.25C49.3438 18.2917 50 21.5361 50 24.9834C50 28.4306 49.3438 31.6702 48.0312 34.7021C46.7188 37.734 44.9375 40.3816 42.6875 42.6447C40.4375 44.9079 37.7917 46.6996 34.75 48.0197C31.7083 49.3399 28.4639 50 25.0166 50ZM25.0312 46.25C30.9271 46.25 35.9375 44.1771 40.0625 40.0312C44.1875 35.8854 46.25 30.8646 46.25 24.9688C46.25 19.0729 44.1914 14.0625 40.0742 9.9375C35.957 5.8125 30.9323 3.75 25 3.75C19.125 3.75 14.1146 5.80858 9.96875 9.92575C5.82292 14.043 3.75 19.0677 3.75 25C3.75 30.875 5.82292 35.8854 9.96875 40.0312C14.1146 44.1771 19.1354 46.25 25.0312 46.25Z" fill="#EA4335"/>
</svg>
