<svg width="50" height="50" viewBox="0 0 50 50" fill="none" xmlns="http://www.w3.org/2000/svg">
<path d="M4.16667 50C3.05556 50 2.08333 49.5833 1.25 48.75C0.416667 47.9167 0 46.9444 0 45.8333V4.16667C0 3.05556 0.416667 2.08333 1.25 1.25C2.08333 0.416667 3.05556 0 4.16667 0H31.5972V4.16667H4.16667V45.8333H45.8333V18.4028H50V45.8333C50 46.9444 49.5833 47.9167 48.75 48.75C47.9167 49.5833 46.9444 50 45.8333 50H4.16667ZM25 35.7639L21.5929 28.2682L14.0972 24.8611L21.5929 21.454L25 13.9583L28.4071 21.454L35.9028 24.8611L28.4071 28.2682L25 35.7639ZM39.3056 18.6806L36.6667 13.3333L31.3194 10.6944L36.6667 8.05556L39.3056 2.70833L41.9444 8.05556L47.2917 10.6944L41.9444 13.3333L39.3056 18.6806Z" fill="#4285F4"/>
</svg>
