<svg width="63" height="50" viewBox="0 0 63 50" fill="none" xmlns="http://www.w3.org/2000/svg">
<path d="M37.5 50V43.75H46.875C47.7604 43.75 48.5026 43.4505 49.1016 42.8516C49.7005 42.2526 50 41.5104 50 40.625V34.375C50 32.3958 50.5729 30.599 51.7187 28.9844C52.8646 27.3698 54.375 26.224 56.25 25.5469V24.4531C54.375 23.776 52.8646 22.6302 51.7187 21.0156C50.5729 19.401 50 17.6042 50 15.625V9.375C50 8.48958 49.7005 7.7474 49.1016 7.14844C48.5026 6.54948 47.7604 6.25 46.875 6.25H37.5V0H46.875C49.4792 0 51.6927 0.911458 53.5156 2.73438C55.3385 4.55729 56.25 6.77083 56.25 9.375V15.625C56.25 16.5104 56.5495 17.2526 57.1484 17.8516C57.7474 18.4505 58.4896 18.75 59.375 18.75H62.5V31.25H59.375C58.4896 31.25 57.7474 31.5495 57.1484 32.1484C56.5495 32.7474 56.25 33.4896 56.25 34.375V40.625C56.25 43.2292 55.3385 45.4427 53.5156 47.2656C51.6927 49.0885 49.4792 50 46.875 50H37.5ZM15.625 50C13.0208 50 10.8073 49.0885 8.98437 47.2656C7.16146 45.4427 6.25 43.2292 6.25 40.625V34.375C6.25 33.4896 5.95052 32.7474 5.35156 32.1484C4.7526 31.5495 4.01042 31.25 3.125 31.25H0V18.75H3.125C4.01042 18.75 4.7526 18.4505 5.35156 17.8516C5.95052 17.2526 6.25 16.5104 6.25 15.625V9.375C6.25 6.77083 7.16146 4.55729 8.98437 2.73438C10.8073 0.911458 13.0208 0 15.625 0H25V6.25H15.625C14.7396 6.25 13.9974 6.54948 13.3984 7.14844C12.7995 7.7474 12.5 8.48958 12.5 9.375V15.625C12.5 17.6042 11.9271 19.401 10.7812 21.0156C9.63542 22.6302 8.125 23.776 6.25 24.4531V25.5469C8.125 26.224 9.63542 27.3698 10.7812 28.9844C11.9271 30.599 12.5 32.3958 12.5 34.375V40.625C12.5 41.5104 12.7995 42.2526 13.3984 42.8516C13.9974 43.4505 14.7396 43.75 15.625 43.75H25V50H15.625Z" fill="#34A853"/>
</svg>
